%TF.GenerationSoftware,KiCad,Pcbnew,8.0.2*%
%TF.CreationDate,2024-05-05T22:58:05+02:00*%
%TF.ProjectId,PA3194G822_R01,50413331-3934-4473-9832-325f5230312e,A*%
%TF.SameCoordinates,Original*%
%TF.FileFunction,Other,User*%
%FSLAX46Y46*%
G04 Gerber Fmt 4.6, Leading zero omitted, Abs format (unit mm)*
G04 Created by KiCad (PCBNEW 8.0.2) date 2024-05-05 22:58:05*
%MOMM*%
%LPD*%
G01*
G04 APERTURE LIST*
%ADD10C,0.050000*%
%ADD11C,0.200000*%
G04 APERTURE END LIST*
D10*
X135000000Y-86000000D02*
X135000000Y-114000000D01*
X100000000Y-86000000D02*
G75*
G02*
X101000000Y-85000000I1000000J0D01*
G01*
X135000000Y-114000000D02*
G75*
G02*
X134000000Y-115000000I-1000000J0D01*
G01*
X101000000Y-115000000D02*
G75*
G02*
X100000000Y-114000000I0J1000000D01*
G01*
X101000000Y-85000000D02*
X134000000Y-85000000D01*
X101000000Y-115000000D02*
X134000000Y-115000000D01*
X100000000Y-86000000D02*
X100000000Y-114000000D01*
X134000000Y-85000000D02*
G75*
G02*
X135000000Y-86000000I0J-1000000D01*
G01*
D11*
X111328006Y-82793409D02*
X110994673Y-82793409D01*
X110994673Y-83317219D02*
X110994673Y-82317219D01*
X110994673Y-82317219D02*
X111470863Y-82317219D01*
X112423244Y-83317219D02*
X112089911Y-82841028D01*
X111851816Y-83317219D02*
X111851816Y-82317219D01*
X111851816Y-82317219D02*
X112232768Y-82317219D01*
X112232768Y-82317219D02*
X112328006Y-82364838D01*
X112328006Y-82364838D02*
X112375625Y-82412457D01*
X112375625Y-82412457D02*
X112423244Y-82507695D01*
X112423244Y-82507695D02*
X112423244Y-82650552D01*
X112423244Y-82650552D02*
X112375625Y-82745790D01*
X112375625Y-82745790D02*
X112328006Y-82793409D01*
X112328006Y-82793409D02*
X112232768Y-82841028D01*
X112232768Y-82841028D02*
X111851816Y-82841028D01*
X113280387Y-82650552D02*
X113280387Y-83317219D01*
X113042292Y-82269600D02*
X112804197Y-82983885D01*
X112804197Y-82983885D02*
X113423244Y-82983885D01*
X114518483Y-83269600D02*
X114661340Y-83317219D01*
X114661340Y-83317219D02*
X114899435Y-83317219D01*
X114899435Y-83317219D02*
X114994673Y-83269600D01*
X114994673Y-83269600D02*
X115042292Y-83221980D01*
X115042292Y-83221980D02*
X115089911Y-83126742D01*
X115089911Y-83126742D02*
X115089911Y-83031504D01*
X115089911Y-83031504D02*
X115042292Y-82936266D01*
X115042292Y-82936266D02*
X114994673Y-82888647D01*
X114994673Y-82888647D02*
X114899435Y-82841028D01*
X114899435Y-82841028D02*
X114708959Y-82793409D01*
X114708959Y-82793409D02*
X114613721Y-82745790D01*
X114613721Y-82745790D02*
X114566102Y-82698171D01*
X114566102Y-82698171D02*
X114518483Y-82602933D01*
X114518483Y-82602933D02*
X114518483Y-82507695D01*
X114518483Y-82507695D02*
X114566102Y-82412457D01*
X114566102Y-82412457D02*
X114613721Y-82364838D01*
X114613721Y-82364838D02*
X114708959Y-82317219D01*
X114708959Y-82317219D02*
X114947054Y-82317219D01*
X114947054Y-82317219D02*
X115089911Y-82364838D01*
X115375626Y-82650552D02*
X115756578Y-82650552D01*
X115518483Y-82317219D02*
X115518483Y-83174361D01*
X115518483Y-83174361D02*
X115566102Y-83269600D01*
X115566102Y-83269600D02*
X115661340Y-83317219D01*
X115661340Y-83317219D02*
X115756578Y-83317219D01*
X116089912Y-83317219D02*
X116089912Y-82650552D01*
X116089912Y-82317219D02*
X116042293Y-82364838D01*
X116042293Y-82364838D02*
X116089912Y-82412457D01*
X116089912Y-82412457D02*
X116137531Y-82364838D01*
X116137531Y-82364838D02*
X116089912Y-82317219D01*
X116089912Y-82317219D02*
X116089912Y-82412457D01*
X116423245Y-82650552D02*
X116804197Y-82650552D01*
X116566102Y-83317219D02*
X116566102Y-82460076D01*
X116566102Y-82460076D02*
X116613721Y-82364838D01*
X116613721Y-82364838D02*
X116708959Y-82317219D01*
X116708959Y-82317219D02*
X116804197Y-82317219D01*
X116994674Y-82650552D02*
X117375626Y-82650552D01*
X117137531Y-83317219D02*
X117137531Y-82460076D01*
X117137531Y-82460076D02*
X117185150Y-82364838D01*
X117185150Y-82364838D02*
X117280388Y-82317219D01*
X117280388Y-82317219D02*
X117375626Y-82317219D01*
X118089912Y-83269600D02*
X117994674Y-83317219D01*
X117994674Y-83317219D02*
X117804198Y-83317219D01*
X117804198Y-83317219D02*
X117708960Y-83269600D01*
X117708960Y-83269600D02*
X117661341Y-83174361D01*
X117661341Y-83174361D02*
X117661341Y-82793409D01*
X117661341Y-82793409D02*
X117708960Y-82698171D01*
X117708960Y-82698171D02*
X117804198Y-82650552D01*
X117804198Y-82650552D02*
X117994674Y-82650552D01*
X117994674Y-82650552D02*
X118089912Y-82698171D01*
X118089912Y-82698171D02*
X118137531Y-82793409D01*
X118137531Y-82793409D02*
X118137531Y-82888647D01*
X118137531Y-82888647D02*
X117661341Y-82983885D01*
X118566103Y-82650552D02*
X118566103Y-83317219D01*
X118566103Y-82745790D02*
X118613722Y-82698171D01*
X118613722Y-82698171D02*
X118708960Y-82650552D01*
X118708960Y-82650552D02*
X118851817Y-82650552D01*
X118851817Y-82650552D02*
X118947055Y-82698171D01*
X118947055Y-82698171D02*
X118994674Y-82793409D01*
X118994674Y-82793409D02*
X118994674Y-83317219D01*
X119851817Y-83269600D02*
X119756579Y-83317219D01*
X119756579Y-83317219D02*
X119566103Y-83317219D01*
X119566103Y-83317219D02*
X119470865Y-83269600D01*
X119470865Y-83269600D02*
X119423246Y-83174361D01*
X119423246Y-83174361D02*
X119423246Y-82793409D01*
X119423246Y-82793409D02*
X119470865Y-82698171D01*
X119470865Y-82698171D02*
X119566103Y-82650552D01*
X119566103Y-82650552D02*
X119756579Y-82650552D01*
X119756579Y-82650552D02*
X119851817Y-82698171D01*
X119851817Y-82698171D02*
X119899436Y-82793409D01*
X119899436Y-82793409D02*
X119899436Y-82888647D01*
X119899436Y-82888647D02*
X119423246Y-82983885D01*
X120328008Y-83317219D02*
X120328008Y-82650552D01*
X120328008Y-82841028D02*
X120375627Y-82745790D01*
X120375627Y-82745790D02*
X120423246Y-82698171D01*
X120423246Y-82698171D02*
X120518484Y-82650552D01*
X120518484Y-82650552D02*
X120613722Y-82650552D01*
X121899437Y-82317219D02*
X121994675Y-82317219D01*
X121994675Y-82317219D02*
X122089913Y-82364838D01*
X122089913Y-82364838D02*
X122137532Y-82412457D01*
X122137532Y-82412457D02*
X122185151Y-82507695D01*
X122185151Y-82507695D02*
X122232770Y-82698171D01*
X122232770Y-82698171D02*
X122232770Y-82936266D01*
X122232770Y-82936266D02*
X122185151Y-83126742D01*
X122185151Y-83126742D02*
X122137532Y-83221980D01*
X122137532Y-83221980D02*
X122089913Y-83269600D01*
X122089913Y-83269600D02*
X121994675Y-83317219D01*
X121994675Y-83317219D02*
X121899437Y-83317219D01*
X121899437Y-83317219D02*
X121804199Y-83269600D01*
X121804199Y-83269600D02*
X121756580Y-83221980D01*
X121756580Y-83221980D02*
X121708961Y-83126742D01*
X121708961Y-83126742D02*
X121661342Y-82936266D01*
X121661342Y-82936266D02*
X121661342Y-82698171D01*
X121661342Y-82698171D02*
X121708961Y-82507695D01*
X121708961Y-82507695D02*
X121756580Y-82412457D01*
X121756580Y-82412457D02*
X121804199Y-82364838D01*
X121804199Y-82364838D02*
X121899437Y-82317219D01*
X122661342Y-83221980D02*
X122708961Y-83269600D01*
X122708961Y-83269600D02*
X122661342Y-83317219D01*
X122661342Y-83317219D02*
X122613723Y-83269600D01*
X122613723Y-83269600D02*
X122661342Y-83221980D01*
X122661342Y-83221980D02*
X122661342Y-83317219D01*
X123089913Y-82412457D02*
X123137532Y-82364838D01*
X123137532Y-82364838D02*
X123232770Y-82317219D01*
X123232770Y-82317219D02*
X123470865Y-82317219D01*
X123470865Y-82317219D02*
X123566103Y-82364838D01*
X123566103Y-82364838D02*
X123613722Y-82412457D01*
X123613722Y-82412457D02*
X123661341Y-82507695D01*
X123661341Y-82507695D02*
X123661341Y-82602933D01*
X123661341Y-82602933D02*
X123613722Y-82745790D01*
X123613722Y-82745790D02*
X123042294Y-83317219D01*
X123042294Y-83317219D02*
X123661341Y-83317219D01*
X124089913Y-83317219D02*
X124089913Y-82650552D01*
X124089913Y-82745790D02*
X124137532Y-82698171D01*
X124137532Y-82698171D02*
X124232770Y-82650552D01*
X124232770Y-82650552D02*
X124375627Y-82650552D01*
X124375627Y-82650552D02*
X124470865Y-82698171D01*
X124470865Y-82698171D02*
X124518484Y-82793409D01*
X124518484Y-82793409D02*
X124518484Y-83317219D01*
X124518484Y-82793409D02*
X124566103Y-82698171D01*
X124566103Y-82698171D02*
X124661341Y-82650552D01*
X124661341Y-82650552D02*
X124804198Y-82650552D01*
X124804198Y-82650552D02*
X124899437Y-82698171D01*
X124899437Y-82698171D02*
X124947056Y-82793409D01*
X124947056Y-82793409D02*
X124947056Y-83317219D01*
X125423246Y-83317219D02*
X125423246Y-82650552D01*
X125423246Y-82745790D02*
X125470865Y-82698171D01*
X125470865Y-82698171D02*
X125566103Y-82650552D01*
X125566103Y-82650552D02*
X125708960Y-82650552D01*
X125708960Y-82650552D02*
X125804198Y-82698171D01*
X125804198Y-82698171D02*
X125851817Y-82793409D01*
X125851817Y-82793409D02*
X125851817Y-83317219D01*
X125851817Y-82793409D02*
X125899436Y-82698171D01*
X125899436Y-82698171D02*
X125994674Y-82650552D01*
X125994674Y-82650552D02*
X126137531Y-82650552D01*
X126137531Y-82650552D02*
X126232770Y-82698171D01*
X126232770Y-82698171D02*
X126280389Y-82793409D01*
X126280389Y-82793409D02*
X126280389Y-83317219D01*
M02*
