%TF.GenerationSoftware,KiCad,Pcbnew,8.0.6*%
%TF.CreationDate,2024-11-15T14:11:30+01:00*%
%TF.ProjectId,PA3194G822_R05,50413331-3934-4473-9832-325f5230352e,3*%
%TF.SameCoordinates,Original*%
%TF.FileFunction,Legend,Top*%
%TF.FilePolarity,Positive*%
%FSLAX46Y46*%
G04 Gerber Fmt 4.6, Leading zero omitted, Abs format (unit mm)*
G04 Created by KiCad (PCBNEW 8.0.6) date 2024-11-15 14:11:30*
%MOMM*%
%LPD*%
G01*
G04 APERTURE LIST*
%ADD10C,0.200000*%
%ADD11C,0.100000*%
%ADD12C,0.150000*%
%ADD13C,0.120000*%
%ADD14C,0.152400*%
G04 APERTURE END LIST*
D10*
X137540000Y-86910000D02*
X140150000Y-86910000D01*
X140150000Y-95380000D01*
X137540000Y-95380000D01*
X137540000Y-86910000D01*
X113915000Y-91540000D02*
X116525000Y-91540000D01*
X116525000Y-95400000D01*
X113915000Y-95400000D01*
X113915000Y-91540000D01*
X122430000Y-90055000D02*
X125040000Y-90055000D01*
X125040000Y-95385000D01*
X122430000Y-95385000D01*
X122430000Y-90055000D01*
D11*
X113934000Y-107019000D02*
X125984000Y-107019000D01*
X125984000Y-113284000D01*
X113934000Y-113284000D01*
X113934000Y-107019000D01*
D10*
X115832742Y-94291279D02*
X115832742Y-94862707D01*
X115832742Y-94862707D02*
X114632742Y-94862707D01*
X115718457Y-93205564D02*
X115775600Y-93262707D01*
X115775600Y-93262707D02*
X115832742Y-93434135D01*
X115832742Y-93434135D02*
X115832742Y-93548421D01*
X115832742Y-93548421D02*
X115775600Y-93719850D01*
X115775600Y-93719850D02*
X115661314Y-93834135D01*
X115661314Y-93834135D02*
X115547028Y-93891278D01*
X115547028Y-93891278D02*
X115318457Y-93948421D01*
X115318457Y-93948421D02*
X115147028Y-93948421D01*
X115147028Y-93948421D02*
X114918457Y-93891278D01*
X114918457Y-93891278D02*
X114804171Y-93834135D01*
X114804171Y-93834135D02*
X114689885Y-93719850D01*
X114689885Y-93719850D02*
X114632742Y-93548421D01*
X114632742Y-93548421D02*
X114632742Y-93434135D01*
X114632742Y-93434135D02*
X114689885Y-93262707D01*
X114689885Y-93262707D02*
X114747028Y-93205564D01*
X115832742Y-92691278D02*
X114632742Y-92691278D01*
X114632742Y-92691278D02*
X114632742Y-92405564D01*
X114632742Y-92405564D02*
X114689885Y-92234135D01*
X114689885Y-92234135D02*
X114804171Y-92119850D01*
X114804171Y-92119850D02*
X114918457Y-92062707D01*
X114918457Y-92062707D02*
X115147028Y-92005564D01*
X115147028Y-92005564D02*
X115318457Y-92005564D01*
X115318457Y-92005564D02*
X115547028Y-92062707D01*
X115547028Y-92062707D02*
X115661314Y-92119850D01*
X115661314Y-92119850D02*
X115775600Y-92234135D01*
X115775600Y-92234135D02*
X115832742Y-92405564D01*
X115832742Y-92405564D02*
X115832742Y-92691278D01*
D11*
X126208646Y-94602811D02*
X126827693Y-94602811D01*
X126827693Y-94602811D02*
X126494360Y-94983763D01*
X126494360Y-94983763D02*
X126637217Y-94983763D01*
X126637217Y-94983763D02*
X126732455Y-95031382D01*
X126732455Y-95031382D02*
X126780074Y-95079001D01*
X126780074Y-95079001D02*
X126827693Y-95174239D01*
X126827693Y-95174239D02*
X126827693Y-95412334D01*
X126827693Y-95412334D02*
X126780074Y-95507572D01*
X126780074Y-95507572D02*
X126732455Y-95555192D01*
X126732455Y-95555192D02*
X126637217Y-95602811D01*
X126637217Y-95602811D02*
X126351503Y-95602811D01*
X126351503Y-95602811D02*
X126256265Y-95555192D01*
X126256265Y-95555192D02*
X126208646Y-95507572D01*
X127113408Y-94602811D02*
X127446741Y-95602811D01*
X127446741Y-95602811D02*
X127780074Y-94602811D01*
X128018170Y-94602811D02*
X128637217Y-94602811D01*
X128637217Y-94602811D02*
X128303884Y-94983763D01*
X128303884Y-94983763D02*
X128446741Y-94983763D01*
X128446741Y-94983763D02*
X128541979Y-95031382D01*
X128541979Y-95031382D02*
X128589598Y-95079001D01*
X128589598Y-95079001D02*
X128637217Y-95174239D01*
X128637217Y-95174239D02*
X128637217Y-95412334D01*
X128637217Y-95412334D02*
X128589598Y-95507572D01*
X128589598Y-95507572D02*
X128541979Y-95555192D01*
X128541979Y-95555192D02*
X128446741Y-95602811D01*
X128446741Y-95602811D02*
X128161027Y-95602811D01*
X128161027Y-95602811D02*
X128065789Y-95555192D01*
X128065789Y-95555192D02*
X128018170Y-95507572D01*
X126827693Y-96260374D02*
X126732455Y-96212755D01*
X126732455Y-96212755D02*
X126589598Y-96212755D01*
X126589598Y-96212755D02*
X126446741Y-96260374D01*
X126446741Y-96260374D02*
X126351503Y-96355612D01*
X126351503Y-96355612D02*
X126303884Y-96450850D01*
X126303884Y-96450850D02*
X126256265Y-96641326D01*
X126256265Y-96641326D02*
X126256265Y-96784183D01*
X126256265Y-96784183D02*
X126303884Y-96974659D01*
X126303884Y-96974659D02*
X126351503Y-97069897D01*
X126351503Y-97069897D02*
X126446741Y-97165136D01*
X126446741Y-97165136D02*
X126589598Y-97212755D01*
X126589598Y-97212755D02*
X126684836Y-97212755D01*
X126684836Y-97212755D02*
X126827693Y-97165136D01*
X126827693Y-97165136D02*
X126875312Y-97117516D01*
X126875312Y-97117516D02*
X126875312Y-96784183D01*
X126875312Y-96784183D02*
X126684836Y-96784183D01*
X127303884Y-97212755D02*
X127303884Y-96212755D01*
X127303884Y-96212755D02*
X127875312Y-97212755D01*
X127875312Y-97212755D02*
X127875312Y-96212755D01*
X128351503Y-97212755D02*
X128351503Y-96212755D01*
X128351503Y-96212755D02*
X128589598Y-96212755D01*
X128589598Y-96212755D02*
X128732455Y-96260374D01*
X128732455Y-96260374D02*
X128827693Y-96355612D01*
X128827693Y-96355612D02*
X128875312Y-96450850D01*
X128875312Y-96450850D02*
X128922931Y-96641326D01*
X128922931Y-96641326D02*
X128922931Y-96784183D01*
X128922931Y-96784183D02*
X128875312Y-96974659D01*
X128875312Y-96974659D02*
X128827693Y-97069897D01*
X128827693Y-97069897D02*
X128732455Y-97165136D01*
X128732455Y-97165136D02*
X128589598Y-97212755D01*
X128589598Y-97212755D02*
X128351503Y-97212755D01*
X126161027Y-97822699D02*
X126732455Y-97822699D01*
X126446741Y-98822699D02*
X126446741Y-97822699D01*
X127065789Y-98822699D02*
X127065789Y-97822699D01*
X127065789Y-97822699D02*
X127446741Y-97822699D01*
X127446741Y-97822699D02*
X127541979Y-97870318D01*
X127541979Y-97870318D02*
X127589598Y-97917937D01*
X127589598Y-97917937D02*
X127637217Y-98013175D01*
X127637217Y-98013175D02*
X127637217Y-98156032D01*
X127637217Y-98156032D02*
X127589598Y-98251270D01*
X127589598Y-98251270D02*
X127541979Y-98298889D01*
X127541979Y-98298889D02*
X127446741Y-98346508D01*
X127446741Y-98346508D02*
X127065789Y-98346508D01*
X128018170Y-98536984D02*
X128494360Y-98536984D01*
X127922932Y-98822699D02*
X128256265Y-97822699D01*
X128256265Y-97822699D02*
X128589598Y-98822699D01*
X128922932Y-98822699D02*
X128922932Y-97822699D01*
X128922932Y-97822699D02*
X129161027Y-97822699D01*
X129161027Y-97822699D02*
X129303884Y-97870318D01*
X129303884Y-97870318D02*
X129399122Y-97965556D01*
X129399122Y-97965556D02*
X129446741Y-98060794D01*
X129446741Y-98060794D02*
X129494360Y-98251270D01*
X129494360Y-98251270D02*
X129494360Y-98394127D01*
X129494360Y-98394127D02*
X129446741Y-98584603D01*
X129446741Y-98584603D02*
X129399122Y-98679841D01*
X129399122Y-98679841D02*
X129303884Y-98775080D01*
X129303884Y-98775080D02*
X129161027Y-98822699D01*
X129161027Y-98822699D02*
X128922932Y-98822699D01*
X129684837Y-98917937D02*
X130446741Y-98917937D01*
X130684837Y-98822699D02*
X130684837Y-97822699D01*
X130684837Y-97822699D02*
X130922932Y-97822699D01*
X130922932Y-97822699D02*
X131065789Y-97870318D01*
X131065789Y-97870318D02*
X131161027Y-97965556D01*
X131161027Y-97965556D02*
X131208646Y-98060794D01*
X131208646Y-98060794D02*
X131256265Y-98251270D01*
X131256265Y-98251270D02*
X131256265Y-98394127D01*
X131256265Y-98394127D02*
X131208646Y-98584603D01*
X131208646Y-98584603D02*
X131161027Y-98679841D01*
X131161027Y-98679841D02*
X131065789Y-98775080D01*
X131065789Y-98775080D02*
X130922932Y-98822699D01*
X130922932Y-98822699D02*
X130684837Y-98822699D01*
X132256265Y-98822699D02*
X131922932Y-98346508D01*
X131684837Y-98822699D02*
X131684837Y-97822699D01*
X131684837Y-97822699D02*
X132065789Y-97822699D01*
X132065789Y-97822699D02*
X132161027Y-97870318D01*
X132161027Y-97870318D02*
X132208646Y-97917937D01*
X132208646Y-97917937D02*
X132256265Y-98013175D01*
X132256265Y-98013175D02*
X132256265Y-98156032D01*
X132256265Y-98156032D02*
X132208646Y-98251270D01*
X132208646Y-98251270D02*
X132161027Y-98298889D01*
X132161027Y-98298889D02*
X132065789Y-98346508D01*
X132065789Y-98346508D02*
X131684837Y-98346508D01*
X126875312Y-100337404D02*
X126827693Y-100385024D01*
X126827693Y-100385024D02*
X126684836Y-100432643D01*
X126684836Y-100432643D02*
X126589598Y-100432643D01*
X126589598Y-100432643D02*
X126446741Y-100385024D01*
X126446741Y-100385024D02*
X126351503Y-100289785D01*
X126351503Y-100289785D02*
X126303884Y-100194547D01*
X126303884Y-100194547D02*
X126256265Y-100004071D01*
X126256265Y-100004071D02*
X126256265Y-99861214D01*
X126256265Y-99861214D02*
X126303884Y-99670738D01*
X126303884Y-99670738D02*
X126351503Y-99575500D01*
X126351503Y-99575500D02*
X126446741Y-99480262D01*
X126446741Y-99480262D02*
X126589598Y-99432643D01*
X126589598Y-99432643D02*
X126684836Y-99432643D01*
X126684836Y-99432643D02*
X126827693Y-99480262D01*
X126827693Y-99480262D02*
X126875312Y-99527881D01*
X127256265Y-100385024D02*
X127399122Y-100432643D01*
X127399122Y-100432643D02*
X127637217Y-100432643D01*
X127637217Y-100432643D02*
X127732455Y-100385024D01*
X127732455Y-100385024D02*
X127780074Y-100337404D01*
X127780074Y-100337404D02*
X127827693Y-100242166D01*
X127827693Y-100242166D02*
X127827693Y-100146928D01*
X127827693Y-100146928D02*
X127780074Y-100051690D01*
X127780074Y-100051690D02*
X127732455Y-100004071D01*
X127732455Y-100004071D02*
X127637217Y-99956452D01*
X127637217Y-99956452D02*
X127446741Y-99908833D01*
X127446741Y-99908833D02*
X127351503Y-99861214D01*
X127351503Y-99861214D02*
X127303884Y-99813595D01*
X127303884Y-99813595D02*
X127256265Y-99718357D01*
X127256265Y-99718357D02*
X127256265Y-99623119D01*
X127256265Y-99623119D02*
X127303884Y-99527881D01*
X127303884Y-99527881D02*
X127351503Y-99480262D01*
X127351503Y-99480262D02*
X127446741Y-99432643D01*
X127446741Y-99432643D02*
X127684836Y-99432643D01*
X127684836Y-99432643D02*
X127827693Y-99480262D01*
X128018170Y-100527881D02*
X128780074Y-100527881D01*
X128875313Y-99432643D02*
X129446741Y-99432643D01*
X129161027Y-100432643D02*
X129161027Y-99432643D01*
X129780075Y-100432643D02*
X129780075Y-99432643D01*
X129780075Y-99432643D02*
X130161027Y-99432643D01*
X130161027Y-99432643D02*
X130256265Y-99480262D01*
X130256265Y-99480262D02*
X130303884Y-99527881D01*
X130303884Y-99527881D02*
X130351503Y-99623119D01*
X130351503Y-99623119D02*
X130351503Y-99765976D01*
X130351503Y-99765976D02*
X130303884Y-99861214D01*
X130303884Y-99861214D02*
X130256265Y-99908833D01*
X130256265Y-99908833D02*
X130161027Y-99956452D01*
X130161027Y-99956452D02*
X129780075Y-99956452D01*
X130732456Y-100146928D02*
X131208646Y-100146928D01*
X130637218Y-100432643D02*
X130970551Y-99432643D01*
X130970551Y-99432643D02*
X131303884Y-100432643D01*
X131637218Y-100432643D02*
X131637218Y-99432643D01*
X131637218Y-99432643D02*
X131875313Y-99432643D01*
X131875313Y-99432643D02*
X132018170Y-99480262D01*
X132018170Y-99480262D02*
X132113408Y-99575500D01*
X132113408Y-99575500D02*
X132161027Y-99670738D01*
X132161027Y-99670738D02*
X132208646Y-99861214D01*
X132208646Y-99861214D02*
X132208646Y-100004071D01*
X132208646Y-100004071D02*
X132161027Y-100194547D01*
X132161027Y-100194547D02*
X132113408Y-100289785D01*
X132113408Y-100289785D02*
X132018170Y-100385024D01*
X132018170Y-100385024D02*
X131875313Y-100432643D01*
X131875313Y-100432643D02*
X131637218Y-100432643D01*
X126875312Y-101947348D02*
X126827693Y-101994968D01*
X126827693Y-101994968D02*
X126684836Y-102042587D01*
X126684836Y-102042587D02*
X126589598Y-102042587D01*
X126589598Y-102042587D02*
X126446741Y-101994968D01*
X126446741Y-101994968D02*
X126351503Y-101899729D01*
X126351503Y-101899729D02*
X126303884Y-101804491D01*
X126303884Y-101804491D02*
X126256265Y-101614015D01*
X126256265Y-101614015D02*
X126256265Y-101471158D01*
X126256265Y-101471158D02*
X126303884Y-101280682D01*
X126303884Y-101280682D02*
X126351503Y-101185444D01*
X126351503Y-101185444D02*
X126446741Y-101090206D01*
X126446741Y-101090206D02*
X126589598Y-101042587D01*
X126589598Y-101042587D02*
X126684836Y-101042587D01*
X126684836Y-101042587D02*
X126827693Y-101090206D01*
X126827693Y-101090206D02*
X126875312Y-101137825D01*
X127256265Y-101994968D02*
X127399122Y-102042587D01*
X127399122Y-102042587D02*
X127637217Y-102042587D01*
X127637217Y-102042587D02*
X127732455Y-101994968D01*
X127732455Y-101994968D02*
X127780074Y-101947348D01*
X127780074Y-101947348D02*
X127827693Y-101852110D01*
X127827693Y-101852110D02*
X127827693Y-101756872D01*
X127827693Y-101756872D02*
X127780074Y-101661634D01*
X127780074Y-101661634D02*
X127732455Y-101614015D01*
X127732455Y-101614015D02*
X127637217Y-101566396D01*
X127637217Y-101566396D02*
X127446741Y-101518777D01*
X127446741Y-101518777D02*
X127351503Y-101471158D01*
X127351503Y-101471158D02*
X127303884Y-101423539D01*
X127303884Y-101423539D02*
X127256265Y-101328301D01*
X127256265Y-101328301D02*
X127256265Y-101233063D01*
X127256265Y-101233063D02*
X127303884Y-101137825D01*
X127303884Y-101137825D02*
X127351503Y-101090206D01*
X127351503Y-101090206D02*
X127446741Y-101042587D01*
X127446741Y-101042587D02*
X127684836Y-101042587D01*
X127684836Y-101042587D02*
X127827693Y-101090206D01*
X128018170Y-102137825D02*
X128780074Y-102137825D01*
X129494360Y-102042587D02*
X129018170Y-102042587D01*
X129018170Y-102042587D02*
X129018170Y-101042587D01*
X130399122Y-101947348D02*
X130351503Y-101994968D01*
X130351503Y-101994968D02*
X130208646Y-102042587D01*
X130208646Y-102042587D02*
X130113408Y-102042587D01*
X130113408Y-102042587D02*
X129970551Y-101994968D01*
X129970551Y-101994968D02*
X129875313Y-101899729D01*
X129875313Y-101899729D02*
X129827694Y-101804491D01*
X129827694Y-101804491D02*
X129780075Y-101614015D01*
X129780075Y-101614015D02*
X129780075Y-101471158D01*
X129780075Y-101471158D02*
X129827694Y-101280682D01*
X129827694Y-101280682D02*
X129875313Y-101185444D01*
X129875313Y-101185444D02*
X129970551Y-101090206D01*
X129970551Y-101090206D02*
X130113408Y-101042587D01*
X130113408Y-101042587D02*
X130208646Y-101042587D01*
X130208646Y-101042587D02*
X130351503Y-101090206D01*
X130351503Y-101090206D02*
X130399122Y-101137825D01*
X130827694Y-102042587D02*
X130827694Y-101042587D01*
X130827694Y-101042587D02*
X131065789Y-101042587D01*
X131065789Y-101042587D02*
X131208646Y-101090206D01*
X131208646Y-101090206D02*
X131303884Y-101185444D01*
X131303884Y-101185444D02*
X131351503Y-101280682D01*
X131351503Y-101280682D02*
X131399122Y-101471158D01*
X131399122Y-101471158D02*
X131399122Y-101614015D01*
X131399122Y-101614015D02*
X131351503Y-101804491D01*
X131351503Y-101804491D02*
X131303884Y-101899729D01*
X131303884Y-101899729D02*
X131208646Y-101994968D01*
X131208646Y-101994968D02*
X131065789Y-102042587D01*
X131065789Y-102042587D02*
X130827694Y-102042587D01*
X126256265Y-103604912D02*
X126399122Y-103652531D01*
X126399122Y-103652531D02*
X126637217Y-103652531D01*
X126637217Y-103652531D02*
X126732455Y-103604912D01*
X126732455Y-103604912D02*
X126780074Y-103557292D01*
X126780074Y-103557292D02*
X126827693Y-103462054D01*
X126827693Y-103462054D02*
X126827693Y-103366816D01*
X126827693Y-103366816D02*
X126780074Y-103271578D01*
X126780074Y-103271578D02*
X126732455Y-103223959D01*
X126732455Y-103223959D02*
X126637217Y-103176340D01*
X126637217Y-103176340D02*
X126446741Y-103128721D01*
X126446741Y-103128721D02*
X126351503Y-103081102D01*
X126351503Y-103081102D02*
X126303884Y-103033483D01*
X126303884Y-103033483D02*
X126256265Y-102938245D01*
X126256265Y-102938245D02*
X126256265Y-102843007D01*
X126256265Y-102843007D02*
X126303884Y-102747769D01*
X126303884Y-102747769D02*
X126351503Y-102700150D01*
X126351503Y-102700150D02*
X126446741Y-102652531D01*
X126446741Y-102652531D02*
X126684836Y-102652531D01*
X126684836Y-102652531D02*
X126827693Y-102700150D01*
X127256265Y-103652531D02*
X127256265Y-102652531D01*
X127256265Y-102652531D02*
X127494360Y-102652531D01*
X127494360Y-102652531D02*
X127637217Y-102700150D01*
X127637217Y-102700150D02*
X127732455Y-102795388D01*
X127732455Y-102795388D02*
X127780074Y-102890626D01*
X127780074Y-102890626D02*
X127827693Y-103081102D01*
X127827693Y-103081102D02*
X127827693Y-103223959D01*
X127827693Y-103223959D02*
X127780074Y-103414435D01*
X127780074Y-103414435D02*
X127732455Y-103509673D01*
X127732455Y-103509673D02*
X127637217Y-103604912D01*
X127637217Y-103604912D02*
X127494360Y-103652531D01*
X127494360Y-103652531D02*
X127256265Y-103652531D01*
X128256265Y-103652531D02*
X128256265Y-102652531D01*
X126256265Y-105214856D02*
X126399122Y-105262475D01*
X126399122Y-105262475D02*
X126637217Y-105262475D01*
X126637217Y-105262475D02*
X126732455Y-105214856D01*
X126732455Y-105214856D02*
X126780074Y-105167236D01*
X126780074Y-105167236D02*
X126827693Y-105071998D01*
X126827693Y-105071998D02*
X126827693Y-104976760D01*
X126827693Y-104976760D02*
X126780074Y-104881522D01*
X126780074Y-104881522D02*
X126732455Y-104833903D01*
X126732455Y-104833903D02*
X126637217Y-104786284D01*
X126637217Y-104786284D02*
X126446741Y-104738665D01*
X126446741Y-104738665D02*
X126351503Y-104691046D01*
X126351503Y-104691046D02*
X126303884Y-104643427D01*
X126303884Y-104643427D02*
X126256265Y-104548189D01*
X126256265Y-104548189D02*
X126256265Y-104452951D01*
X126256265Y-104452951D02*
X126303884Y-104357713D01*
X126303884Y-104357713D02*
X126351503Y-104310094D01*
X126351503Y-104310094D02*
X126446741Y-104262475D01*
X126446741Y-104262475D02*
X126684836Y-104262475D01*
X126684836Y-104262475D02*
X126827693Y-104310094D01*
X127256265Y-105262475D02*
X127256265Y-104262475D01*
X127256265Y-104262475D02*
X127494360Y-104262475D01*
X127494360Y-104262475D02*
X127637217Y-104310094D01*
X127637217Y-104310094D02*
X127732455Y-104405332D01*
X127732455Y-104405332D02*
X127780074Y-104500570D01*
X127780074Y-104500570D02*
X127827693Y-104691046D01*
X127827693Y-104691046D02*
X127827693Y-104833903D01*
X127827693Y-104833903D02*
X127780074Y-105024379D01*
X127780074Y-105024379D02*
X127732455Y-105119617D01*
X127732455Y-105119617D02*
X127637217Y-105214856D01*
X127637217Y-105214856D02*
X127494360Y-105262475D01*
X127494360Y-105262475D02*
X127256265Y-105262475D01*
X128446741Y-104262475D02*
X128637217Y-104262475D01*
X128637217Y-104262475D02*
X128732455Y-104310094D01*
X128732455Y-104310094D02*
X128827693Y-104405332D01*
X128827693Y-104405332D02*
X128875312Y-104595808D01*
X128875312Y-104595808D02*
X128875312Y-104929141D01*
X128875312Y-104929141D02*
X128827693Y-105119617D01*
X128827693Y-105119617D02*
X128732455Y-105214856D01*
X128732455Y-105214856D02*
X128637217Y-105262475D01*
X128637217Y-105262475D02*
X128446741Y-105262475D01*
X128446741Y-105262475D02*
X128351503Y-105214856D01*
X128351503Y-105214856D02*
X128256265Y-105119617D01*
X128256265Y-105119617D02*
X128208646Y-104929141D01*
X128208646Y-104929141D02*
X128208646Y-104595808D01*
X128208646Y-104595808D02*
X128256265Y-104405332D01*
X128256265Y-104405332D02*
X128351503Y-104310094D01*
X128351503Y-104310094D02*
X128446741Y-104262475D01*
X126256265Y-106824800D02*
X126399122Y-106872419D01*
X126399122Y-106872419D02*
X126637217Y-106872419D01*
X126637217Y-106872419D02*
X126732455Y-106824800D01*
X126732455Y-106824800D02*
X126780074Y-106777180D01*
X126780074Y-106777180D02*
X126827693Y-106681942D01*
X126827693Y-106681942D02*
X126827693Y-106586704D01*
X126827693Y-106586704D02*
X126780074Y-106491466D01*
X126780074Y-106491466D02*
X126732455Y-106443847D01*
X126732455Y-106443847D02*
X126637217Y-106396228D01*
X126637217Y-106396228D02*
X126446741Y-106348609D01*
X126446741Y-106348609D02*
X126351503Y-106300990D01*
X126351503Y-106300990D02*
X126303884Y-106253371D01*
X126303884Y-106253371D02*
X126256265Y-106158133D01*
X126256265Y-106158133D02*
X126256265Y-106062895D01*
X126256265Y-106062895D02*
X126303884Y-105967657D01*
X126303884Y-105967657D02*
X126351503Y-105920038D01*
X126351503Y-105920038D02*
X126446741Y-105872419D01*
X126446741Y-105872419D02*
X126684836Y-105872419D01*
X126684836Y-105872419D02*
X126827693Y-105920038D01*
X127827693Y-106777180D02*
X127780074Y-106824800D01*
X127780074Y-106824800D02*
X127637217Y-106872419D01*
X127637217Y-106872419D02*
X127541979Y-106872419D01*
X127541979Y-106872419D02*
X127399122Y-106824800D01*
X127399122Y-106824800D02*
X127303884Y-106729561D01*
X127303884Y-106729561D02*
X127256265Y-106634323D01*
X127256265Y-106634323D02*
X127208646Y-106443847D01*
X127208646Y-106443847D02*
X127208646Y-106300990D01*
X127208646Y-106300990D02*
X127256265Y-106110514D01*
X127256265Y-106110514D02*
X127303884Y-106015276D01*
X127303884Y-106015276D02*
X127399122Y-105920038D01*
X127399122Y-105920038D02*
X127541979Y-105872419D01*
X127541979Y-105872419D02*
X127637217Y-105872419D01*
X127637217Y-105872419D02*
X127780074Y-105920038D01*
X127780074Y-105920038D02*
X127827693Y-105967657D01*
X128256265Y-106872419D02*
X128256265Y-105872419D01*
X128827693Y-106872419D02*
X128399122Y-106300990D01*
X128827693Y-105872419D02*
X128256265Y-106443847D01*
X115427884Y-109134031D02*
X115427884Y-108134031D01*
X115427884Y-108134031D02*
X115808836Y-108134031D01*
X115808836Y-108134031D02*
X115904074Y-108181650D01*
X115904074Y-108181650D02*
X115951693Y-108229269D01*
X115951693Y-108229269D02*
X115999312Y-108324507D01*
X115999312Y-108324507D02*
X115999312Y-108467364D01*
X115999312Y-108467364D02*
X115951693Y-108562602D01*
X115951693Y-108562602D02*
X115904074Y-108610221D01*
X115904074Y-108610221D02*
X115808836Y-108657840D01*
X115808836Y-108657840D02*
X115427884Y-108657840D01*
X116380265Y-108848316D02*
X116856455Y-108848316D01*
X116285027Y-109134031D02*
X116618360Y-108134031D01*
X116618360Y-108134031D02*
X116951693Y-109134031D01*
X117189789Y-108134031D02*
X117808836Y-108134031D01*
X117808836Y-108134031D02*
X117475503Y-108514983D01*
X117475503Y-108514983D02*
X117618360Y-108514983D01*
X117618360Y-108514983D02*
X117713598Y-108562602D01*
X117713598Y-108562602D02*
X117761217Y-108610221D01*
X117761217Y-108610221D02*
X117808836Y-108705459D01*
X117808836Y-108705459D02*
X117808836Y-108943554D01*
X117808836Y-108943554D02*
X117761217Y-109038792D01*
X117761217Y-109038792D02*
X117713598Y-109086412D01*
X117713598Y-109086412D02*
X117618360Y-109134031D01*
X117618360Y-109134031D02*
X117332646Y-109134031D01*
X117332646Y-109134031D02*
X117237408Y-109086412D01*
X117237408Y-109086412D02*
X117189789Y-109038792D01*
X118761217Y-109134031D02*
X118189789Y-109134031D01*
X118475503Y-109134031D02*
X118475503Y-108134031D01*
X118475503Y-108134031D02*
X118380265Y-108276888D01*
X118380265Y-108276888D02*
X118285027Y-108372126D01*
X118285027Y-108372126D02*
X118189789Y-108419745D01*
X119237408Y-109134031D02*
X119427884Y-109134031D01*
X119427884Y-109134031D02*
X119523122Y-109086412D01*
X119523122Y-109086412D02*
X119570741Y-109038792D01*
X119570741Y-109038792D02*
X119665979Y-108895935D01*
X119665979Y-108895935D02*
X119713598Y-108705459D01*
X119713598Y-108705459D02*
X119713598Y-108324507D01*
X119713598Y-108324507D02*
X119665979Y-108229269D01*
X119665979Y-108229269D02*
X119618360Y-108181650D01*
X119618360Y-108181650D02*
X119523122Y-108134031D01*
X119523122Y-108134031D02*
X119332646Y-108134031D01*
X119332646Y-108134031D02*
X119237408Y-108181650D01*
X119237408Y-108181650D02*
X119189789Y-108229269D01*
X119189789Y-108229269D02*
X119142170Y-108324507D01*
X119142170Y-108324507D02*
X119142170Y-108562602D01*
X119142170Y-108562602D02*
X119189789Y-108657840D01*
X119189789Y-108657840D02*
X119237408Y-108705459D01*
X119237408Y-108705459D02*
X119332646Y-108753078D01*
X119332646Y-108753078D02*
X119523122Y-108753078D01*
X119523122Y-108753078D02*
X119618360Y-108705459D01*
X119618360Y-108705459D02*
X119665979Y-108657840D01*
X119665979Y-108657840D02*
X119713598Y-108562602D01*
X120570741Y-108467364D02*
X120570741Y-109134031D01*
X120332646Y-108086412D02*
X120094551Y-108800697D01*
X120094551Y-108800697D02*
X120713598Y-108800697D01*
X121618360Y-108181650D02*
X121523122Y-108134031D01*
X121523122Y-108134031D02*
X121380265Y-108134031D01*
X121380265Y-108134031D02*
X121237408Y-108181650D01*
X121237408Y-108181650D02*
X121142170Y-108276888D01*
X121142170Y-108276888D02*
X121094551Y-108372126D01*
X121094551Y-108372126D02*
X121046932Y-108562602D01*
X121046932Y-108562602D02*
X121046932Y-108705459D01*
X121046932Y-108705459D02*
X121094551Y-108895935D01*
X121094551Y-108895935D02*
X121142170Y-108991173D01*
X121142170Y-108991173D02*
X121237408Y-109086412D01*
X121237408Y-109086412D02*
X121380265Y-109134031D01*
X121380265Y-109134031D02*
X121475503Y-109134031D01*
X121475503Y-109134031D02*
X121618360Y-109086412D01*
X121618360Y-109086412D02*
X121665979Y-109038792D01*
X121665979Y-109038792D02*
X121665979Y-108705459D01*
X121665979Y-108705459D02*
X121475503Y-108705459D01*
X122237408Y-108562602D02*
X122142170Y-108514983D01*
X122142170Y-108514983D02*
X122094551Y-108467364D01*
X122094551Y-108467364D02*
X122046932Y-108372126D01*
X122046932Y-108372126D02*
X122046932Y-108324507D01*
X122046932Y-108324507D02*
X122094551Y-108229269D01*
X122094551Y-108229269D02*
X122142170Y-108181650D01*
X122142170Y-108181650D02*
X122237408Y-108134031D01*
X122237408Y-108134031D02*
X122427884Y-108134031D01*
X122427884Y-108134031D02*
X122523122Y-108181650D01*
X122523122Y-108181650D02*
X122570741Y-108229269D01*
X122570741Y-108229269D02*
X122618360Y-108324507D01*
X122618360Y-108324507D02*
X122618360Y-108372126D01*
X122618360Y-108372126D02*
X122570741Y-108467364D01*
X122570741Y-108467364D02*
X122523122Y-108514983D01*
X122523122Y-108514983D02*
X122427884Y-108562602D01*
X122427884Y-108562602D02*
X122237408Y-108562602D01*
X122237408Y-108562602D02*
X122142170Y-108610221D01*
X122142170Y-108610221D02*
X122094551Y-108657840D01*
X122094551Y-108657840D02*
X122046932Y-108753078D01*
X122046932Y-108753078D02*
X122046932Y-108943554D01*
X122046932Y-108943554D02*
X122094551Y-109038792D01*
X122094551Y-109038792D02*
X122142170Y-109086412D01*
X122142170Y-109086412D02*
X122237408Y-109134031D01*
X122237408Y-109134031D02*
X122427884Y-109134031D01*
X122427884Y-109134031D02*
X122523122Y-109086412D01*
X122523122Y-109086412D02*
X122570741Y-109038792D01*
X122570741Y-109038792D02*
X122618360Y-108943554D01*
X122618360Y-108943554D02*
X122618360Y-108753078D01*
X122618360Y-108753078D02*
X122570741Y-108657840D01*
X122570741Y-108657840D02*
X122523122Y-108610221D01*
X122523122Y-108610221D02*
X122427884Y-108562602D01*
X122999313Y-108229269D02*
X123046932Y-108181650D01*
X123046932Y-108181650D02*
X123142170Y-108134031D01*
X123142170Y-108134031D02*
X123380265Y-108134031D01*
X123380265Y-108134031D02*
X123475503Y-108181650D01*
X123475503Y-108181650D02*
X123523122Y-108229269D01*
X123523122Y-108229269D02*
X123570741Y-108324507D01*
X123570741Y-108324507D02*
X123570741Y-108419745D01*
X123570741Y-108419745D02*
X123523122Y-108562602D01*
X123523122Y-108562602D02*
X122951694Y-109134031D01*
X122951694Y-109134031D02*
X123570741Y-109134031D01*
X123951694Y-108229269D02*
X123999313Y-108181650D01*
X123999313Y-108181650D02*
X124094551Y-108134031D01*
X124094551Y-108134031D02*
X124332646Y-108134031D01*
X124332646Y-108134031D02*
X124427884Y-108181650D01*
X124427884Y-108181650D02*
X124475503Y-108229269D01*
X124475503Y-108229269D02*
X124523122Y-108324507D01*
X124523122Y-108324507D02*
X124523122Y-108419745D01*
X124523122Y-108419745D02*
X124475503Y-108562602D01*
X124475503Y-108562602D02*
X123904075Y-109134031D01*
X123904075Y-109134031D02*
X124523122Y-109134031D01*
X115999312Y-110743975D02*
X115665979Y-110267784D01*
X115427884Y-110743975D02*
X115427884Y-109743975D01*
X115427884Y-109743975D02*
X115808836Y-109743975D01*
X115808836Y-109743975D02*
X115904074Y-109791594D01*
X115904074Y-109791594D02*
X115951693Y-109839213D01*
X115951693Y-109839213D02*
X115999312Y-109934451D01*
X115999312Y-109934451D02*
X115999312Y-110077308D01*
X115999312Y-110077308D02*
X115951693Y-110172546D01*
X115951693Y-110172546D02*
X115904074Y-110220165D01*
X115904074Y-110220165D02*
X115808836Y-110267784D01*
X115808836Y-110267784D02*
X115427884Y-110267784D01*
X116808836Y-110696356D02*
X116713598Y-110743975D01*
X116713598Y-110743975D02*
X116523122Y-110743975D01*
X116523122Y-110743975D02*
X116427884Y-110696356D01*
X116427884Y-110696356D02*
X116380265Y-110601117D01*
X116380265Y-110601117D02*
X116380265Y-110220165D01*
X116380265Y-110220165D02*
X116427884Y-110124927D01*
X116427884Y-110124927D02*
X116523122Y-110077308D01*
X116523122Y-110077308D02*
X116713598Y-110077308D01*
X116713598Y-110077308D02*
X116808836Y-110124927D01*
X116808836Y-110124927D02*
X116856455Y-110220165D01*
X116856455Y-110220165D02*
X116856455Y-110315403D01*
X116856455Y-110315403D02*
X116380265Y-110410641D01*
X117189789Y-110077308D02*
X117427884Y-110743975D01*
X117427884Y-110743975D02*
X117665979Y-110077308D01*
X118999313Y-109743975D02*
X119094551Y-109743975D01*
X119094551Y-109743975D02*
X119189789Y-109791594D01*
X119189789Y-109791594D02*
X119237408Y-109839213D01*
X119237408Y-109839213D02*
X119285027Y-109934451D01*
X119285027Y-109934451D02*
X119332646Y-110124927D01*
X119332646Y-110124927D02*
X119332646Y-110363022D01*
X119332646Y-110363022D02*
X119285027Y-110553498D01*
X119285027Y-110553498D02*
X119237408Y-110648736D01*
X119237408Y-110648736D02*
X119189789Y-110696356D01*
X119189789Y-110696356D02*
X119094551Y-110743975D01*
X119094551Y-110743975D02*
X118999313Y-110743975D01*
X118999313Y-110743975D02*
X118904075Y-110696356D01*
X118904075Y-110696356D02*
X118856456Y-110648736D01*
X118856456Y-110648736D02*
X118808837Y-110553498D01*
X118808837Y-110553498D02*
X118761218Y-110363022D01*
X118761218Y-110363022D02*
X118761218Y-110124927D01*
X118761218Y-110124927D02*
X118808837Y-109934451D01*
X118808837Y-109934451D02*
X118856456Y-109839213D01*
X118856456Y-109839213D02*
X118904075Y-109791594D01*
X118904075Y-109791594D02*
X118999313Y-109743975D01*
X120237408Y-109743975D02*
X119761218Y-109743975D01*
X119761218Y-109743975D02*
X119713599Y-110220165D01*
X119713599Y-110220165D02*
X119761218Y-110172546D01*
X119761218Y-110172546D02*
X119856456Y-110124927D01*
X119856456Y-110124927D02*
X120094551Y-110124927D01*
X120094551Y-110124927D02*
X120189789Y-110172546D01*
X120189789Y-110172546D02*
X120237408Y-110220165D01*
X120237408Y-110220165D02*
X120285027Y-110315403D01*
X120285027Y-110315403D02*
X120285027Y-110553498D01*
X120285027Y-110553498D02*
X120237408Y-110648736D01*
X120237408Y-110648736D02*
X120189789Y-110696356D01*
X120189789Y-110696356D02*
X120094551Y-110743975D01*
X120094551Y-110743975D02*
X119856456Y-110743975D01*
X119856456Y-110743975D02*
X119761218Y-110696356D01*
X119761218Y-110696356D02*
X119713599Y-110648736D01*
X115427884Y-112353919D02*
X115427884Y-111353919D01*
X115427884Y-111353919D02*
X115999312Y-112353919D01*
X115999312Y-112353919D02*
X115999312Y-111353919D01*
X116618360Y-112353919D02*
X116523122Y-112306300D01*
X116523122Y-112306300D02*
X116475503Y-112258680D01*
X116475503Y-112258680D02*
X116427884Y-112163442D01*
X116427884Y-112163442D02*
X116427884Y-111877728D01*
X116427884Y-111877728D02*
X116475503Y-111782490D01*
X116475503Y-111782490D02*
X116523122Y-111734871D01*
X116523122Y-111734871D02*
X116618360Y-111687252D01*
X116618360Y-111687252D02*
X116761217Y-111687252D01*
X116761217Y-111687252D02*
X116856455Y-111734871D01*
X116856455Y-111734871D02*
X116904074Y-111782490D01*
X116904074Y-111782490D02*
X116951693Y-111877728D01*
X116951693Y-111877728D02*
X116951693Y-112163442D01*
X116951693Y-112163442D02*
X116904074Y-112258680D01*
X116904074Y-112258680D02*
X116856455Y-112306300D01*
X116856455Y-112306300D02*
X116761217Y-112353919D01*
X116761217Y-112353919D02*
X116618360Y-112353919D01*
X117285027Y-111687252D02*
X117523122Y-112353919D01*
X117523122Y-112353919D02*
X117761217Y-111687252D01*
X118856456Y-111449157D02*
X118904075Y-111401538D01*
X118904075Y-111401538D02*
X118999313Y-111353919D01*
X118999313Y-111353919D02*
X119237408Y-111353919D01*
X119237408Y-111353919D02*
X119332646Y-111401538D01*
X119332646Y-111401538D02*
X119380265Y-111449157D01*
X119380265Y-111449157D02*
X119427884Y-111544395D01*
X119427884Y-111544395D02*
X119427884Y-111639633D01*
X119427884Y-111639633D02*
X119380265Y-111782490D01*
X119380265Y-111782490D02*
X118808837Y-112353919D01*
X118808837Y-112353919D02*
X119427884Y-112353919D01*
X120046932Y-111353919D02*
X120142170Y-111353919D01*
X120142170Y-111353919D02*
X120237408Y-111401538D01*
X120237408Y-111401538D02*
X120285027Y-111449157D01*
X120285027Y-111449157D02*
X120332646Y-111544395D01*
X120332646Y-111544395D02*
X120380265Y-111734871D01*
X120380265Y-111734871D02*
X120380265Y-111972966D01*
X120380265Y-111972966D02*
X120332646Y-112163442D01*
X120332646Y-112163442D02*
X120285027Y-112258680D01*
X120285027Y-112258680D02*
X120237408Y-112306300D01*
X120237408Y-112306300D02*
X120142170Y-112353919D01*
X120142170Y-112353919D02*
X120046932Y-112353919D01*
X120046932Y-112353919D02*
X119951694Y-112306300D01*
X119951694Y-112306300D02*
X119904075Y-112258680D01*
X119904075Y-112258680D02*
X119856456Y-112163442D01*
X119856456Y-112163442D02*
X119808837Y-111972966D01*
X119808837Y-111972966D02*
X119808837Y-111734871D01*
X119808837Y-111734871D02*
X119856456Y-111544395D01*
X119856456Y-111544395D02*
X119904075Y-111449157D01*
X119904075Y-111449157D02*
X119951694Y-111401538D01*
X119951694Y-111401538D02*
X120046932Y-111353919D01*
X120761218Y-111449157D02*
X120808837Y-111401538D01*
X120808837Y-111401538D02*
X120904075Y-111353919D01*
X120904075Y-111353919D02*
X121142170Y-111353919D01*
X121142170Y-111353919D02*
X121237408Y-111401538D01*
X121237408Y-111401538D02*
X121285027Y-111449157D01*
X121285027Y-111449157D02*
X121332646Y-111544395D01*
X121332646Y-111544395D02*
X121332646Y-111639633D01*
X121332646Y-111639633D02*
X121285027Y-111782490D01*
X121285027Y-111782490D02*
X120713599Y-112353919D01*
X120713599Y-112353919D02*
X121332646Y-112353919D01*
X122189789Y-111687252D02*
X122189789Y-112353919D01*
X121951694Y-111306300D02*
X121713599Y-112020585D01*
X121713599Y-112020585D02*
X122332646Y-112020585D01*
X133765027Y-94447035D02*
X134098360Y-95447035D01*
X134098360Y-95447035D02*
X134431693Y-94447035D01*
X134765027Y-95447035D02*
X134765027Y-94447035D01*
X134765027Y-94447035D02*
X135003122Y-94447035D01*
X135003122Y-94447035D02*
X135145979Y-94494654D01*
X135145979Y-94494654D02*
X135241217Y-94589892D01*
X135241217Y-94589892D02*
X135288836Y-94685130D01*
X135288836Y-94685130D02*
X135336455Y-94875606D01*
X135336455Y-94875606D02*
X135336455Y-95018463D01*
X135336455Y-95018463D02*
X135288836Y-95208939D01*
X135288836Y-95208939D02*
X135241217Y-95304177D01*
X135241217Y-95304177D02*
X135145979Y-95399416D01*
X135145979Y-95399416D02*
X135003122Y-95447035D01*
X135003122Y-95447035D02*
X134765027Y-95447035D01*
X135765027Y-95447035D02*
X135765027Y-94447035D01*
X135765027Y-94447035D02*
X136003122Y-94447035D01*
X136003122Y-94447035D02*
X136145979Y-94494654D01*
X136145979Y-94494654D02*
X136241217Y-94589892D01*
X136241217Y-94589892D02*
X136288836Y-94685130D01*
X136288836Y-94685130D02*
X136336455Y-94875606D01*
X136336455Y-94875606D02*
X136336455Y-95018463D01*
X136336455Y-95018463D02*
X136288836Y-95208939D01*
X136288836Y-95208939D02*
X136241217Y-95304177D01*
X136241217Y-95304177D02*
X136145979Y-95399416D01*
X136145979Y-95399416D02*
X136003122Y-95447035D01*
X136003122Y-95447035D02*
X135765027Y-95447035D01*
X134431693Y-96104598D02*
X134336455Y-96056979D01*
X134336455Y-96056979D02*
X134193598Y-96056979D01*
X134193598Y-96056979D02*
X134050741Y-96104598D01*
X134050741Y-96104598D02*
X133955503Y-96199836D01*
X133955503Y-96199836D02*
X133907884Y-96295074D01*
X133907884Y-96295074D02*
X133860265Y-96485550D01*
X133860265Y-96485550D02*
X133860265Y-96628407D01*
X133860265Y-96628407D02*
X133907884Y-96818883D01*
X133907884Y-96818883D02*
X133955503Y-96914121D01*
X133955503Y-96914121D02*
X134050741Y-97009360D01*
X134050741Y-97009360D02*
X134193598Y-97056979D01*
X134193598Y-97056979D02*
X134288836Y-97056979D01*
X134288836Y-97056979D02*
X134431693Y-97009360D01*
X134431693Y-97009360D02*
X134479312Y-96961740D01*
X134479312Y-96961740D02*
X134479312Y-96628407D01*
X134479312Y-96628407D02*
X134288836Y-96628407D01*
X134907884Y-97056979D02*
X134907884Y-96056979D01*
X134907884Y-96056979D02*
X135479312Y-97056979D01*
X135479312Y-97056979D02*
X135479312Y-96056979D01*
X135955503Y-97056979D02*
X135955503Y-96056979D01*
X135955503Y-96056979D02*
X136193598Y-96056979D01*
X136193598Y-96056979D02*
X136336455Y-96104598D01*
X136336455Y-96104598D02*
X136431693Y-96199836D01*
X136431693Y-96199836D02*
X136479312Y-96295074D01*
X136479312Y-96295074D02*
X136526931Y-96485550D01*
X136526931Y-96485550D02*
X136526931Y-96628407D01*
X136526931Y-96628407D02*
X136479312Y-96818883D01*
X136479312Y-96818883D02*
X136431693Y-96914121D01*
X136431693Y-96914121D02*
X136336455Y-97009360D01*
X136336455Y-97009360D02*
X136193598Y-97056979D01*
X136193598Y-97056979D02*
X135955503Y-97056979D01*
X133812646Y-98666923D02*
X134336455Y-98000256D01*
X133812646Y-98000256D02*
X134336455Y-98666923D01*
X133812646Y-100276867D02*
X134336455Y-99610200D01*
X133812646Y-99610200D02*
X134336455Y-100276867D01*
X133812646Y-101886811D02*
X134336455Y-101220144D01*
X133812646Y-101220144D02*
X134336455Y-101886811D01*
X133812646Y-103496755D02*
X134336455Y-102830088D01*
X133812646Y-102830088D02*
X134336455Y-103496755D01*
X133812646Y-105106699D02*
X134336455Y-104440032D01*
X133812646Y-104440032D02*
X134336455Y-105106699D01*
X133860265Y-106669024D02*
X134003122Y-106716643D01*
X134003122Y-106716643D02*
X134241217Y-106716643D01*
X134241217Y-106716643D02*
X134336455Y-106669024D01*
X134336455Y-106669024D02*
X134384074Y-106621404D01*
X134384074Y-106621404D02*
X134431693Y-106526166D01*
X134431693Y-106526166D02*
X134431693Y-106430928D01*
X134431693Y-106430928D02*
X134384074Y-106335690D01*
X134384074Y-106335690D02*
X134336455Y-106288071D01*
X134336455Y-106288071D02*
X134241217Y-106240452D01*
X134241217Y-106240452D02*
X134050741Y-106192833D01*
X134050741Y-106192833D02*
X133955503Y-106145214D01*
X133955503Y-106145214D02*
X133907884Y-106097595D01*
X133907884Y-106097595D02*
X133860265Y-106002357D01*
X133860265Y-106002357D02*
X133860265Y-105907119D01*
X133860265Y-105907119D02*
X133907884Y-105811881D01*
X133907884Y-105811881D02*
X133955503Y-105764262D01*
X133955503Y-105764262D02*
X134050741Y-105716643D01*
X134050741Y-105716643D02*
X134288836Y-105716643D01*
X134288836Y-105716643D02*
X134431693Y-105764262D01*
X134860265Y-106716643D02*
X134860265Y-105716643D01*
X134860265Y-105716643D02*
X135098360Y-105716643D01*
X135098360Y-105716643D02*
X135241217Y-105764262D01*
X135241217Y-105764262D02*
X135336455Y-105859500D01*
X135336455Y-105859500D02*
X135384074Y-105954738D01*
X135384074Y-105954738D02*
X135431693Y-106145214D01*
X135431693Y-106145214D02*
X135431693Y-106288071D01*
X135431693Y-106288071D02*
X135384074Y-106478547D01*
X135384074Y-106478547D02*
X135336455Y-106573785D01*
X135336455Y-106573785D02*
X135241217Y-106669024D01*
X135241217Y-106669024D02*
X135098360Y-106716643D01*
X135098360Y-106716643D02*
X134860265Y-106716643D01*
X135860265Y-106716643D02*
X135860265Y-105716643D01*
X133907884Y-108326587D02*
X133907884Y-107326587D01*
X133907884Y-107326587D02*
X134145979Y-107326587D01*
X134145979Y-107326587D02*
X134288836Y-107374206D01*
X134288836Y-107374206D02*
X134384074Y-107469444D01*
X134384074Y-107469444D02*
X134431693Y-107564682D01*
X134431693Y-107564682D02*
X134479312Y-107755158D01*
X134479312Y-107755158D02*
X134479312Y-107898015D01*
X134479312Y-107898015D02*
X134431693Y-108088491D01*
X134431693Y-108088491D02*
X134384074Y-108183729D01*
X134384074Y-108183729D02*
X134288836Y-108278968D01*
X134288836Y-108278968D02*
X134145979Y-108326587D01*
X134145979Y-108326587D02*
X133907884Y-108326587D01*
X135479312Y-108326587D02*
X135145979Y-107850396D01*
X134907884Y-108326587D02*
X134907884Y-107326587D01*
X134907884Y-107326587D02*
X135288836Y-107326587D01*
X135288836Y-107326587D02*
X135384074Y-107374206D01*
X135384074Y-107374206D02*
X135431693Y-107421825D01*
X135431693Y-107421825D02*
X135479312Y-107517063D01*
X135479312Y-107517063D02*
X135479312Y-107659920D01*
X135479312Y-107659920D02*
X135431693Y-107755158D01*
X135431693Y-107755158D02*
X135384074Y-107802777D01*
X135384074Y-107802777D02*
X135288836Y-107850396D01*
X135288836Y-107850396D02*
X134907884Y-107850396D01*
X134479312Y-109841292D02*
X134431693Y-109888912D01*
X134431693Y-109888912D02*
X134288836Y-109936531D01*
X134288836Y-109936531D02*
X134193598Y-109936531D01*
X134193598Y-109936531D02*
X134050741Y-109888912D01*
X134050741Y-109888912D02*
X133955503Y-109793673D01*
X133955503Y-109793673D02*
X133907884Y-109698435D01*
X133907884Y-109698435D02*
X133860265Y-109507959D01*
X133860265Y-109507959D02*
X133860265Y-109365102D01*
X133860265Y-109365102D02*
X133907884Y-109174626D01*
X133907884Y-109174626D02*
X133955503Y-109079388D01*
X133955503Y-109079388D02*
X134050741Y-108984150D01*
X134050741Y-108984150D02*
X134193598Y-108936531D01*
X134193598Y-108936531D02*
X134288836Y-108936531D01*
X134288836Y-108936531D02*
X134431693Y-108984150D01*
X134431693Y-108984150D02*
X134479312Y-109031769D01*
X134860265Y-109888912D02*
X135003122Y-109936531D01*
X135003122Y-109936531D02*
X135241217Y-109936531D01*
X135241217Y-109936531D02*
X135336455Y-109888912D01*
X135336455Y-109888912D02*
X135384074Y-109841292D01*
X135384074Y-109841292D02*
X135431693Y-109746054D01*
X135431693Y-109746054D02*
X135431693Y-109650816D01*
X135431693Y-109650816D02*
X135384074Y-109555578D01*
X135384074Y-109555578D02*
X135336455Y-109507959D01*
X135336455Y-109507959D02*
X135241217Y-109460340D01*
X135241217Y-109460340D02*
X135050741Y-109412721D01*
X135050741Y-109412721D02*
X134955503Y-109365102D01*
X134955503Y-109365102D02*
X134907884Y-109317483D01*
X134907884Y-109317483D02*
X134860265Y-109222245D01*
X134860265Y-109222245D02*
X134860265Y-109127007D01*
X134860265Y-109127007D02*
X134907884Y-109031769D01*
X134907884Y-109031769D02*
X134955503Y-108984150D01*
X134955503Y-108984150D02*
X135050741Y-108936531D01*
X135050741Y-108936531D02*
X135288836Y-108936531D01*
X135288836Y-108936531D02*
X135431693Y-108984150D01*
X133860265Y-111498856D02*
X134003122Y-111546475D01*
X134003122Y-111546475D02*
X134241217Y-111546475D01*
X134241217Y-111546475D02*
X134336455Y-111498856D01*
X134336455Y-111498856D02*
X134384074Y-111451236D01*
X134384074Y-111451236D02*
X134431693Y-111355998D01*
X134431693Y-111355998D02*
X134431693Y-111260760D01*
X134431693Y-111260760D02*
X134384074Y-111165522D01*
X134384074Y-111165522D02*
X134336455Y-111117903D01*
X134336455Y-111117903D02*
X134241217Y-111070284D01*
X134241217Y-111070284D02*
X134050741Y-111022665D01*
X134050741Y-111022665D02*
X133955503Y-110975046D01*
X133955503Y-110975046D02*
X133907884Y-110927427D01*
X133907884Y-110927427D02*
X133860265Y-110832189D01*
X133860265Y-110832189D02*
X133860265Y-110736951D01*
X133860265Y-110736951D02*
X133907884Y-110641713D01*
X133907884Y-110641713D02*
X133955503Y-110594094D01*
X133955503Y-110594094D02*
X134050741Y-110546475D01*
X134050741Y-110546475D02*
X134288836Y-110546475D01*
X134288836Y-110546475D02*
X134431693Y-110594094D01*
X134860265Y-111546475D02*
X134860265Y-110546475D01*
X134860265Y-110546475D02*
X135098360Y-110546475D01*
X135098360Y-110546475D02*
X135241217Y-110594094D01*
X135241217Y-110594094D02*
X135336455Y-110689332D01*
X135336455Y-110689332D02*
X135384074Y-110784570D01*
X135384074Y-110784570D02*
X135431693Y-110975046D01*
X135431693Y-110975046D02*
X135431693Y-111117903D01*
X135431693Y-111117903D02*
X135384074Y-111308379D01*
X135384074Y-111308379D02*
X135336455Y-111403617D01*
X135336455Y-111403617D02*
X135241217Y-111498856D01*
X135241217Y-111498856D02*
X135098360Y-111546475D01*
X135098360Y-111546475D02*
X134860265Y-111546475D01*
X136050741Y-110546475D02*
X136241217Y-110546475D01*
X136241217Y-110546475D02*
X136336455Y-110594094D01*
X136336455Y-110594094D02*
X136431693Y-110689332D01*
X136431693Y-110689332D02*
X136479312Y-110879808D01*
X136479312Y-110879808D02*
X136479312Y-111213141D01*
X136479312Y-111213141D02*
X136431693Y-111403617D01*
X136431693Y-111403617D02*
X136336455Y-111498856D01*
X136336455Y-111498856D02*
X136241217Y-111546475D01*
X136241217Y-111546475D02*
X136050741Y-111546475D01*
X136050741Y-111546475D02*
X135955503Y-111498856D01*
X135955503Y-111498856D02*
X135860265Y-111403617D01*
X135860265Y-111403617D02*
X135812646Y-111213141D01*
X135812646Y-111213141D02*
X135812646Y-110879808D01*
X135812646Y-110879808D02*
X135860265Y-110689332D01*
X135860265Y-110689332D02*
X135955503Y-110594094D01*
X135955503Y-110594094D02*
X136050741Y-110546475D01*
X133860265Y-113108800D02*
X134003122Y-113156419D01*
X134003122Y-113156419D02*
X134241217Y-113156419D01*
X134241217Y-113156419D02*
X134336455Y-113108800D01*
X134336455Y-113108800D02*
X134384074Y-113061180D01*
X134384074Y-113061180D02*
X134431693Y-112965942D01*
X134431693Y-112965942D02*
X134431693Y-112870704D01*
X134431693Y-112870704D02*
X134384074Y-112775466D01*
X134384074Y-112775466D02*
X134336455Y-112727847D01*
X134336455Y-112727847D02*
X134241217Y-112680228D01*
X134241217Y-112680228D02*
X134050741Y-112632609D01*
X134050741Y-112632609D02*
X133955503Y-112584990D01*
X133955503Y-112584990D02*
X133907884Y-112537371D01*
X133907884Y-112537371D02*
X133860265Y-112442133D01*
X133860265Y-112442133D02*
X133860265Y-112346895D01*
X133860265Y-112346895D02*
X133907884Y-112251657D01*
X133907884Y-112251657D02*
X133955503Y-112204038D01*
X133955503Y-112204038D02*
X134050741Y-112156419D01*
X134050741Y-112156419D02*
X134288836Y-112156419D01*
X134288836Y-112156419D02*
X134431693Y-112204038D01*
X135431693Y-113061180D02*
X135384074Y-113108800D01*
X135384074Y-113108800D02*
X135241217Y-113156419D01*
X135241217Y-113156419D02*
X135145979Y-113156419D01*
X135145979Y-113156419D02*
X135003122Y-113108800D01*
X135003122Y-113108800D02*
X134907884Y-113013561D01*
X134907884Y-113013561D02*
X134860265Y-112918323D01*
X134860265Y-112918323D02*
X134812646Y-112727847D01*
X134812646Y-112727847D02*
X134812646Y-112584990D01*
X134812646Y-112584990D02*
X134860265Y-112394514D01*
X134860265Y-112394514D02*
X134907884Y-112299276D01*
X134907884Y-112299276D02*
X135003122Y-112204038D01*
X135003122Y-112204038D02*
X135145979Y-112156419D01*
X135145979Y-112156419D02*
X135241217Y-112156419D01*
X135241217Y-112156419D02*
X135384074Y-112204038D01*
X135384074Y-112204038D02*
X135431693Y-112251657D01*
X135860265Y-113156419D02*
X135860265Y-112156419D01*
X136431693Y-113156419D02*
X136003122Y-112584990D01*
X136431693Y-112156419D02*
X135860265Y-112727847D01*
X108630782Y-96079304D02*
X108773639Y-96126923D01*
X108773639Y-96126923D02*
X109011734Y-96126923D01*
X109011734Y-96126923D02*
X109106972Y-96079304D01*
X109106972Y-96079304D02*
X109154591Y-96031684D01*
X109154591Y-96031684D02*
X109202210Y-95936446D01*
X109202210Y-95936446D02*
X109202210Y-95841208D01*
X109202210Y-95841208D02*
X109154591Y-95745970D01*
X109154591Y-95745970D02*
X109106972Y-95698351D01*
X109106972Y-95698351D02*
X109011734Y-95650732D01*
X109011734Y-95650732D02*
X108821258Y-95603113D01*
X108821258Y-95603113D02*
X108726020Y-95555494D01*
X108726020Y-95555494D02*
X108678401Y-95507875D01*
X108678401Y-95507875D02*
X108630782Y-95412637D01*
X108630782Y-95412637D02*
X108630782Y-95317399D01*
X108630782Y-95317399D02*
X108678401Y-95222161D01*
X108678401Y-95222161D02*
X108726020Y-95174542D01*
X108726020Y-95174542D02*
X108821258Y-95126923D01*
X108821258Y-95126923D02*
X109059353Y-95126923D01*
X109059353Y-95126923D02*
X109202210Y-95174542D01*
X110202210Y-96031684D02*
X110154591Y-96079304D01*
X110154591Y-96079304D02*
X110011734Y-96126923D01*
X110011734Y-96126923D02*
X109916496Y-96126923D01*
X109916496Y-96126923D02*
X109773639Y-96079304D01*
X109773639Y-96079304D02*
X109678401Y-95984065D01*
X109678401Y-95984065D02*
X109630782Y-95888827D01*
X109630782Y-95888827D02*
X109583163Y-95698351D01*
X109583163Y-95698351D02*
X109583163Y-95555494D01*
X109583163Y-95555494D02*
X109630782Y-95365018D01*
X109630782Y-95365018D02*
X109678401Y-95269780D01*
X109678401Y-95269780D02*
X109773639Y-95174542D01*
X109773639Y-95174542D02*
X109916496Y-95126923D01*
X109916496Y-95126923D02*
X110011734Y-95126923D01*
X110011734Y-95126923D02*
X110154591Y-95174542D01*
X110154591Y-95174542D02*
X110202210Y-95222161D01*
X111106972Y-96126923D02*
X110630782Y-96126923D01*
X110630782Y-96126923D02*
X110630782Y-95126923D01*
X111440306Y-96126923D02*
X111440306Y-95126923D01*
X112011734Y-96126923D02*
X111583163Y-95555494D01*
X112011734Y-95126923D02*
X111440306Y-95698351D01*
X110964116Y-97689248D02*
X111106973Y-97736867D01*
X111106973Y-97736867D02*
X111345068Y-97736867D01*
X111345068Y-97736867D02*
X111440306Y-97689248D01*
X111440306Y-97689248D02*
X111487925Y-97641628D01*
X111487925Y-97641628D02*
X111535544Y-97546390D01*
X111535544Y-97546390D02*
X111535544Y-97451152D01*
X111535544Y-97451152D02*
X111487925Y-97355914D01*
X111487925Y-97355914D02*
X111440306Y-97308295D01*
X111440306Y-97308295D02*
X111345068Y-97260676D01*
X111345068Y-97260676D02*
X111154592Y-97213057D01*
X111154592Y-97213057D02*
X111059354Y-97165438D01*
X111059354Y-97165438D02*
X111011735Y-97117819D01*
X111011735Y-97117819D02*
X110964116Y-97022581D01*
X110964116Y-97022581D02*
X110964116Y-96927343D01*
X110964116Y-96927343D02*
X111011735Y-96832105D01*
X111011735Y-96832105D02*
X111059354Y-96784486D01*
X111059354Y-96784486D02*
X111154592Y-96736867D01*
X111154592Y-96736867D02*
X111392687Y-96736867D01*
X111392687Y-96736867D02*
X111535544Y-96784486D01*
X111964116Y-97736867D02*
X111964116Y-96736867D01*
X109487925Y-99299192D02*
X109630782Y-99346811D01*
X109630782Y-99346811D02*
X109868877Y-99346811D01*
X109868877Y-99346811D02*
X109964115Y-99299192D01*
X109964115Y-99299192D02*
X110011734Y-99251572D01*
X110011734Y-99251572D02*
X110059353Y-99156334D01*
X110059353Y-99156334D02*
X110059353Y-99061096D01*
X110059353Y-99061096D02*
X110011734Y-98965858D01*
X110011734Y-98965858D02*
X109964115Y-98918239D01*
X109964115Y-98918239D02*
X109868877Y-98870620D01*
X109868877Y-98870620D02*
X109678401Y-98823001D01*
X109678401Y-98823001D02*
X109583163Y-98775382D01*
X109583163Y-98775382D02*
X109535544Y-98727763D01*
X109535544Y-98727763D02*
X109487925Y-98632525D01*
X109487925Y-98632525D02*
X109487925Y-98537287D01*
X109487925Y-98537287D02*
X109535544Y-98442049D01*
X109535544Y-98442049D02*
X109583163Y-98394430D01*
X109583163Y-98394430D02*
X109678401Y-98346811D01*
X109678401Y-98346811D02*
X109916496Y-98346811D01*
X109916496Y-98346811D02*
X110059353Y-98394430D01*
X111059353Y-99251572D02*
X111011734Y-99299192D01*
X111011734Y-99299192D02*
X110868877Y-99346811D01*
X110868877Y-99346811D02*
X110773639Y-99346811D01*
X110773639Y-99346811D02*
X110630782Y-99299192D01*
X110630782Y-99299192D02*
X110535544Y-99203953D01*
X110535544Y-99203953D02*
X110487925Y-99108715D01*
X110487925Y-99108715D02*
X110440306Y-98918239D01*
X110440306Y-98918239D02*
X110440306Y-98775382D01*
X110440306Y-98775382D02*
X110487925Y-98584906D01*
X110487925Y-98584906D02*
X110535544Y-98489668D01*
X110535544Y-98489668D02*
X110630782Y-98394430D01*
X110630782Y-98394430D02*
X110773639Y-98346811D01*
X110773639Y-98346811D02*
X110868877Y-98346811D01*
X110868877Y-98346811D02*
X111011734Y-98394430D01*
X111011734Y-98394430D02*
X111059353Y-98442049D01*
X111440306Y-99299192D02*
X111583163Y-99346811D01*
X111583163Y-99346811D02*
X111821258Y-99346811D01*
X111821258Y-99346811D02*
X111916496Y-99299192D01*
X111916496Y-99299192D02*
X111964115Y-99251572D01*
X111964115Y-99251572D02*
X112011734Y-99156334D01*
X112011734Y-99156334D02*
X112011734Y-99061096D01*
X112011734Y-99061096D02*
X111964115Y-98965858D01*
X111964115Y-98965858D02*
X111916496Y-98918239D01*
X111916496Y-98918239D02*
X111821258Y-98870620D01*
X111821258Y-98870620D02*
X111630782Y-98823001D01*
X111630782Y-98823001D02*
X111535544Y-98775382D01*
X111535544Y-98775382D02*
X111487925Y-98727763D01*
X111487925Y-98727763D02*
X111440306Y-98632525D01*
X111440306Y-98632525D02*
X111440306Y-98537287D01*
X111440306Y-98537287D02*
X111487925Y-98442049D01*
X111487925Y-98442049D02*
X111535544Y-98394430D01*
X111535544Y-98394430D02*
X111630782Y-98346811D01*
X111630782Y-98346811D02*
X111868877Y-98346811D01*
X111868877Y-98346811D02*
X112011734Y-98394430D01*
X105106973Y-100432945D02*
X105440306Y-100432945D01*
X105583163Y-100956755D02*
X105106973Y-100956755D01*
X105106973Y-100956755D02*
X105106973Y-99956755D01*
X105106973Y-99956755D02*
X105583163Y-99956755D01*
X105916497Y-99956755D02*
X106583163Y-100956755D01*
X106583163Y-99956755D02*
X105916497Y-100956755D01*
X106821259Y-99956755D02*
X107392687Y-99956755D01*
X107106973Y-100956755D02*
X107106973Y-99956755D01*
X108297449Y-100861516D02*
X108249830Y-100909136D01*
X108249830Y-100909136D02*
X108106973Y-100956755D01*
X108106973Y-100956755D02*
X108011735Y-100956755D01*
X108011735Y-100956755D02*
X107868878Y-100909136D01*
X107868878Y-100909136D02*
X107773640Y-100813897D01*
X107773640Y-100813897D02*
X107726021Y-100718659D01*
X107726021Y-100718659D02*
X107678402Y-100528183D01*
X107678402Y-100528183D02*
X107678402Y-100385326D01*
X107678402Y-100385326D02*
X107726021Y-100194850D01*
X107726021Y-100194850D02*
X107773640Y-100099612D01*
X107773640Y-100099612D02*
X107868878Y-100004374D01*
X107868878Y-100004374D02*
X108011735Y-99956755D01*
X108011735Y-99956755D02*
X108106973Y-99956755D01*
X108106973Y-99956755D02*
X108249830Y-100004374D01*
X108249830Y-100004374D02*
X108297449Y-100051993D01*
X108916497Y-99956755D02*
X109106973Y-99956755D01*
X109106973Y-99956755D02*
X109202211Y-100004374D01*
X109202211Y-100004374D02*
X109297449Y-100099612D01*
X109297449Y-100099612D02*
X109345068Y-100290088D01*
X109345068Y-100290088D02*
X109345068Y-100623421D01*
X109345068Y-100623421D02*
X109297449Y-100813897D01*
X109297449Y-100813897D02*
X109202211Y-100909136D01*
X109202211Y-100909136D02*
X109106973Y-100956755D01*
X109106973Y-100956755D02*
X108916497Y-100956755D01*
X108916497Y-100956755D02*
X108821259Y-100909136D01*
X108821259Y-100909136D02*
X108726021Y-100813897D01*
X108726021Y-100813897D02*
X108678402Y-100623421D01*
X108678402Y-100623421D02*
X108678402Y-100290088D01*
X108678402Y-100290088D02*
X108726021Y-100099612D01*
X108726021Y-100099612D02*
X108821259Y-100004374D01*
X108821259Y-100004374D02*
X108916497Y-99956755D01*
X109773640Y-100956755D02*
X109773640Y-99956755D01*
X109773640Y-99956755D02*
X110106973Y-100671040D01*
X110106973Y-100671040D02*
X110440306Y-99956755D01*
X110440306Y-99956755D02*
X110440306Y-100956755D01*
X110916497Y-100956755D02*
X110916497Y-99956755D01*
X111392687Y-100956755D02*
X111392687Y-99956755D01*
X111392687Y-99956755D02*
X111964115Y-100956755D01*
X111964115Y-100956755D02*
X111964115Y-99956755D01*
X109011735Y-102566699D02*
X109011735Y-101566699D01*
X109011735Y-101566699D02*
X109249830Y-101566699D01*
X109249830Y-101566699D02*
X109392687Y-101614318D01*
X109392687Y-101614318D02*
X109487925Y-101709556D01*
X109487925Y-101709556D02*
X109535544Y-101804794D01*
X109535544Y-101804794D02*
X109583163Y-101995270D01*
X109583163Y-101995270D02*
X109583163Y-102138127D01*
X109583163Y-102138127D02*
X109535544Y-102328603D01*
X109535544Y-102328603D02*
X109487925Y-102423841D01*
X109487925Y-102423841D02*
X109392687Y-102519080D01*
X109392687Y-102519080D02*
X109249830Y-102566699D01*
X109249830Y-102566699D02*
X109011735Y-102566699D01*
X110011735Y-102566699D02*
X110011735Y-101566699D01*
X110440306Y-102519080D02*
X110583163Y-102566699D01*
X110583163Y-102566699D02*
X110821258Y-102566699D01*
X110821258Y-102566699D02*
X110916496Y-102519080D01*
X110916496Y-102519080D02*
X110964115Y-102471460D01*
X110964115Y-102471460D02*
X111011734Y-102376222D01*
X111011734Y-102376222D02*
X111011734Y-102280984D01*
X111011734Y-102280984D02*
X110964115Y-102185746D01*
X110964115Y-102185746D02*
X110916496Y-102138127D01*
X110916496Y-102138127D02*
X110821258Y-102090508D01*
X110821258Y-102090508D02*
X110630782Y-102042889D01*
X110630782Y-102042889D02*
X110535544Y-101995270D01*
X110535544Y-101995270D02*
X110487925Y-101947651D01*
X110487925Y-101947651D02*
X110440306Y-101852413D01*
X110440306Y-101852413D02*
X110440306Y-101757175D01*
X110440306Y-101757175D02*
X110487925Y-101661937D01*
X110487925Y-101661937D02*
X110535544Y-101614318D01*
X110535544Y-101614318D02*
X110630782Y-101566699D01*
X110630782Y-101566699D02*
X110868877Y-101566699D01*
X110868877Y-101566699D02*
X111011734Y-101614318D01*
X111440306Y-102566699D02*
X111440306Y-101566699D01*
X111440306Y-101566699D02*
X111821258Y-101566699D01*
X111821258Y-101566699D02*
X111916496Y-101614318D01*
X111916496Y-101614318D02*
X111964115Y-101661937D01*
X111964115Y-101661937D02*
X112011734Y-101757175D01*
X112011734Y-101757175D02*
X112011734Y-101900032D01*
X112011734Y-101900032D02*
X111964115Y-101995270D01*
X111964115Y-101995270D02*
X111916496Y-102042889D01*
X111916496Y-102042889D02*
X111821258Y-102090508D01*
X111821258Y-102090508D02*
X111440306Y-102090508D01*
X108583163Y-103176643D02*
X108916496Y-104176643D01*
X108916496Y-104176643D02*
X109249829Y-103176643D01*
X109583163Y-104176643D02*
X109583163Y-103176643D01*
X109583163Y-103176643D02*
X109821258Y-103176643D01*
X109821258Y-103176643D02*
X109964115Y-103224262D01*
X109964115Y-103224262D02*
X110059353Y-103319500D01*
X110059353Y-103319500D02*
X110106972Y-103414738D01*
X110106972Y-103414738D02*
X110154591Y-103605214D01*
X110154591Y-103605214D02*
X110154591Y-103748071D01*
X110154591Y-103748071D02*
X110106972Y-103938547D01*
X110106972Y-103938547D02*
X110059353Y-104033785D01*
X110059353Y-104033785D02*
X109964115Y-104129024D01*
X109964115Y-104129024D02*
X109821258Y-104176643D01*
X109821258Y-104176643D02*
X109583163Y-104176643D01*
X110583163Y-104176643D02*
X110583163Y-103176643D01*
X110583163Y-103176643D02*
X110821258Y-103176643D01*
X110821258Y-103176643D02*
X110964115Y-103224262D01*
X110964115Y-103224262D02*
X111059353Y-103319500D01*
X111059353Y-103319500D02*
X111106972Y-103414738D01*
X111106972Y-103414738D02*
X111154591Y-103605214D01*
X111154591Y-103605214D02*
X111154591Y-103748071D01*
X111154591Y-103748071D02*
X111106972Y-103938547D01*
X111106972Y-103938547D02*
X111059353Y-104033785D01*
X111059353Y-104033785D02*
X110964115Y-104129024D01*
X110964115Y-104129024D02*
X110821258Y-104176643D01*
X110821258Y-104176643D02*
X110583163Y-104176643D01*
X111535544Y-103890928D02*
X112011734Y-103890928D01*
X111440306Y-104176643D02*
X111773639Y-103176643D01*
X111773639Y-103176643D02*
X112106972Y-104176643D01*
X109440306Y-104786587D02*
X109773639Y-105786587D01*
X109773639Y-105786587D02*
X110106972Y-104786587D01*
X110440306Y-105786587D02*
X110440306Y-104786587D01*
X110440306Y-104786587D02*
X110678401Y-104786587D01*
X110678401Y-104786587D02*
X110821258Y-104834206D01*
X110821258Y-104834206D02*
X110916496Y-104929444D01*
X110916496Y-104929444D02*
X110964115Y-105024682D01*
X110964115Y-105024682D02*
X111011734Y-105215158D01*
X111011734Y-105215158D02*
X111011734Y-105358015D01*
X111011734Y-105358015D02*
X110964115Y-105548491D01*
X110964115Y-105548491D02*
X110916496Y-105643729D01*
X110916496Y-105643729D02*
X110821258Y-105738968D01*
X110821258Y-105738968D02*
X110678401Y-105786587D01*
X110678401Y-105786587D02*
X110440306Y-105786587D01*
X111440306Y-105786587D02*
X111440306Y-104786587D01*
X111440306Y-104786587D02*
X111678401Y-104786587D01*
X111678401Y-104786587D02*
X111821258Y-104834206D01*
X111821258Y-104834206D02*
X111916496Y-104929444D01*
X111916496Y-104929444D02*
X111964115Y-105024682D01*
X111964115Y-105024682D02*
X112011734Y-105215158D01*
X112011734Y-105215158D02*
X112011734Y-105358015D01*
X112011734Y-105358015D02*
X111964115Y-105548491D01*
X111964115Y-105548491D02*
X111916496Y-105643729D01*
X111916496Y-105643729D02*
X111821258Y-105738968D01*
X111821258Y-105738968D02*
X111678401Y-105786587D01*
X111678401Y-105786587D02*
X111440306Y-105786587D01*
X105726020Y-106872721D02*
X106059353Y-106872721D01*
X106202210Y-107396531D02*
X105726020Y-107396531D01*
X105726020Y-107396531D02*
X105726020Y-106396531D01*
X105726020Y-106396531D02*
X106202210Y-106396531D01*
X106535544Y-106396531D02*
X107202210Y-107396531D01*
X107202210Y-106396531D02*
X106535544Y-107396531D01*
X107440306Y-106396531D02*
X108011734Y-106396531D01*
X107726020Y-107396531D02*
X107726020Y-106396531D01*
X108345068Y-107396531D02*
X108345068Y-106396531D01*
X108345068Y-106396531D02*
X108678401Y-107110816D01*
X108678401Y-107110816D02*
X109011734Y-106396531D01*
X109011734Y-106396531D02*
X109011734Y-107396531D01*
X109678401Y-106396531D02*
X109868877Y-106396531D01*
X109868877Y-106396531D02*
X109964115Y-106444150D01*
X109964115Y-106444150D02*
X110059353Y-106539388D01*
X110059353Y-106539388D02*
X110106972Y-106729864D01*
X110106972Y-106729864D02*
X110106972Y-107063197D01*
X110106972Y-107063197D02*
X110059353Y-107253673D01*
X110059353Y-107253673D02*
X109964115Y-107348912D01*
X109964115Y-107348912D02*
X109868877Y-107396531D01*
X109868877Y-107396531D02*
X109678401Y-107396531D01*
X109678401Y-107396531D02*
X109583163Y-107348912D01*
X109583163Y-107348912D02*
X109487925Y-107253673D01*
X109487925Y-107253673D02*
X109440306Y-107063197D01*
X109440306Y-107063197D02*
X109440306Y-106729864D01*
X109440306Y-106729864D02*
X109487925Y-106539388D01*
X109487925Y-106539388D02*
X109583163Y-106444150D01*
X109583163Y-106444150D02*
X109678401Y-106396531D01*
X110535544Y-107396531D02*
X110535544Y-106396531D01*
X110535544Y-106396531D02*
X110773639Y-106396531D01*
X110773639Y-106396531D02*
X110916496Y-106444150D01*
X110916496Y-106444150D02*
X111011734Y-106539388D01*
X111011734Y-106539388D02*
X111059353Y-106634626D01*
X111059353Y-106634626D02*
X111106972Y-106825102D01*
X111106972Y-106825102D02*
X111106972Y-106967959D01*
X111106972Y-106967959D02*
X111059353Y-107158435D01*
X111059353Y-107158435D02*
X111011734Y-107253673D01*
X111011734Y-107253673D02*
X110916496Y-107348912D01*
X110916496Y-107348912D02*
X110773639Y-107396531D01*
X110773639Y-107396531D02*
X110535544Y-107396531D01*
X111535544Y-106872721D02*
X111868877Y-106872721D01*
X112011734Y-107396531D02*
X111535544Y-107396531D01*
X111535544Y-107396531D02*
X111535544Y-106396531D01*
X111535544Y-106396531D02*
X112011734Y-106396531D01*
X109535544Y-108006475D02*
X109868877Y-109006475D01*
X109868877Y-109006475D02*
X110202210Y-108006475D01*
X110487925Y-108958856D02*
X110630782Y-109006475D01*
X110630782Y-109006475D02*
X110868877Y-109006475D01*
X110868877Y-109006475D02*
X110964115Y-108958856D01*
X110964115Y-108958856D02*
X111011734Y-108911236D01*
X111011734Y-108911236D02*
X111059353Y-108815998D01*
X111059353Y-108815998D02*
X111059353Y-108720760D01*
X111059353Y-108720760D02*
X111011734Y-108625522D01*
X111011734Y-108625522D02*
X110964115Y-108577903D01*
X110964115Y-108577903D02*
X110868877Y-108530284D01*
X110868877Y-108530284D02*
X110678401Y-108482665D01*
X110678401Y-108482665D02*
X110583163Y-108435046D01*
X110583163Y-108435046D02*
X110535544Y-108387427D01*
X110535544Y-108387427D02*
X110487925Y-108292189D01*
X110487925Y-108292189D02*
X110487925Y-108196951D01*
X110487925Y-108196951D02*
X110535544Y-108101713D01*
X110535544Y-108101713D02*
X110583163Y-108054094D01*
X110583163Y-108054094D02*
X110678401Y-108006475D01*
X110678401Y-108006475D02*
X110916496Y-108006475D01*
X110916496Y-108006475D02*
X111059353Y-108054094D01*
X111440306Y-108958856D02*
X111583163Y-109006475D01*
X111583163Y-109006475D02*
X111821258Y-109006475D01*
X111821258Y-109006475D02*
X111916496Y-108958856D01*
X111916496Y-108958856D02*
X111964115Y-108911236D01*
X111964115Y-108911236D02*
X112011734Y-108815998D01*
X112011734Y-108815998D02*
X112011734Y-108720760D01*
X112011734Y-108720760D02*
X111964115Y-108625522D01*
X111964115Y-108625522D02*
X111916496Y-108577903D01*
X111916496Y-108577903D02*
X111821258Y-108530284D01*
X111821258Y-108530284D02*
X111630782Y-108482665D01*
X111630782Y-108482665D02*
X111535544Y-108435046D01*
X111535544Y-108435046D02*
X111487925Y-108387427D01*
X111487925Y-108387427D02*
X111440306Y-108292189D01*
X111440306Y-108292189D02*
X111440306Y-108196951D01*
X111440306Y-108196951D02*
X111487925Y-108101713D01*
X111487925Y-108101713D02*
X111535544Y-108054094D01*
X111535544Y-108054094D02*
X111630782Y-108006475D01*
X111630782Y-108006475D02*
X111868877Y-108006475D01*
X111868877Y-108006475D02*
X112011734Y-108054094D01*
X108678401Y-109616419D02*
X109011734Y-110616419D01*
X109011734Y-110616419D02*
X109345067Y-109616419D01*
X109630782Y-110568800D02*
X109773639Y-110616419D01*
X109773639Y-110616419D02*
X110011734Y-110616419D01*
X110011734Y-110616419D02*
X110106972Y-110568800D01*
X110106972Y-110568800D02*
X110154591Y-110521180D01*
X110154591Y-110521180D02*
X110202210Y-110425942D01*
X110202210Y-110425942D02*
X110202210Y-110330704D01*
X110202210Y-110330704D02*
X110154591Y-110235466D01*
X110154591Y-110235466D02*
X110106972Y-110187847D01*
X110106972Y-110187847D02*
X110011734Y-110140228D01*
X110011734Y-110140228D02*
X109821258Y-110092609D01*
X109821258Y-110092609D02*
X109726020Y-110044990D01*
X109726020Y-110044990D02*
X109678401Y-109997371D01*
X109678401Y-109997371D02*
X109630782Y-109902133D01*
X109630782Y-109902133D02*
X109630782Y-109806895D01*
X109630782Y-109806895D02*
X109678401Y-109711657D01*
X109678401Y-109711657D02*
X109726020Y-109664038D01*
X109726020Y-109664038D02*
X109821258Y-109616419D01*
X109821258Y-109616419D02*
X110059353Y-109616419D01*
X110059353Y-109616419D02*
X110202210Y-109664038D01*
X110583163Y-110568800D02*
X110726020Y-110616419D01*
X110726020Y-110616419D02*
X110964115Y-110616419D01*
X110964115Y-110616419D02*
X111059353Y-110568800D01*
X111059353Y-110568800D02*
X111106972Y-110521180D01*
X111106972Y-110521180D02*
X111154591Y-110425942D01*
X111154591Y-110425942D02*
X111154591Y-110330704D01*
X111154591Y-110330704D02*
X111106972Y-110235466D01*
X111106972Y-110235466D02*
X111059353Y-110187847D01*
X111059353Y-110187847D02*
X110964115Y-110140228D01*
X110964115Y-110140228D02*
X110773639Y-110092609D01*
X110773639Y-110092609D02*
X110678401Y-110044990D01*
X110678401Y-110044990D02*
X110630782Y-109997371D01*
X110630782Y-109997371D02*
X110583163Y-109902133D01*
X110583163Y-109902133D02*
X110583163Y-109806895D01*
X110583163Y-109806895D02*
X110630782Y-109711657D01*
X110630782Y-109711657D02*
X110678401Y-109664038D01*
X110678401Y-109664038D02*
X110773639Y-109616419D01*
X110773639Y-109616419D02*
X111011734Y-109616419D01*
X111011734Y-109616419D02*
X111154591Y-109664038D01*
X111535544Y-110330704D02*
X112011734Y-110330704D01*
X111440306Y-110616419D02*
X111773639Y-109616419D01*
X111773639Y-109616419D02*
X112106972Y-110616419D01*
D10*
X124332742Y-94812707D02*
X123132742Y-94812707D01*
X124332742Y-94126993D02*
X123647028Y-94641279D01*
X123132742Y-94126993D02*
X123818457Y-94812707D01*
X123704171Y-93212707D02*
X123761314Y-93041279D01*
X123761314Y-93041279D02*
X123818457Y-92984136D01*
X123818457Y-92984136D02*
X123932742Y-92926993D01*
X123932742Y-92926993D02*
X124104171Y-92926993D01*
X124104171Y-92926993D02*
X124218457Y-92984136D01*
X124218457Y-92984136D02*
X124275600Y-93041279D01*
X124275600Y-93041279D02*
X124332742Y-93155564D01*
X124332742Y-93155564D02*
X124332742Y-93612707D01*
X124332742Y-93612707D02*
X123132742Y-93612707D01*
X123132742Y-93612707D02*
X123132742Y-93212707D01*
X123132742Y-93212707D02*
X123189885Y-93098422D01*
X123189885Y-93098422D02*
X123247028Y-93041279D01*
X123247028Y-93041279D02*
X123361314Y-92984136D01*
X123361314Y-92984136D02*
X123475600Y-92984136D01*
X123475600Y-92984136D02*
X123589885Y-93041279D01*
X123589885Y-93041279D02*
X123647028Y-93098422D01*
X123647028Y-93098422D02*
X123704171Y-93212707D01*
X123704171Y-93212707D02*
X123704171Y-93612707D01*
X123132742Y-91841279D02*
X123132742Y-92412707D01*
X123132742Y-92412707D02*
X123704171Y-92469850D01*
X123704171Y-92469850D02*
X123647028Y-92412707D01*
X123647028Y-92412707D02*
X123589885Y-92298422D01*
X123589885Y-92298422D02*
X123589885Y-92012707D01*
X123589885Y-92012707D02*
X123647028Y-91898422D01*
X123647028Y-91898422D02*
X123704171Y-91841279D01*
X123704171Y-91841279D02*
X123818457Y-91784136D01*
X123818457Y-91784136D02*
X124104171Y-91784136D01*
X124104171Y-91784136D02*
X124218457Y-91841279D01*
X124218457Y-91841279D02*
X124275600Y-91898422D01*
X124275600Y-91898422D02*
X124332742Y-92012707D01*
X124332742Y-92012707D02*
X124332742Y-92298422D01*
X124332742Y-92298422D02*
X124275600Y-92412707D01*
X124275600Y-92412707D02*
X124218457Y-92469850D01*
X123532742Y-90755565D02*
X124332742Y-90755565D01*
X123075600Y-91041279D02*
X123932742Y-91326993D01*
X123932742Y-91326993D02*
X123932742Y-90584136D01*
X138132742Y-94974136D02*
X138132742Y-94288422D01*
X139332742Y-94631279D02*
X138132742Y-94631279D01*
X139332742Y-93888421D02*
X138532742Y-93888421D01*
X138761314Y-93888421D02*
X138647028Y-93831278D01*
X138647028Y-93831278D02*
X138589885Y-93774136D01*
X138589885Y-93774136D02*
X138532742Y-93659850D01*
X138532742Y-93659850D02*
X138532742Y-93545564D01*
X139332742Y-92631279D02*
X138704171Y-92631279D01*
X138704171Y-92631279D02*
X138589885Y-92688421D01*
X138589885Y-92688421D02*
X138532742Y-92802707D01*
X138532742Y-92802707D02*
X138532742Y-93031279D01*
X138532742Y-93031279D02*
X138589885Y-93145564D01*
X139275600Y-92631279D02*
X139332742Y-92745564D01*
X139332742Y-92745564D02*
X139332742Y-93031279D01*
X139332742Y-93031279D02*
X139275600Y-93145564D01*
X139275600Y-93145564D02*
X139161314Y-93202707D01*
X139161314Y-93202707D02*
X139047028Y-93202707D01*
X139047028Y-93202707D02*
X138932742Y-93145564D01*
X138932742Y-93145564D02*
X138875600Y-93031279D01*
X138875600Y-93031279D02*
X138875600Y-92745564D01*
X138875600Y-92745564D02*
X138818457Y-92631279D01*
X139275600Y-91545565D02*
X139332742Y-91659850D01*
X139332742Y-91659850D02*
X139332742Y-91888422D01*
X139332742Y-91888422D02*
X139275600Y-92002707D01*
X139275600Y-92002707D02*
X139218457Y-92059850D01*
X139218457Y-92059850D02*
X139104171Y-92116993D01*
X139104171Y-92116993D02*
X138761314Y-92116993D01*
X138761314Y-92116993D02*
X138647028Y-92059850D01*
X138647028Y-92059850D02*
X138589885Y-92002707D01*
X138589885Y-92002707D02*
X138532742Y-91888422D01*
X138532742Y-91888422D02*
X138532742Y-91659850D01*
X138532742Y-91659850D02*
X138589885Y-91545565D01*
X139332742Y-91031279D02*
X138132742Y-91031279D01*
X138875600Y-90916994D02*
X139332742Y-90574136D01*
X138532742Y-90574136D02*
X138989885Y-91031279D01*
X138532742Y-90059850D02*
X139732742Y-90059850D01*
X138589885Y-90059850D02*
X138532742Y-89945565D01*
X138532742Y-89945565D02*
X138532742Y-89716993D01*
X138532742Y-89716993D02*
X138589885Y-89602707D01*
X138589885Y-89602707D02*
X138647028Y-89545565D01*
X138647028Y-89545565D02*
X138761314Y-89488422D01*
X138761314Y-89488422D02*
X139104171Y-89488422D01*
X139104171Y-89488422D02*
X139218457Y-89545565D01*
X139218457Y-89545565D02*
X139275600Y-89602707D01*
X139275600Y-89602707D02*
X139332742Y-89716993D01*
X139332742Y-89716993D02*
X139332742Y-89945565D01*
X139332742Y-89945565D02*
X139275600Y-90059850D01*
X139332742Y-88459851D02*
X138704171Y-88459851D01*
X138704171Y-88459851D02*
X138589885Y-88516993D01*
X138589885Y-88516993D02*
X138532742Y-88631279D01*
X138532742Y-88631279D02*
X138532742Y-88859851D01*
X138532742Y-88859851D02*
X138589885Y-88974136D01*
X139275600Y-88459851D02*
X139332742Y-88574136D01*
X139332742Y-88574136D02*
X139332742Y-88859851D01*
X139332742Y-88859851D02*
X139275600Y-88974136D01*
X139275600Y-88974136D02*
X139161314Y-89031279D01*
X139161314Y-89031279D02*
X139047028Y-89031279D01*
X139047028Y-89031279D02*
X138932742Y-88974136D01*
X138932742Y-88974136D02*
X138875600Y-88859851D01*
X138875600Y-88859851D02*
X138875600Y-88574136D01*
X138875600Y-88574136D02*
X138818457Y-88459851D01*
X139332742Y-87374137D02*
X138132742Y-87374137D01*
X139275600Y-87374137D02*
X139332742Y-87488422D01*
X139332742Y-87488422D02*
X139332742Y-87716994D01*
X139332742Y-87716994D02*
X139275600Y-87831279D01*
X139275600Y-87831279D02*
X139218457Y-87888422D01*
X139218457Y-87888422D02*
X139104171Y-87945565D01*
X139104171Y-87945565D02*
X138761314Y-87945565D01*
X138761314Y-87945565D02*
X138647028Y-87888422D01*
X138647028Y-87888422D02*
X138589885Y-87831279D01*
X138589885Y-87831279D02*
X138532742Y-87716994D01*
X138532742Y-87716994D02*
X138532742Y-87488422D01*
X138532742Y-87488422D02*
X138589885Y-87374137D01*
D12*
X118173333Y-104559580D02*
X118125714Y-104607200D01*
X118125714Y-104607200D02*
X117982857Y-104654819D01*
X117982857Y-104654819D02*
X117887619Y-104654819D01*
X117887619Y-104654819D02*
X117744762Y-104607200D01*
X117744762Y-104607200D02*
X117649524Y-104511961D01*
X117649524Y-104511961D02*
X117601905Y-104416723D01*
X117601905Y-104416723D02*
X117554286Y-104226247D01*
X117554286Y-104226247D02*
X117554286Y-104083390D01*
X117554286Y-104083390D02*
X117601905Y-103892914D01*
X117601905Y-103892914D02*
X117649524Y-103797676D01*
X117649524Y-103797676D02*
X117744762Y-103702438D01*
X117744762Y-103702438D02*
X117887619Y-103654819D01*
X117887619Y-103654819D02*
X117982857Y-103654819D01*
X117982857Y-103654819D02*
X118125714Y-103702438D01*
X118125714Y-103702438D02*
X118173333Y-103750057D01*
X118554286Y-103750057D02*
X118601905Y-103702438D01*
X118601905Y-103702438D02*
X118697143Y-103654819D01*
X118697143Y-103654819D02*
X118935238Y-103654819D01*
X118935238Y-103654819D02*
X119030476Y-103702438D01*
X119030476Y-103702438D02*
X119078095Y-103750057D01*
X119078095Y-103750057D02*
X119125714Y-103845295D01*
X119125714Y-103845295D02*
X119125714Y-103940533D01*
X119125714Y-103940533D02*
X119078095Y-104083390D01*
X119078095Y-104083390D02*
X118506667Y-104654819D01*
X118506667Y-104654819D02*
X119125714Y-104654819D01*
X138392819Y-105743333D02*
X139107104Y-105743333D01*
X139107104Y-105743333D02*
X139249961Y-105790952D01*
X139249961Y-105790952D02*
X139345200Y-105886190D01*
X139345200Y-105886190D02*
X139392819Y-106029047D01*
X139392819Y-106029047D02*
X139392819Y-106124285D01*
X138488057Y-105314761D02*
X138440438Y-105267142D01*
X138440438Y-105267142D02*
X138392819Y-105171904D01*
X138392819Y-105171904D02*
X138392819Y-104933809D01*
X138392819Y-104933809D02*
X138440438Y-104838571D01*
X138440438Y-104838571D02*
X138488057Y-104790952D01*
X138488057Y-104790952D02*
X138583295Y-104743333D01*
X138583295Y-104743333D02*
X138678533Y-104743333D01*
X138678533Y-104743333D02*
X138821390Y-104790952D01*
X138821390Y-104790952D02*
X139392819Y-105362380D01*
X139392819Y-105362380D02*
X139392819Y-104743333D01*
X123152819Y-104981333D02*
X123867104Y-104981333D01*
X123867104Y-104981333D02*
X124009961Y-105028952D01*
X124009961Y-105028952D02*
X124105200Y-105124190D01*
X124105200Y-105124190D02*
X124152819Y-105267047D01*
X124152819Y-105267047D02*
X124152819Y-105362285D01*
X124152819Y-103981333D02*
X124152819Y-104552761D01*
X124152819Y-104267047D02*
X123152819Y-104267047D01*
X123152819Y-104267047D02*
X123295676Y-104362285D01*
X123295676Y-104362285D02*
X123390914Y-104457523D01*
X123390914Y-104457523D02*
X123438533Y-104552761D01*
X121263580Y-100750666D02*
X121311200Y-100798285D01*
X121311200Y-100798285D02*
X121358819Y-100941142D01*
X121358819Y-100941142D02*
X121358819Y-101036380D01*
X121358819Y-101036380D02*
X121311200Y-101179237D01*
X121311200Y-101179237D02*
X121215961Y-101274475D01*
X121215961Y-101274475D02*
X121120723Y-101322094D01*
X121120723Y-101322094D02*
X120930247Y-101369713D01*
X120930247Y-101369713D02*
X120787390Y-101369713D01*
X120787390Y-101369713D02*
X120596914Y-101322094D01*
X120596914Y-101322094D02*
X120501676Y-101274475D01*
X120501676Y-101274475D02*
X120406438Y-101179237D01*
X120406438Y-101179237D02*
X120358819Y-101036380D01*
X120358819Y-101036380D02*
X120358819Y-100941142D01*
X120358819Y-100941142D02*
X120406438Y-100798285D01*
X120406438Y-100798285D02*
X120454057Y-100750666D01*
X121358819Y-99798285D02*
X121358819Y-100369713D01*
X121358819Y-100083999D02*
X120358819Y-100083999D01*
X120358819Y-100083999D02*
X120501676Y-100179237D01*
X120501676Y-100179237D02*
X120596914Y-100274475D01*
X120596914Y-100274475D02*
X120644533Y-100369713D01*
X118406666Y-95581009D02*
X118073333Y-95581009D01*
X118073333Y-96104819D02*
X118073333Y-95104819D01*
X118073333Y-95104819D02*
X118549523Y-95104819D01*
X119263809Y-95581009D02*
X119406666Y-95628628D01*
X119406666Y-95628628D02*
X119454285Y-95676247D01*
X119454285Y-95676247D02*
X119501904Y-95771485D01*
X119501904Y-95771485D02*
X119501904Y-95914342D01*
X119501904Y-95914342D02*
X119454285Y-96009580D01*
X119454285Y-96009580D02*
X119406666Y-96057200D01*
X119406666Y-96057200D02*
X119311428Y-96104819D01*
X119311428Y-96104819D02*
X118930476Y-96104819D01*
X118930476Y-96104819D02*
X118930476Y-95104819D01*
X118930476Y-95104819D02*
X119263809Y-95104819D01*
X119263809Y-95104819D02*
X119359047Y-95152438D01*
X119359047Y-95152438D02*
X119406666Y-95200057D01*
X119406666Y-95200057D02*
X119454285Y-95295295D01*
X119454285Y-95295295D02*
X119454285Y-95390533D01*
X119454285Y-95390533D02*
X119406666Y-95485771D01*
X119406666Y-95485771D02*
X119359047Y-95533390D01*
X119359047Y-95533390D02*
X119263809Y-95581009D01*
X119263809Y-95581009D02*
X118930476Y-95581009D01*
X120454285Y-96104819D02*
X119882857Y-96104819D01*
X120168571Y-96104819D02*
X120168571Y-95104819D01*
X120168571Y-95104819D02*
X120073333Y-95247676D01*
X120073333Y-95247676D02*
X119978095Y-95342914D01*
X119978095Y-95342914D02*
X119882857Y-95390533D01*
X114770819Y-105235333D02*
X115485104Y-105235333D01*
X115485104Y-105235333D02*
X115627961Y-105282952D01*
X115627961Y-105282952D02*
X115723200Y-105378190D01*
X115723200Y-105378190D02*
X115770819Y-105521047D01*
X115770819Y-105521047D02*
X115770819Y-105616285D01*
X114770819Y-104854380D02*
X114770819Y-104235333D01*
X114770819Y-104235333D02*
X115151771Y-104568666D01*
X115151771Y-104568666D02*
X115151771Y-104425809D01*
X115151771Y-104425809D02*
X115199390Y-104330571D01*
X115199390Y-104330571D02*
X115247009Y-104282952D01*
X115247009Y-104282952D02*
X115342247Y-104235333D01*
X115342247Y-104235333D02*
X115580342Y-104235333D01*
X115580342Y-104235333D02*
X115675580Y-104282952D01*
X115675580Y-104282952D02*
X115723200Y-104330571D01*
X115723200Y-104330571D02*
X115770819Y-104425809D01*
X115770819Y-104425809D02*
X115770819Y-104711523D01*
X115770819Y-104711523D02*
X115723200Y-104806761D01*
X115723200Y-104806761D02*
X115675580Y-104854380D01*
X118606666Y-105606009D02*
X118273333Y-105606009D01*
X118273333Y-106129819D02*
X118273333Y-105129819D01*
X118273333Y-105129819D02*
X118749523Y-105129819D01*
X119463809Y-105606009D02*
X119606666Y-105653628D01*
X119606666Y-105653628D02*
X119654285Y-105701247D01*
X119654285Y-105701247D02*
X119701904Y-105796485D01*
X119701904Y-105796485D02*
X119701904Y-105939342D01*
X119701904Y-105939342D02*
X119654285Y-106034580D01*
X119654285Y-106034580D02*
X119606666Y-106082200D01*
X119606666Y-106082200D02*
X119511428Y-106129819D01*
X119511428Y-106129819D02*
X119130476Y-106129819D01*
X119130476Y-106129819D02*
X119130476Y-105129819D01*
X119130476Y-105129819D02*
X119463809Y-105129819D01*
X119463809Y-105129819D02*
X119559047Y-105177438D01*
X119559047Y-105177438D02*
X119606666Y-105225057D01*
X119606666Y-105225057D02*
X119654285Y-105320295D01*
X119654285Y-105320295D02*
X119654285Y-105415533D01*
X119654285Y-105415533D02*
X119606666Y-105510771D01*
X119606666Y-105510771D02*
X119559047Y-105558390D01*
X119559047Y-105558390D02*
X119463809Y-105606009D01*
X119463809Y-105606009D02*
X119130476Y-105606009D01*
X120082857Y-105225057D02*
X120130476Y-105177438D01*
X120130476Y-105177438D02*
X120225714Y-105129819D01*
X120225714Y-105129819D02*
X120463809Y-105129819D01*
X120463809Y-105129819D02*
X120559047Y-105177438D01*
X120559047Y-105177438D02*
X120606666Y-105225057D01*
X120606666Y-105225057D02*
X120654285Y-105320295D01*
X120654285Y-105320295D02*
X120654285Y-105415533D01*
X120654285Y-105415533D02*
X120606666Y-105558390D01*
X120606666Y-105558390D02*
X120035238Y-106129819D01*
X120035238Y-106129819D02*
X120654285Y-106129819D01*
X118198333Y-97484580D02*
X118150714Y-97532200D01*
X118150714Y-97532200D02*
X118007857Y-97579819D01*
X118007857Y-97579819D02*
X117912619Y-97579819D01*
X117912619Y-97579819D02*
X117769762Y-97532200D01*
X117769762Y-97532200D02*
X117674524Y-97436961D01*
X117674524Y-97436961D02*
X117626905Y-97341723D01*
X117626905Y-97341723D02*
X117579286Y-97151247D01*
X117579286Y-97151247D02*
X117579286Y-97008390D01*
X117579286Y-97008390D02*
X117626905Y-96817914D01*
X117626905Y-96817914D02*
X117674524Y-96722676D01*
X117674524Y-96722676D02*
X117769762Y-96627438D01*
X117769762Y-96627438D02*
X117912619Y-96579819D01*
X117912619Y-96579819D02*
X118007857Y-96579819D01*
X118007857Y-96579819D02*
X118150714Y-96627438D01*
X118150714Y-96627438D02*
X118198333Y-96675057D01*
X118531667Y-96579819D02*
X119150714Y-96579819D01*
X119150714Y-96579819D02*
X118817381Y-96960771D01*
X118817381Y-96960771D02*
X118960238Y-96960771D01*
X118960238Y-96960771D02*
X119055476Y-97008390D01*
X119055476Y-97008390D02*
X119103095Y-97056009D01*
X119103095Y-97056009D02*
X119150714Y-97151247D01*
X119150714Y-97151247D02*
X119150714Y-97389342D01*
X119150714Y-97389342D02*
X119103095Y-97484580D01*
X119103095Y-97484580D02*
X119055476Y-97532200D01*
X119055476Y-97532200D02*
X118960238Y-97579819D01*
X118960238Y-97579819D02*
X118674524Y-97579819D01*
X118674524Y-97579819D02*
X118579286Y-97532200D01*
X118579286Y-97532200D02*
X118531667Y-97484580D01*
D13*
%TO.C,C2*%
X118157164Y-100740000D02*
X118372836Y-100740000D01*
X118157164Y-101460000D02*
X118372836Y-101460000D01*
D11*
%TO.C,J2*%
X136467000Y-102712000D02*
X136717000Y-102562000D01*
X136717000Y-102562000D02*
X136467000Y-102412000D01*
D14*
X136900000Y-95620000D02*
X136900000Y-104020000D01*
X136900000Y-104020000D02*
X139800000Y-104020000D01*
X139750000Y-95620000D02*
X136900000Y-95620000D01*
X140900000Y-103070000D02*
X140900000Y-96570000D01*
D11*
%TO.C,J1*%
X121375000Y-101905000D02*
X121625000Y-101755000D01*
X121625000Y-101755000D02*
X121375000Y-101605000D01*
D14*
X121800000Y-96800000D02*
X121800000Y-103200000D01*
X121800000Y-103200000D02*
X124700000Y-103200000D01*
X124650000Y-96800000D02*
X121800000Y-96800000D01*
X125800000Y-103250000D02*
X125800000Y-96750000D01*
D13*
%TO.C,C1*%
X119480000Y-100682836D02*
X119480000Y-100467164D01*
X120200000Y-100682836D02*
X120200000Y-100467164D01*
%TO.C,FB1*%
X118740378Y-97815000D02*
X119539622Y-97815000D01*
X118740378Y-98935000D02*
X119539622Y-98935000D01*
D14*
%TO.C,J3*%
X113090376Y-97237683D02*
X113090376Y-102745517D01*
X114290000Y-103700000D02*
X117140000Y-103700000D01*
X117140000Y-96300000D02*
X114290000Y-96300000D01*
X117140000Y-103700000D02*
X117140000Y-96300000D01*
D11*
X117320000Y-97740000D02*
X117570000Y-97890000D01*
X117570000Y-97590000D02*
X117320000Y-97740000D01*
D13*
%TO.C,FB2*%
X119764622Y-102190000D02*
X118965378Y-102190000D01*
X119764622Y-103310000D02*
X118965378Y-103310000D01*
%TO.C,C3*%
X118157164Y-99640000D02*
X118372836Y-99640000D01*
X118157164Y-100360000D02*
X118372836Y-100360000D01*
%TD*%
M02*
