M48
; DRILL file {KiCad 8.0.6} date 2024-11-15T14:11:26+0100
; FORMAT={-:-/ absolute / metric / decimal}
; #@! TF.CreationDate,2024-11-15T14:11:26+01:00
; #@! TF.GenerationSoftware,Kicad,Pcbnew,8.0.6
; #@! TF.FileFunction,Plated,1,2,PTH
FMAT,2
METRIC
; #@! TA.AperFunction,Plated,PTH,ViaDrill
T1C0.300
%
G90
G05
T1
X105.62Y-102.83
X105.64Y-97.4
X105.82Y-100.46
X108.48Y-102.83
X109.02Y-100.39
X109.11Y-97.33
X111.09Y-102.88
X112.57Y-97.35
X114.5Y-104.12
X115.04Y-96.28
X115.29Y-99.42
X115.56Y-101.49
X117.58Y-102.89
X119.015Y-99.58
X120.93Y-96.33
X121.98Y-98.74
X122.71Y-106.42
X123.32Y-102.94
X123.66Y-98.56
X123.68Y-100.52
X124.17Y-103.56
X124.84Y-100.49
X127.0Y-105.0
X130.11Y-97.49
X131.65Y-106.48
X132.95Y-100.04
X136.9Y-97.6
X138.6Y-97.6
X138.63Y-106.34
M30
