%TF.GenerationSoftware,KiCad,Pcbnew,8.0.6*%
%TF.CreationDate,2024-11-15T14:11:30+01:00*%
%TF.ProjectId,PA3194G822_R05,50413331-3934-4473-9832-325f5230352e,3*%
%TF.SameCoordinates,Original*%
%TF.FileFunction,Copper,L1,Top*%
%TF.FilePolarity,Positive*%
%FSLAX46Y46*%
G04 Gerber Fmt 4.6, Leading zero omitted, Abs format (unit mm)*
G04 Created by KiCad (PCBNEW 8.0.6) date 2024-11-15 14:11:30*
%MOMM*%
%LPD*%
G01*
G04 APERTURE LIST*
G04 Aperture macros list*
%AMRoundRect*
0 Rectangle with rounded corners*
0 $1 Rounding radius*
0 $2 $3 $4 $5 $6 $7 $8 $9 X,Y pos of 4 corners*
0 Add a 4 corners polygon primitive as box body*
4,1,4,$2,$3,$4,$5,$6,$7,$8,$9,$2,$3,0*
0 Add four circle primitives for the rounded corners*
1,1,$1+$1,$2,$3*
1,1,$1+$1,$4,$5*
1,1,$1+$1,$6,$7*
1,1,$1+$1,$8,$9*
0 Add four rect primitives between the rounded corners*
20,1,$1+$1,$2,$3,$4,$5,0*
20,1,$1+$1,$4,$5,$6,$7,0*
20,1,$1+$1,$6,$7,$8,$9,0*
20,1,$1+$1,$8,$9,$2,$3,0*%
G04 Aperture macros list end*
%TA.AperFunction,SMDPad,CuDef*%
%ADD10RoundRect,0.140000X-0.140000X-0.170000X0.140000X-0.170000X0.140000X0.170000X-0.140000X0.170000X0*%
%TD*%
%TA.AperFunction,SMDPad,CuDef*%
%ADD11R,0.800000X0.300000*%
%TD*%
%TA.AperFunction,SMDPad,CuDef*%
%ADD12R,1.000000X0.400000*%
%TD*%
%TA.AperFunction,SMDPad,CuDef*%
%ADD13RoundRect,0.140000X0.170000X-0.140000X0.170000X0.140000X-0.170000X0.140000X-0.170000X-0.140000X0*%
%TD*%
%TA.AperFunction,SMDPad,CuDef*%
%ADD14RoundRect,0.218750X-0.218750X-0.381250X0.218750X-0.381250X0.218750X0.381250X-0.218750X0.381250X0*%
%TD*%
%TA.AperFunction,SMDPad,CuDef*%
%ADD15RoundRect,0.218750X0.218750X0.381250X-0.218750X0.381250X-0.218750X-0.381250X0.218750X-0.381250X0*%
%TD*%
%TA.AperFunction,ViaPad*%
%ADD16C,0.600000*%
%TD*%
%TA.AperFunction,Conductor*%
%ADD17C,0.300000*%
%TD*%
%TA.AperFunction,Conductor*%
%ADD18C,0.500000*%
%TD*%
G04 APERTURE END LIST*
D10*
%TO.P,C2,1*%
%TO.N,/VDD*%
X117785000Y-101100000D03*
%TO.P,C2,2*%
%TO.N,GND*%
X118745000Y-101100000D03*
%TD*%
D11*
%TO.P,J2,1,Pin_1*%
%TO.N,/SPI_CLK*%
X137775000Y-102570000D03*
%TO.P,J2,2,Pin_2*%
%TO.N,/SPI_SDO*%
X137775000Y-102070000D03*
%TO.P,J2,3,Pin_3*%
%TO.N,/SPI_TPAD_CS*%
X137775000Y-101570000D03*
%TO.P,J2,4,Pin_4*%
%TO.N,/TPAD_DR*%
X137775000Y-101070000D03*
%TO.P,J2,5,Pin_5*%
%TO.N,/SPI_SDI*%
X137775000Y-100570000D03*
%TO.P,J2,6,Pin_6*%
%TO.N,unconnected-(J2-Pin_6-Pad6)*%
X137775000Y-100070000D03*
%TO.P,J2,7,Pin_7*%
%TO.N,unconnected-(J2-Pin_7-Pad7)*%
X137775000Y-99570000D03*
%TO.P,J2,8,Pin_8*%
%TO.N,unconnected-(J2-Pin_8-Pad8)*%
X137775000Y-99070000D03*
%TO.P,J2,9,Pin_9*%
%TO.N,unconnected-(J2-Pin_9-Pad9)*%
X137775000Y-98570000D03*
%TO.P,J2,10,Pin_10*%
%TO.N,unconnected-(J2-Pin_10-Pad10)*%
X137775000Y-98070000D03*
%TO.P,J2,11,Pin_11*%
%TO.N,GND*%
X137775000Y-97570000D03*
%TO.P,J2,12,Pin_12*%
%TO.N,/VDD*%
X137775000Y-97070000D03*
D12*
%TO.P,J2,MP*%
%TO.N,N/C*%
X140275000Y-103570000D03*
X140275000Y-96070000D03*
%TD*%
D11*
%TO.P,J1,1,Pin_1*%
%TO.N,/SPI_CLK*%
X122675000Y-101750000D03*
%TO.P,J1,2,Pin_2*%
%TO.N,/SPI_SDO*%
X122675000Y-101250000D03*
%TO.P,J1,3,Pin_3*%
%TO.N,/SPI_SDI*%
X122675000Y-100750000D03*
%TO.P,J1,4,Pin_4*%
%TO.N,/SPI_LCD_CS*%
X122675000Y-100250000D03*
%TO.P,J1,5,Pin_5*%
%TO.N,/SPI_TPAD_CS*%
X122675000Y-99750000D03*
%TO.P,J1,6,Pin_6*%
%TO.N,/TPAD_DR*%
X122675000Y-99250000D03*
%TO.P,J1,7,Pin_7*%
%TO.N,GND*%
X122675000Y-98750000D03*
%TO.P,J1,8,Pin_8*%
%TO.N,/VDD*%
X122675000Y-98250000D03*
D12*
%TO.P,J1,MP*%
%TO.N,N/C*%
X125175000Y-102750000D03*
X125175000Y-97250000D03*
%TD*%
D13*
%TO.P,C1,1*%
%TO.N,/VSSA*%
X119840000Y-101055000D03*
%TO.P,C1,2*%
%TO.N,/VDDA*%
X119840000Y-100095000D03*
%TD*%
D14*
%TO.P,FB1,1*%
%TO.N,/VDD*%
X118077500Y-98375000D03*
%TO.P,FB1,2*%
%TO.N,/VDDA*%
X120202500Y-98375000D03*
%TD*%
D11*
%TO.P,J3,1,Pin_1*%
%TO.N,/SPI_CLK*%
X116265000Y-97750000D03*
%TO.P,J3,2,Pin_2*%
%TO.N,/SPI_SDI*%
X116265000Y-98250000D03*
%TO.P,J3,3,Pin_3*%
%TO.N,/SPI_LCD_CS*%
X116265000Y-98750000D03*
%TO.P,J3,4,Pin_4*%
%TO.N,GND*%
X116265000Y-99250000D03*
%TO.P,J3,5,Pin_5*%
%TO.N,/VDD*%
X116265000Y-99750000D03*
%TO.P,J3,6,Pin_6*%
%TO.N,/VDDA*%
X116265000Y-100250000D03*
%TO.P,J3,7,Pin_7*%
%TO.N,/VDD*%
X116265000Y-100750000D03*
%TO.P,J3,8,Pin_8*%
%TO.N,GND*%
X116265000Y-101250000D03*
%TO.P,J3,9,Pin_9*%
X116265000Y-101750000D03*
%TO.P,J3,10,Pin_10*%
%TO.N,/VSSA*%
X116265000Y-102250000D03*
D12*
%TO.P,J3,MP*%
%TO.N,N/C*%
X113765000Y-96750000D03*
X113765000Y-103250000D03*
%TD*%
D15*
%TO.P,FB2,1*%
%TO.N,/VSSA*%
X120427500Y-102750000D03*
%TO.P,FB2,2*%
%TO.N,GND*%
X118302500Y-102750000D03*
%TD*%
D10*
%TO.P,C3,1*%
%TO.N,/VDD*%
X117785000Y-100000000D03*
%TO.P,C3,2*%
%TO.N,GND*%
X118745000Y-100000000D03*
%TD*%
D16*
%TO.N,GND*%
X109020000Y-100390000D03*
X108480000Y-102830000D03*
X111090000Y-102880000D03*
X105820000Y-100460000D03*
X112570000Y-97350000D03*
X109110000Y-97330000D03*
X105640000Y-97400000D03*
X105620000Y-102830000D03*
X124840000Y-100490000D03*
X136900000Y-97600000D03*
X122710000Y-106420000D03*
X119015000Y-99580000D03*
X115290000Y-99420000D03*
X123320000Y-102940000D03*
X115040000Y-96280000D03*
X132950000Y-100040000D03*
X121980000Y-98740000D03*
X120930000Y-96330000D03*
X138630000Y-106340000D03*
X114500000Y-104120000D03*
X130110000Y-97490000D03*
X117580000Y-102890000D03*
X127000000Y-105000000D03*
X115560000Y-101490000D03*
X123660000Y-98560000D03*
X131650000Y-106480000D03*
X138600000Y-97600000D03*
%TO.N,/SPI_SDI*%
X123680000Y-100520000D03*
X124170000Y-103560000D03*
%TD*%
D17*
%TO.N,/VDDA*%
X120700000Y-101430000D02*
X120700000Y-100880000D01*
X120427500Y-99067500D02*
X120427500Y-98530000D01*
X119840000Y-100225000D02*
X119840000Y-99655000D01*
X116265000Y-100250000D02*
X115020000Y-100250000D01*
X121315000Y-103455000D02*
X121315000Y-102045000D01*
X116835000Y-104055000D02*
X120715000Y-104055000D01*
X119915000Y-100095000D02*
X119840000Y-100095000D01*
X119840000Y-99655000D02*
X120427500Y-99067500D01*
X121315000Y-102045000D02*
X120700000Y-101430000D01*
X120715000Y-104055000D02*
X121315000Y-103455000D01*
X114600000Y-101820000D02*
X116835000Y-104055000D01*
X120700000Y-100880000D02*
X119915000Y-100095000D01*
X115020000Y-100250000D02*
X114600000Y-100670000D01*
X114600000Y-100670000D02*
X114600000Y-101820000D01*
%TO.N,/VSSA*%
X119840000Y-101367500D02*
X119483750Y-101723750D01*
X119407500Y-101800000D02*
X119483750Y-101723750D01*
X116265000Y-102250000D02*
X116910000Y-102250000D01*
X117360000Y-101800000D02*
X119407500Y-101800000D01*
X116910000Y-102250000D02*
X117360000Y-101800000D01*
X119407500Y-101800000D02*
X119477500Y-101800000D01*
X119477500Y-101800000D02*
X120427500Y-102750000D01*
X119840000Y-101185000D02*
X119840000Y-101367500D01*
%TO.N,GND*%
X117595000Y-102905000D02*
X117580000Y-102890000D01*
X118745000Y-99850000D02*
X119015000Y-99580000D01*
X122675000Y-98750000D02*
X121990000Y-98750000D01*
X116265000Y-101750000D02*
X115820000Y-101750000D01*
X116265000Y-99250000D02*
X115460000Y-99250000D01*
X116265000Y-101250000D02*
X115800000Y-101250000D01*
X118745000Y-99960000D02*
X118745000Y-100180000D01*
X138570000Y-97570000D02*
X138600000Y-97600000D01*
X118077500Y-103067500D02*
X118077500Y-102905000D01*
X118745000Y-99960000D02*
X118745000Y-99850000D01*
X115800000Y-101250000D02*
X115560000Y-101490000D01*
X115820000Y-101750000D02*
X115560000Y-101490000D01*
X117690000Y-102905000D02*
X117595000Y-102905000D01*
X121990000Y-98750000D02*
X121980000Y-98740000D01*
X118302500Y-102750000D02*
X117720000Y-102750000D01*
X117690000Y-102905000D02*
X118077500Y-102905000D01*
X117720000Y-102750000D02*
X117580000Y-102890000D01*
X136930000Y-97570000D02*
X136900000Y-97600000D01*
X118745000Y-100000000D02*
X118745000Y-101100000D01*
X115460000Y-99250000D02*
X115290000Y-99420000D01*
X137775000Y-97570000D02*
X136930000Y-97570000D01*
X137775000Y-97570000D02*
X138570000Y-97570000D01*
X123470000Y-98750000D02*
X123660000Y-98560000D01*
X122675000Y-98750000D02*
X123470000Y-98750000D01*
%TO.N,/VDD*%
X116820000Y-100750000D02*
X117570000Y-100000000D01*
D18*
X118077500Y-98375000D02*
X118077500Y-98142500D01*
X121655000Y-97130000D02*
X122370000Y-97845000D01*
X121655000Y-97130000D02*
X122405000Y-96380000D01*
X119090000Y-97130000D02*
X121655000Y-97130000D01*
X117785000Y-100000000D02*
X117785000Y-99355000D01*
X122405000Y-96380000D02*
X137185000Y-96380000D01*
X137185000Y-96380000D02*
X137775000Y-96970000D01*
D17*
X116265000Y-100750000D02*
X116820000Y-100750000D01*
D18*
X118077500Y-99062500D02*
X118077500Y-98375000D01*
D17*
X116265000Y-99750000D02*
X116820000Y-99750000D01*
D18*
X117785000Y-99355000D02*
X118077500Y-99062500D01*
D17*
X117570000Y-100000000D02*
X117785000Y-100000000D01*
X116820000Y-99750000D02*
X117070000Y-100000000D01*
X117785000Y-101280000D02*
X117785000Y-100180000D01*
X117070000Y-100000000D02*
X117570000Y-100000000D01*
D18*
X122370000Y-97845000D02*
X122675000Y-98150000D01*
X118077500Y-98142500D02*
X119090000Y-97130000D01*
D17*
%TO.N,/SPI_TPAD_CS*%
X127100000Y-99750000D02*
X128920000Y-101570000D01*
X128920000Y-101570000D02*
X137775000Y-101570000D01*
X122675000Y-99750000D02*
X127100000Y-99750000D01*
%TO.N,/SPI_SDI*%
X137775000Y-100570000D02*
X138510000Y-100570000D01*
X114570000Y-97510000D02*
X113650000Y-97510000D01*
X114420000Y-106530000D02*
X121350000Y-106530000D01*
X138510000Y-100570000D02*
X138730000Y-100790000D01*
X124320000Y-103560000D02*
X138050000Y-103560000D01*
X122675000Y-100750000D02*
X123450000Y-100750000D01*
X114920000Y-97160000D02*
X114570000Y-97510000D01*
X117120000Y-97460000D02*
X116820000Y-97160000D01*
X116900000Y-98250000D02*
X117120000Y-98030000D01*
X138730000Y-102880000D02*
X138050000Y-103560000D01*
X117120000Y-98030000D02*
X117120000Y-97460000D01*
X121350000Y-106530000D02*
X124000000Y-103880000D01*
X124000000Y-103880000D02*
X124170000Y-103710000D01*
X113650000Y-97510000D02*
X111940000Y-99220000D01*
X116265000Y-98250000D02*
X116900000Y-98250000D01*
X138730000Y-100790000D02*
X138730000Y-102880000D01*
X111940000Y-104050000D02*
X114420000Y-106530000D01*
X116820000Y-97160000D02*
X114920000Y-97160000D01*
X111940000Y-99220000D02*
X111940000Y-104050000D01*
X124170000Y-103710000D02*
X124170000Y-103560000D01*
X124000000Y-103880000D02*
X124320000Y-103560000D01*
X123450000Y-100750000D02*
X123680000Y-100520000D01*
%TO.N,/SPI_CLK*%
X123010000Y-101770000D02*
X126840000Y-101770000D01*
X121110000Y-105690000D02*
X122460000Y-104340000D01*
X122460000Y-104340000D02*
X122460000Y-102320000D01*
X116265000Y-97750000D02*
X115330000Y-97750000D01*
X112740000Y-103720000D02*
X114710000Y-105690000D01*
X115330000Y-97750000D02*
X114980000Y-98100000D01*
X127640000Y-102570000D02*
X137775000Y-102570000D01*
X114710000Y-105690000D02*
X121110000Y-105690000D01*
X114980000Y-98100000D02*
X114440000Y-98100000D01*
X114440000Y-98100000D02*
X112740000Y-99800000D01*
X112740000Y-99800000D02*
X112740000Y-103720000D01*
X122460000Y-102320000D02*
X123010000Y-101770000D01*
X126840000Y-101770000D02*
X127640000Y-102570000D01*
%TO.N,/TPAD_DR*%
X122675000Y-99250000D02*
X127650000Y-99250000D01*
X127650000Y-99250000D02*
X129470000Y-101070000D01*
X129470000Y-101070000D02*
X137775000Y-101070000D01*
%TO.N,/SPI_LCD_CS*%
X116775000Y-104965000D02*
X120770000Y-104965000D01*
X116265000Y-98750000D02*
X114740000Y-98750000D01*
X121820000Y-103915000D02*
X121820000Y-100550000D01*
X114740000Y-98750000D02*
X113820000Y-99670000D01*
X113820000Y-102010000D02*
X116775000Y-104965000D01*
X122120000Y-100250000D02*
X122675000Y-100250000D01*
X121820000Y-100550000D02*
X122120000Y-100250000D01*
X113820000Y-99670000D02*
X113820000Y-102010000D01*
X120770000Y-104965000D02*
X121820000Y-103915000D01*
%TO.N,/SPI_SDO*%
X128260000Y-102070000D02*
X137775000Y-102070000D01*
X122675000Y-101250000D02*
X127440000Y-101250000D01*
X127440000Y-101250000D02*
X128260000Y-102070000D01*
%TD*%
%TA.AperFunction,Conductor*%
%TO.N,GND*%
G36*
X138857333Y-103775125D02*
G01*
X138913267Y-103816996D01*
X138937684Y-103882460D01*
X138938000Y-103891307D01*
X138938000Y-106556070D01*
X138918315Y-106623109D01*
X138865511Y-106668864D01*
X138814070Y-106680070D01*
X122409982Y-106689394D01*
X122342932Y-106669748D01*
X122297147Y-106616970D01*
X122287164Y-106547817D01*
X122316153Y-106484245D01*
X122322204Y-106477741D01*
X124495209Y-104304737D01*
X124516919Y-104287424D01*
X124519520Y-104285789D01*
X124519522Y-104285789D01*
X124562260Y-104258934D01*
X124609097Y-104229506D01*
X124675068Y-104210500D01*
X138114071Y-104210500D01*
X138198615Y-104193682D01*
X138239744Y-104185501D01*
X138358127Y-104136465D01*
X138360815Y-104134669D01*
X138464669Y-104065277D01*
X138726321Y-103803624D01*
X138787641Y-103770141D01*
X138857333Y-103775125D01*
G37*
%TD.AperFunction*%
%TA.AperFunction,Conductor*%
G36*
X114713190Y-103830239D02*
G01*
X114741445Y-103851391D01*
X115717873Y-104827819D01*
X115751358Y-104889142D01*
X115746374Y-104958834D01*
X115704502Y-105014767D01*
X115639038Y-105039184D01*
X115630192Y-105039500D01*
X115030808Y-105039500D01*
X114963769Y-105019815D01*
X114943127Y-105003181D01*
X114102126Y-104162180D01*
X114068641Y-104100857D01*
X114073625Y-104031165D01*
X114115497Y-103975232D01*
X114180961Y-103950815D01*
X114189807Y-103950499D01*
X114312871Y-103950499D01*
X114312872Y-103950499D01*
X114372483Y-103944091D01*
X114507331Y-103893796D01*
X114566431Y-103849554D01*
X114579453Y-103839806D01*
X114644917Y-103815388D01*
X114713190Y-103830239D01*
G37*
%TD.AperFunction*%
%TA.AperFunction,Conductor*%
G36*
X124117539Y-102440185D02*
G01*
X124163294Y-102492989D01*
X124174500Y-102544500D01*
X124174500Y-102643114D01*
X124154815Y-102710153D01*
X124102011Y-102755908D01*
X124064384Y-102766334D01*
X123990749Y-102774630D01*
X123990745Y-102774631D01*
X123820476Y-102834211D01*
X123667737Y-102930184D01*
X123540184Y-103057737D01*
X123444211Y-103210476D01*
X123384631Y-103380745D01*
X123384630Y-103380749D01*
X123364769Y-103557025D01*
X123337702Y-103621439D01*
X123329236Y-103630816D01*
X123322187Y-103637866D01*
X123260867Y-103671355D01*
X123191175Y-103666376D01*
X123135238Y-103624508D01*
X123110817Y-103559046D01*
X123110500Y-103550191D01*
X123110500Y-102640808D01*
X123130185Y-102573769D01*
X123146819Y-102553127D01*
X123243127Y-102456819D01*
X123304450Y-102423334D01*
X123330808Y-102420500D01*
X124050500Y-102420500D01*
X124117539Y-102440185D01*
G37*
%TD.AperFunction*%
%TA.AperFunction,Conductor*%
G36*
X112743138Y-97011118D02*
G01*
X112769235Y-97052995D01*
X112821202Y-97192328D01*
X112821204Y-97192331D01*
X112828450Y-97202011D01*
X112853788Y-97235857D01*
X112878206Y-97301321D01*
X112863355Y-97369594D01*
X112842203Y-97397850D01*
X111434727Y-98805325D01*
X111434724Y-98805328D01*
X111371137Y-98900493D01*
X111371138Y-98900494D01*
X111363533Y-98911875D01*
X111314499Y-99030255D01*
X111314497Y-99030261D01*
X111289500Y-99155928D01*
X111289500Y-103388662D01*
X111269815Y-103455701D01*
X111217011Y-103501456D01*
X111147853Y-103511400D01*
X111084297Y-103482375D01*
X111078017Y-103476541D01*
X110750000Y-103150000D01*
X110749997Y-103149999D01*
X104624131Y-103131794D01*
X104557151Y-103111911D01*
X104511553Y-103058971D01*
X104500500Y-103007795D01*
X104500500Y-97122592D01*
X104520185Y-97055553D01*
X104572989Y-97009798D01*
X104624205Y-96998593D01*
X112610000Y-96980000D01*
X112610003Y-96979996D01*
X112612966Y-96978986D01*
X112682770Y-96975941D01*
X112743138Y-97011118D01*
G37*
%TD.AperFunction*%
%TA.AperFunction,Conductor*%
G36*
X117325496Y-102860452D02*
G01*
X117361148Y-102920541D01*
X117365000Y-102951206D01*
X117365000Y-103179134D01*
X117365001Y-103179151D01*
X117374068Y-103267898D01*
X117361298Y-103336591D01*
X117313418Y-103387475D01*
X117250710Y-103404500D01*
X117155808Y-103404500D01*
X117088769Y-103384815D01*
X117068127Y-103368181D01*
X116812127Y-103112181D01*
X116778642Y-103050858D01*
X116783626Y-102981166D01*
X116825498Y-102925233D01*
X116890962Y-102900816D01*
X116899808Y-102900500D01*
X116974071Y-102900500D01*
X117097235Y-102876000D01*
X117099744Y-102875501D01*
X117193548Y-102836645D01*
X117263016Y-102829177D01*
X117325496Y-102860452D01*
G37*
%TD.AperFunction*%
%TA.AperFunction,Conductor*%
G36*
X119273231Y-102519685D02*
G01*
X119293873Y-102536319D01*
X119453181Y-102695627D01*
X119486666Y-102756950D01*
X119489500Y-102783308D01*
X119489500Y-103179183D01*
X119498564Y-103267898D01*
X119485795Y-103336590D01*
X119437914Y-103387475D01*
X119375206Y-103404500D01*
X119354291Y-103404500D01*
X119287252Y-103384815D01*
X119241497Y-103332011D01*
X119230933Y-103267898D01*
X119239999Y-103179152D01*
X119240000Y-103179137D01*
X119240000Y-103000000D01*
X118176500Y-103000000D01*
X118109461Y-102980315D01*
X118063706Y-102927511D01*
X118052500Y-102876000D01*
X118052500Y-102624000D01*
X118072185Y-102556961D01*
X118124989Y-102511206D01*
X118176500Y-102500000D01*
X119206192Y-102500000D01*
X119273231Y-102519685D01*
G37*
%TD.AperFunction*%
%TA.AperFunction,Conductor*%
G36*
X118938039Y-99769685D02*
G01*
X118983794Y-99822489D01*
X118995000Y-99874000D01*
X118995000Y-101025500D01*
X118975315Y-101092539D01*
X118922511Y-101138294D01*
X118871000Y-101149500D01*
X118689500Y-101149500D01*
X118622461Y-101129815D01*
X118576706Y-101077011D01*
X118565500Y-101025500D01*
X118565500Y-100865317D01*
X118565499Y-100865302D01*
X118564319Y-100850310D01*
X118562643Y-100829007D01*
X118532696Y-100725931D01*
X118517495Y-100673608D01*
X118517492Y-100673600D01*
X118512266Y-100664763D01*
X118495000Y-100601645D01*
X118495000Y-100498352D01*
X118512267Y-100435233D01*
X118517494Y-100426395D01*
X118525018Y-100400500D01*
X118562642Y-100270997D01*
X118562643Y-100270991D01*
X118562888Y-100267878D01*
X118565500Y-100234690D01*
X118565500Y-99874000D01*
X118585185Y-99806961D01*
X118637989Y-99761206D01*
X118689500Y-99750000D01*
X118871000Y-99750000D01*
X118938039Y-99769685D01*
G37*
%TD.AperFunction*%
%TA.AperFunction,Conductor*%
G36*
X124117539Y-97150185D02*
G01*
X124163294Y-97202989D01*
X124174500Y-97254499D01*
X124174500Y-97497869D01*
X124174501Y-97497876D01*
X124180908Y-97557483D01*
X124231202Y-97692328D01*
X124231206Y-97692335D01*
X124317452Y-97807544D01*
X124317455Y-97807547D01*
X124432664Y-97893793D01*
X124432671Y-97893797D01*
X124567517Y-97944091D01*
X124567516Y-97944091D01*
X124574444Y-97944835D01*
X124627127Y-97950500D01*
X125722872Y-97950499D01*
X125782483Y-97944091D01*
X125917331Y-97893796D01*
X126032546Y-97807546D01*
X126118796Y-97692331D01*
X126169091Y-97557483D01*
X126175500Y-97497873D01*
X126175499Y-97254499D01*
X126195183Y-97187461D01*
X126247987Y-97141706D01*
X126299499Y-97130500D01*
X136750501Y-97130500D01*
X136817540Y-97150185D01*
X136863295Y-97202989D01*
X136874501Y-97254500D01*
X136874501Y-97267881D01*
X136878931Y-97309093D01*
X136878931Y-97335596D01*
X136875000Y-97372165D01*
X136875000Y-97420000D01*
X136890611Y-97435611D01*
X136904484Y-97439685D01*
X136936713Y-97469690D01*
X136956176Y-97495690D01*
X136980592Y-97561155D01*
X136965740Y-97629428D01*
X136956176Y-97644310D01*
X136936713Y-97670310D01*
X136888890Y-97706109D01*
X136875000Y-97720000D01*
X136875000Y-97767832D01*
X136878931Y-97804399D01*
X136878931Y-97830905D01*
X136874500Y-97872122D01*
X136874500Y-98267869D01*
X136874501Y-98267878D01*
X136878679Y-98306745D01*
X136878679Y-98333250D01*
X136874500Y-98372122D01*
X136874500Y-98767869D01*
X136874501Y-98767878D01*
X136878679Y-98806745D01*
X136878679Y-98833250D01*
X136874500Y-98872122D01*
X136874500Y-99267869D01*
X136874501Y-99267878D01*
X136878679Y-99306745D01*
X136878679Y-99333250D01*
X136874500Y-99372122D01*
X136874500Y-99767869D01*
X136874501Y-99767878D01*
X136878679Y-99806745D01*
X136878679Y-99833250D01*
X136874500Y-99872122D01*
X136874500Y-100267869D01*
X136874501Y-100267878D01*
X136876046Y-100282248D01*
X136863638Y-100351007D01*
X136816027Y-100402143D01*
X136752756Y-100419500D01*
X129790808Y-100419500D01*
X129723769Y-100399815D01*
X129703127Y-100383181D01*
X128064674Y-98744727D01*
X128064673Y-98744726D01*
X127961352Y-98675690D01*
X127958127Y-98673535D01*
X127839744Y-98624499D01*
X127839738Y-98624497D01*
X127714071Y-98599500D01*
X127714069Y-98599500D01*
X123697244Y-98599500D01*
X123630205Y-98579815D01*
X123584450Y-98527011D01*
X123573954Y-98462247D01*
X123575500Y-98447873D01*
X123575499Y-98052128D01*
X123569091Y-97992517D01*
X123553419Y-97950499D01*
X123518797Y-97857671D01*
X123518793Y-97857664D01*
X123432547Y-97742455D01*
X123432544Y-97742452D01*
X123317335Y-97656206D01*
X123317328Y-97656202D01*
X123223374Y-97621160D01*
X123179026Y-97592659D01*
X122928549Y-97342181D01*
X122895064Y-97280858D01*
X122900048Y-97211166D01*
X122941920Y-97155233D01*
X123007384Y-97130816D01*
X123016230Y-97130500D01*
X124050500Y-97130500D01*
X124117539Y-97150185D01*
G37*
%TD.AperFunction*%
%TA.AperFunction,Conductor*%
G36*
X121359809Y-97900185D02*
G01*
X121380451Y-97916819D01*
X121738181Y-98274549D01*
X121771666Y-98335872D01*
X121774500Y-98362229D01*
X121774500Y-98447867D01*
X121774501Y-98447881D01*
X121778931Y-98489093D01*
X121778931Y-98515596D01*
X121775000Y-98552165D01*
X121775000Y-98600000D01*
X121790611Y-98615611D01*
X121804484Y-98619685D01*
X121836713Y-98649690D01*
X121856176Y-98675690D01*
X121880592Y-98741155D01*
X121865740Y-98809428D01*
X121856176Y-98824310D01*
X121836713Y-98850310D01*
X121788890Y-98886109D01*
X121775000Y-98900000D01*
X121775000Y-98947832D01*
X121778931Y-98984399D01*
X121778931Y-99010905D01*
X121774500Y-99052122D01*
X121774500Y-99447869D01*
X121774501Y-99447878D01*
X121778679Y-99486745D01*
X121778679Y-99513251D01*
X121774500Y-99552123D01*
X121774500Y-99632226D01*
X121754815Y-99699265D01*
X121719391Y-99735328D01*
X121705331Y-99744722D01*
X121705327Y-99744725D01*
X121314726Y-100135326D01*
X121243534Y-100241874D01*
X121237895Y-100255487D01*
X121194051Y-100309888D01*
X121127755Y-100331949D01*
X121060057Y-100314666D01*
X121035655Y-100295709D01*
X120684577Y-99944631D01*
X120651092Y-99883308D01*
X120648640Y-99866676D01*
X120647643Y-99854004D01*
X120646505Y-99847774D01*
X120648615Y-99847388D01*
X120648776Y-99787395D01*
X120679974Y-99734970D01*
X120932776Y-99482170D01*
X121003965Y-99375627D01*
X121053001Y-99257244D01*
X121067186Y-99185931D01*
X121078000Y-99131569D01*
X121078000Y-99080934D01*
X121084294Y-99041930D01*
X121088161Y-99030261D01*
X121130436Y-98902685D01*
X121140500Y-98804174D01*
X121140500Y-98004500D01*
X121160185Y-97937461D01*
X121212989Y-97891706D01*
X121264500Y-97880500D01*
X121292770Y-97880500D01*
X121359809Y-97900185D01*
G37*
%TD.AperFunction*%
%TA.AperFunction,Conductor*%
G36*
X138814510Y-96011494D02*
G01*
X138881466Y-96031453D01*
X138927004Y-96084443D01*
X138938000Y-96135493D01*
X138938000Y-99857608D01*
X138918315Y-99924647D01*
X138865511Y-99970402D01*
X138796353Y-99980346D01*
X138766550Y-99972170D01*
X138750487Y-99965517D01*
X138696083Y-99921678D01*
X138674647Y-99864211D01*
X138671319Y-99833245D01*
X138671320Y-99806745D01*
X138675500Y-99767873D01*
X138675499Y-99372128D01*
X138675499Y-99372127D01*
X138675498Y-99372111D01*
X138671320Y-99333253D01*
X138671320Y-99306745D01*
X138675500Y-99267873D01*
X138675499Y-98872128D01*
X138675499Y-98872127D01*
X138675498Y-98872111D01*
X138671320Y-98833253D01*
X138671320Y-98806745D01*
X138675500Y-98767873D01*
X138675499Y-98372128D01*
X138675499Y-98372127D01*
X138675498Y-98372111D01*
X138671320Y-98333253D01*
X138671320Y-98306745D01*
X138675500Y-98267873D01*
X138675499Y-97872128D01*
X138671067Y-97830898D01*
X138671068Y-97804393D01*
X138674999Y-97767833D01*
X138675000Y-97767819D01*
X138675000Y-97720000D01*
X138659388Y-97704388D01*
X138645516Y-97700315D01*
X138613291Y-97670314D01*
X138593826Y-97644314D01*
X138569406Y-97578851D01*
X138584255Y-97510578D01*
X138593826Y-97495686D01*
X138613291Y-97469686D01*
X138661105Y-97433894D01*
X138675000Y-97420000D01*
X138675000Y-97372182D01*
X138674999Y-97372164D01*
X138671068Y-97335602D01*
X138671068Y-97309093D01*
X138675500Y-97267873D01*
X138675499Y-96872128D01*
X138669091Y-96812517D01*
X138618796Y-96677669D01*
X138618795Y-96677668D01*
X138618793Y-96677664D01*
X138532547Y-96562455D01*
X138532544Y-96562452D01*
X138417334Y-96476205D01*
X138417331Y-96476203D01*
X138323374Y-96441159D01*
X138279027Y-96412659D01*
X138086927Y-96220559D01*
X138053442Y-96159236D01*
X138058426Y-96089544D01*
X138100298Y-96033611D01*
X138165762Y-96009194D01*
X138175096Y-96008879D01*
X138814510Y-96011494D01*
G37*
%TD.AperFunction*%
%TA.AperFunction,Conductor*%
G36*
X121484171Y-95940611D02*
G01*
X121551126Y-95960569D01*
X121596664Y-96013559D01*
X121606325Y-96082758D01*
X121577040Y-96146194D01*
X121571341Y-96152290D01*
X121380451Y-96343181D01*
X121319128Y-96376666D01*
X121292770Y-96379500D01*
X119016080Y-96379500D01*
X118871092Y-96408340D01*
X118871082Y-96408343D01*
X118734511Y-96464912D01*
X118734498Y-96464919D01*
X118611584Y-96547048D01*
X118611580Y-96547051D01*
X117920451Y-97238181D01*
X117859128Y-97271666D01*
X117832770Y-97274500D01*
X117830113Y-97274500D01*
X117763074Y-97254815D01*
X117717319Y-97202011D01*
X117715552Y-97197952D01*
X117696468Y-97151879D01*
X117696463Y-97151870D01*
X117695337Y-97150185D01*
X117682184Y-97130500D01*
X117625277Y-97045331D01*
X117625275Y-97045329D01*
X117625273Y-97045326D01*
X117234673Y-96654726D01*
X117234669Y-96654723D01*
X117128127Y-96583535D01*
X117077228Y-96562452D01*
X117009744Y-96534499D01*
X117009738Y-96534497D01*
X116884071Y-96509500D01*
X116884069Y-96509500D01*
X114870169Y-96509500D01*
X114803130Y-96489815D01*
X114757375Y-96437011D01*
X114753987Y-96428833D01*
X114746344Y-96408342D01*
X114708796Y-96307669D01*
X114708795Y-96307668D01*
X114708793Y-96307664D01*
X114622547Y-96192455D01*
X114546876Y-96135807D01*
X114505006Y-96079873D01*
X114500022Y-96010181D01*
X114533508Y-95948859D01*
X114594831Y-95915374D01*
X114621687Y-95912542D01*
X121484171Y-95940611D01*
G37*
%TD.AperFunction*%
%TD*%
M02*
