%TF.GenerationSoftware,KiCad,Pcbnew,8.0.6*%
%TF.CreationDate,2024-11-15T14:11:31+01:00*%
%TF.ProjectId,PA3194G822_R05,50413331-3934-4473-9832-325f5230352e,3*%
%TF.SameCoordinates,Original*%
%TF.FileFunction,Legend,Bot*%
%TF.FilePolarity,Positive*%
%FSLAX46Y46*%
G04 Gerber Fmt 4.6, Leading zero omitted, Abs format (unit mm)*
G04 Created by KiCad (PCBNEW 8.0.6) date 2024-11-15 14:11:31*
%MOMM*%
%LPD*%
G01*
G04 APERTURE LIST*
%ADD10C,0.100000*%
G04 APERTURE END LIST*
D10*
X105200000Y-86600000D02*
X135500000Y-86600000D01*
X135500000Y-113400000D01*
X105200000Y-113400000D01*
X105200000Y-86600000D01*
X120192475Y-96134285D02*
X119192475Y-96134285D01*
X119192475Y-96134285D02*
X119192475Y-96515237D01*
X119192475Y-96515237D02*
X119240094Y-96610475D01*
X119240094Y-96610475D02*
X119287713Y-96658094D01*
X119287713Y-96658094D02*
X119382951Y-96705713D01*
X119382951Y-96705713D02*
X119525808Y-96705713D01*
X119525808Y-96705713D02*
X119621046Y-96658094D01*
X119621046Y-96658094D02*
X119668665Y-96610475D01*
X119668665Y-96610475D02*
X119716284Y-96515237D01*
X119716284Y-96515237D02*
X119716284Y-96134285D01*
X120192475Y-97277142D02*
X120144856Y-97181904D01*
X120144856Y-97181904D02*
X120049617Y-97134285D01*
X120049617Y-97134285D02*
X119192475Y-97134285D01*
X120192475Y-98086666D02*
X119668665Y-98086666D01*
X119668665Y-98086666D02*
X119573427Y-98039047D01*
X119573427Y-98039047D02*
X119525808Y-97943809D01*
X119525808Y-97943809D02*
X119525808Y-97753333D01*
X119525808Y-97753333D02*
X119573427Y-97658095D01*
X120144856Y-98086666D02*
X120192475Y-97991428D01*
X120192475Y-97991428D02*
X120192475Y-97753333D01*
X120192475Y-97753333D02*
X120144856Y-97658095D01*
X120144856Y-97658095D02*
X120049617Y-97610476D01*
X120049617Y-97610476D02*
X119954379Y-97610476D01*
X119954379Y-97610476D02*
X119859141Y-97658095D01*
X119859141Y-97658095D02*
X119811522Y-97753333D01*
X119811522Y-97753333D02*
X119811522Y-97991428D01*
X119811522Y-97991428D02*
X119763903Y-98086666D01*
X120144856Y-98991428D02*
X120192475Y-98896190D01*
X120192475Y-98896190D02*
X120192475Y-98705714D01*
X120192475Y-98705714D02*
X120144856Y-98610476D01*
X120144856Y-98610476D02*
X120097236Y-98562857D01*
X120097236Y-98562857D02*
X120001998Y-98515238D01*
X120001998Y-98515238D02*
X119716284Y-98515238D01*
X119716284Y-98515238D02*
X119621046Y-98562857D01*
X119621046Y-98562857D02*
X119573427Y-98610476D01*
X119573427Y-98610476D02*
X119525808Y-98705714D01*
X119525808Y-98705714D02*
X119525808Y-98896190D01*
X119525808Y-98896190D02*
X119573427Y-98991428D01*
X120144856Y-99800952D02*
X120192475Y-99705714D01*
X120192475Y-99705714D02*
X120192475Y-99515238D01*
X120192475Y-99515238D02*
X120144856Y-99420000D01*
X120144856Y-99420000D02*
X120049617Y-99372381D01*
X120049617Y-99372381D02*
X119668665Y-99372381D01*
X119668665Y-99372381D02*
X119573427Y-99420000D01*
X119573427Y-99420000D02*
X119525808Y-99515238D01*
X119525808Y-99515238D02*
X119525808Y-99705714D01*
X119525808Y-99705714D02*
X119573427Y-99800952D01*
X119573427Y-99800952D02*
X119668665Y-99848571D01*
X119668665Y-99848571D02*
X119763903Y-99848571D01*
X119763903Y-99848571D02*
X119859141Y-99372381D01*
X120192475Y-101515238D02*
X120192475Y-101039048D01*
X120192475Y-101039048D02*
X119192475Y-101039048D01*
X120097236Y-102420000D02*
X120144856Y-102372381D01*
X120144856Y-102372381D02*
X120192475Y-102229524D01*
X120192475Y-102229524D02*
X120192475Y-102134286D01*
X120192475Y-102134286D02*
X120144856Y-101991429D01*
X120144856Y-101991429D02*
X120049617Y-101896191D01*
X120049617Y-101896191D02*
X119954379Y-101848572D01*
X119954379Y-101848572D02*
X119763903Y-101800953D01*
X119763903Y-101800953D02*
X119621046Y-101800953D01*
X119621046Y-101800953D02*
X119430570Y-101848572D01*
X119430570Y-101848572D02*
X119335332Y-101896191D01*
X119335332Y-101896191D02*
X119240094Y-101991429D01*
X119240094Y-101991429D02*
X119192475Y-102134286D01*
X119192475Y-102134286D02*
X119192475Y-102229524D01*
X119192475Y-102229524D02*
X119240094Y-102372381D01*
X119240094Y-102372381D02*
X119287713Y-102420000D01*
X120192475Y-102848572D02*
X119192475Y-102848572D01*
X119192475Y-102848572D02*
X119192475Y-103086667D01*
X119192475Y-103086667D02*
X119240094Y-103229524D01*
X119240094Y-103229524D02*
X119335332Y-103324762D01*
X119335332Y-103324762D02*
X119430570Y-103372381D01*
X119430570Y-103372381D02*
X119621046Y-103420000D01*
X119621046Y-103420000D02*
X119763903Y-103420000D01*
X119763903Y-103420000D02*
X119954379Y-103372381D01*
X119954379Y-103372381D02*
X120049617Y-103324762D01*
X120049617Y-103324762D02*
X120144856Y-103229524D01*
X120144856Y-103229524D02*
X120192475Y-103086667D01*
X120192475Y-103086667D02*
X120192475Y-102848572D01*
X120192475Y-104753334D02*
X120144856Y-104658096D01*
X120144856Y-104658096D02*
X120097236Y-104610477D01*
X120097236Y-104610477D02*
X120001998Y-104562858D01*
X120001998Y-104562858D02*
X119716284Y-104562858D01*
X119716284Y-104562858D02*
X119621046Y-104610477D01*
X119621046Y-104610477D02*
X119573427Y-104658096D01*
X119573427Y-104658096D02*
X119525808Y-104753334D01*
X119525808Y-104753334D02*
X119525808Y-104896191D01*
X119525808Y-104896191D02*
X119573427Y-104991429D01*
X119573427Y-104991429D02*
X119621046Y-105039048D01*
X119621046Y-105039048D02*
X119716284Y-105086667D01*
X119716284Y-105086667D02*
X120001998Y-105086667D01*
X120001998Y-105086667D02*
X120097236Y-105039048D01*
X120097236Y-105039048D02*
X120144856Y-104991429D01*
X120144856Y-104991429D02*
X120192475Y-104896191D01*
X120192475Y-104896191D02*
X120192475Y-104753334D01*
X119525808Y-105515239D02*
X120192475Y-105515239D01*
X119621046Y-105515239D02*
X119573427Y-105562858D01*
X119573427Y-105562858D02*
X119525808Y-105658096D01*
X119525808Y-105658096D02*
X119525808Y-105800953D01*
X119525808Y-105800953D02*
X119573427Y-105896191D01*
X119573427Y-105896191D02*
X119668665Y-105943810D01*
X119668665Y-105943810D02*
X120192475Y-105943810D01*
X121135752Y-98229524D02*
X121135752Y-98610476D01*
X120802419Y-98372381D02*
X121659561Y-98372381D01*
X121659561Y-98372381D02*
X121754800Y-98420000D01*
X121754800Y-98420000D02*
X121802419Y-98515238D01*
X121802419Y-98515238D02*
X121802419Y-98610476D01*
X121802419Y-98943810D02*
X120802419Y-98943810D01*
X121802419Y-99372381D02*
X121278609Y-99372381D01*
X121278609Y-99372381D02*
X121183371Y-99324762D01*
X121183371Y-99324762D02*
X121135752Y-99229524D01*
X121135752Y-99229524D02*
X121135752Y-99086667D01*
X121135752Y-99086667D02*
X121183371Y-98991429D01*
X121183371Y-98991429D02*
X121230990Y-98943810D01*
X121802419Y-99848572D02*
X121135752Y-99848572D01*
X120802419Y-99848572D02*
X120850038Y-99800953D01*
X120850038Y-99800953D02*
X120897657Y-99848572D01*
X120897657Y-99848572D02*
X120850038Y-99896191D01*
X120850038Y-99896191D02*
X120802419Y-99848572D01*
X120802419Y-99848572D02*
X120897657Y-99848572D01*
X121754800Y-100277143D02*
X121802419Y-100372381D01*
X121802419Y-100372381D02*
X121802419Y-100562857D01*
X121802419Y-100562857D02*
X121754800Y-100658095D01*
X121754800Y-100658095D02*
X121659561Y-100705714D01*
X121659561Y-100705714D02*
X121611942Y-100705714D01*
X121611942Y-100705714D02*
X121516704Y-100658095D01*
X121516704Y-100658095D02*
X121469085Y-100562857D01*
X121469085Y-100562857D02*
X121469085Y-100420000D01*
X121469085Y-100420000D02*
X121421466Y-100324762D01*
X121421466Y-100324762D02*
X121326228Y-100277143D01*
X121326228Y-100277143D02*
X121278609Y-100277143D01*
X121278609Y-100277143D02*
X121183371Y-100324762D01*
X121183371Y-100324762D02*
X121135752Y-100420000D01*
X121135752Y-100420000D02*
X121135752Y-100562857D01*
X121135752Y-100562857D02*
X121183371Y-100658095D01*
X121754800Y-101848572D02*
X121802419Y-101943810D01*
X121802419Y-101943810D02*
X121802419Y-102134286D01*
X121802419Y-102134286D02*
X121754800Y-102229524D01*
X121754800Y-102229524D02*
X121659561Y-102277143D01*
X121659561Y-102277143D02*
X121611942Y-102277143D01*
X121611942Y-102277143D02*
X121516704Y-102229524D01*
X121516704Y-102229524D02*
X121469085Y-102134286D01*
X121469085Y-102134286D02*
X121469085Y-101991429D01*
X121469085Y-101991429D02*
X121421466Y-101896191D01*
X121421466Y-101896191D02*
X121326228Y-101848572D01*
X121326228Y-101848572D02*
X121278609Y-101848572D01*
X121278609Y-101848572D02*
X121183371Y-101896191D01*
X121183371Y-101896191D02*
X121135752Y-101991429D01*
X121135752Y-101991429D02*
X121135752Y-102134286D01*
X121135752Y-102134286D02*
X121183371Y-102229524D01*
X121802419Y-102705715D02*
X121135752Y-102705715D01*
X120802419Y-102705715D02*
X120850038Y-102658096D01*
X120850038Y-102658096D02*
X120897657Y-102705715D01*
X120897657Y-102705715D02*
X120850038Y-102753334D01*
X120850038Y-102753334D02*
X120802419Y-102705715D01*
X120802419Y-102705715D02*
X120897657Y-102705715D01*
X121802419Y-103610476D02*
X120802419Y-103610476D01*
X121754800Y-103610476D02*
X121802419Y-103515238D01*
X121802419Y-103515238D02*
X121802419Y-103324762D01*
X121802419Y-103324762D02*
X121754800Y-103229524D01*
X121754800Y-103229524D02*
X121707180Y-103181905D01*
X121707180Y-103181905D02*
X121611942Y-103134286D01*
X121611942Y-103134286D02*
X121326228Y-103134286D01*
X121326228Y-103134286D02*
X121230990Y-103181905D01*
X121230990Y-103181905D02*
X121183371Y-103229524D01*
X121183371Y-103229524D02*
X121135752Y-103324762D01*
X121135752Y-103324762D02*
X121135752Y-103515238D01*
X121135752Y-103515238D02*
X121183371Y-103610476D01*
X121754800Y-104467619D02*
X121802419Y-104372381D01*
X121802419Y-104372381D02*
X121802419Y-104181905D01*
X121802419Y-104181905D02*
X121754800Y-104086667D01*
X121754800Y-104086667D02*
X121659561Y-104039048D01*
X121659561Y-104039048D02*
X121278609Y-104039048D01*
X121278609Y-104039048D02*
X121183371Y-104086667D01*
X121183371Y-104086667D02*
X121135752Y-104181905D01*
X121135752Y-104181905D02*
X121135752Y-104372381D01*
X121135752Y-104372381D02*
X121183371Y-104467619D01*
X121183371Y-104467619D02*
X121278609Y-104515238D01*
X121278609Y-104515238D02*
X121373847Y-104515238D01*
X121373847Y-104515238D02*
X121469085Y-104039048D01*
M02*
