%TF.GenerationSoftware,KiCad,Pcbnew,8.0.4*%
%TF.CreationDate,2024-07-27T12:09:47+02:00*%
%TF.ProjectId,PA3194G822_R03,50413331-3934-4473-9832-325f5230332e,3*%
%TF.SameCoordinates,Original*%
%TF.FileFunction,Copper,L2,Bot*%
%TF.FilePolarity,Positive*%
%FSLAX46Y46*%
G04 Gerber Fmt 4.6, Leading zero omitted, Abs format (unit mm)*
G04 Created by KiCad (PCBNEW 8.0.4) date 2024-07-27 12:09:47*
%MOMM*%
%LPD*%
G01*
G04 APERTURE LIST*
%TA.AperFunction,ViaPad*%
%ADD10C,0.600000*%
%TD*%
%TA.AperFunction,ViaPad*%
%ADD11C,0.550000*%
%TD*%
%TA.AperFunction,Conductor*%
%ADD12C,0.300000*%
%TD*%
G04 APERTURE END LIST*
D10*
%TO.N,GND*%
X119015000Y-99580000D03*
X123060000Y-97340000D03*
X115290000Y-99420000D03*
D11*
X121520000Y-100000000D03*
D10*
X123080000Y-102480000D03*
X124250000Y-96440000D03*
X117580000Y-102890000D03*
D11*
X120910000Y-100000000D03*
D10*
X115560000Y-101490000D03*
X124540000Y-103570000D03*
D11*
%TO.N,/VDD*%
X121475000Y-98875000D03*
X121540000Y-100980000D03*
D10*
%TO.N,/SPI_CS*%
X122300000Y-98150000D03*
X122275000Y-101700000D03*
%TO.N,/SPI_SDI*%
X124150000Y-97575000D03*
X124175000Y-102250000D03*
D11*
%TO.N,/SPI_CLK*%
X125180000Y-97120000D03*
X125180000Y-102790000D03*
%TD*%
D12*
%TO.N,/VDD*%
X122170000Y-100350000D02*
X122170000Y-99570000D01*
X121540000Y-100980000D02*
X122170000Y-100350000D01*
X122170000Y-99570000D02*
X121475000Y-98875000D01*
%TO.N,/SPI_CS*%
X123230000Y-100745000D02*
X122275000Y-101700000D01*
X122300000Y-98150000D02*
X123230000Y-99080000D01*
X123230000Y-99080000D02*
X123230000Y-100745000D01*
%TO.N,/SPI_SDI*%
X124175000Y-102250000D02*
X124175000Y-97600000D01*
X124150000Y-102225000D02*
X124175000Y-102250000D01*
X124175000Y-97600000D02*
X124150000Y-97575000D01*
%TO.N,/SPI_CLK*%
X125180000Y-97120000D02*
X125180000Y-102790000D01*
%TD*%
%TA.AperFunction,Conductor*%
%TO.N,GND*%
G36*
X123013882Y-87002064D02*
G01*
X123083282Y-87009884D01*
X123137622Y-87022287D01*
X123190248Y-87040701D01*
X123240480Y-87064892D01*
X123287674Y-87094546D01*
X123331268Y-87129310D01*
X123370689Y-87168731D01*
X123405453Y-87212325D01*
X123435107Y-87259519D01*
X123459300Y-87309756D01*
X123477710Y-87362369D01*
X123490117Y-87416727D01*
X123492075Y-87434108D01*
X123497934Y-87486100D01*
X123499500Y-87513981D01*
X123499500Y-92684108D01*
X123499500Y-92750000D01*
X123499500Y-92901252D01*
X123524435Y-93106614D01*
X123535962Y-93201546D01*
X123608357Y-93495267D01*
X123715624Y-93778107D01*
X123715632Y-93778124D01*
X123856200Y-94045954D01*
X123856211Y-94045972D01*
X123986161Y-94234237D01*
X124028050Y-94294924D01*
X124228648Y-94521352D01*
X124455076Y-94721950D01*
X124455085Y-94721956D01*
X124684609Y-94880385D01*
X124704033Y-94893792D01*
X124704036Y-94893794D01*
X124704045Y-94893799D01*
X124971875Y-95034367D01*
X124971880Y-95034369D01*
X124971887Y-95034373D01*
X125254734Y-95141643D01*
X125548449Y-95214037D01*
X125848748Y-95250500D01*
X125934108Y-95250500D01*
X132352948Y-95250500D01*
X132448236Y-95269454D01*
X132529018Y-95323430D01*
X132582994Y-95404212D01*
X132594712Y-95439909D01*
X132608356Y-95495263D01*
X132715624Y-95778107D01*
X132715632Y-95778124D01*
X132856200Y-96045954D01*
X132856211Y-96045972D01*
X133014791Y-96275715D01*
X133028050Y-96294924D01*
X133228648Y-96521352D01*
X133455076Y-96721950D01*
X133519466Y-96766395D01*
X133684609Y-96880385D01*
X133704033Y-96893792D01*
X133704036Y-96893794D01*
X133704045Y-96893799D01*
X133971875Y-97034367D01*
X133971880Y-97034369D01*
X133971887Y-97034373D01*
X134254734Y-97141643D01*
X134548449Y-97214037D01*
X134848748Y-97250500D01*
X134848754Y-97250500D01*
X135151246Y-97250500D01*
X135151252Y-97250500D01*
X135451551Y-97214037D01*
X135745266Y-97141643D01*
X136028113Y-97034373D01*
X136230542Y-96928130D01*
X136295954Y-96893799D01*
X136295956Y-96893797D01*
X136295967Y-96893792D01*
X136544924Y-96721950D01*
X136771352Y-96521352D01*
X136971950Y-96294924D01*
X137143792Y-96045967D01*
X137284373Y-95778113D01*
X137391643Y-95495266D01*
X137398131Y-95468940D01*
X137405288Y-95439909D01*
X137446496Y-95351926D01*
X137518236Y-95286410D01*
X137609588Y-95253335D01*
X137647052Y-95250500D01*
X137750500Y-95250500D01*
X137845788Y-95269454D01*
X137926570Y-95323430D01*
X137980546Y-95404212D01*
X137999500Y-95499500D01*
X137999500Y-95684108D01*
X137999500Y-95750000D01*
X137999500Y-95857318D01*
X138030046Y-96069769D01*
X138090516Y-96275710D01*
X138090517Y-96275713D01*
X138090518Y-96275715D01*
X138090519Y-96275718D01*
X138179677Y-96470946D01*
X138179684Y-96470959D01*
X138213200Y-96523110D01*
X138295719Y-96651513D01*
X138436276Y-96813724D01*
X138598487Y-96954281D01*
X138723117Y-97034375D01*
X138779040Y-97070315D01*
X138779044Y-97070317D01*
X138779050Y-97070321D01*
X138974290Y-97159484D01*
X139180231Y-97219954D01*
X139392682Y-97250500D01*
X139434108Y-97250500D01*
X145250500Y-97250500D01*
X145345788Y-97269454D01*
X145426570Y-97323430D01*
X145480546Y-97404212D01*
X145499500Y-97499500D01*
X145499500Y-102500500D01*
X145480546Y-102595788D01*
X145426570Y-102676570D01*
X145345788Y-102730546D01*
X145250500Y-102749500D01*
X139565892Y-102749500D01*
X139500000Y-102749500D01*
X139392682Y-102749500D01*
X139180231Y-102780046D01*
X138974290Y-102840516D01*
X138974288Y-102840516D01*
X138974284Y-102840518D01*
X138974281Y-102840519D01*
X138779053Y-102929677D01*
X138779040Y-102929684D01*
X138658251Y-103007311D01*
X138598487Y-103045719D01*
X138581697Y-103060268D01*
X138436281Y-103186271D01*
X138436271Y-103186281D01*
X138358031Y-103276575D01*
X138295719Y-103348487D01*
X138295714Y-103348495D01*
X138179684Y-103529040D01*
X138179677Y-103529053D01*
X138090519Y-103724281D01*
X138090518Y-103724284D01*
X138090516Y-103724288D01*
X138090516Y-103724290D01*
X138030046Y-103930231D01*
X138000526Y-104135552D01*
X137999500Y-104142685D01*
X137999500Y-104500500D01*
X137980546Y-104595788D01*
X137926570Y-104676570D01*
X137845788Y-104730546D01*
X137750500Y-104749500D01*
X137647052Y-104749500D01*
X137551764Y-104730546D01*
X137470982Y-104676570D01*
X137417006Y-104595788D01*
X137405288Y-104560091D01*
X137391643Y-104504736D01*
X137391643Y-104504734D01*
X137284373Y-104221887D01*
X137284367Y-104221875D01*
X137143799Y-103954045D01*
X137143788Y-103954027D01*
X137053962Y-103823891D01*
X136971950Y-103705076D01*
X136771352Y-103478648D01*
X136544924Y-103278050D01*
X136542747Y-103276547D01*
X136295972Y-103106211D01*
X136295954Y-103106200D01*
X136028124Y-102965632D01*
X136028107Y-102965624D01*
X135745267Y-102858357D01*
X135594084Y-102821094D01*
X135451551Y-102785963D01*
X135451549Y-102785962D01*
X135451547Y-102785962D01*
X135327277Y-102770873D01*
X135151252Y-102749500D01*
X134848748Y-102749500D01*
X134672722Y-102770873D01*
X134548453Y-102785962D01*
X134254732Y-102858357D01*
X133971892Y-102965624D01*
X133971875Y-102965632D01*
X133704045Y-103106200D01*
X133704027Y-103106211D01*
X133455085Y-103278043D01*
X133455072Y-103278053D01*
X133228653Y-103478643D01*
X133228643Y-103478653D01*
X133028053Y-103705072D01*
X133028043Y-103705085D01*
X132856211Y-103954027D01*
X132856200Y-103954045D01*
X132715632Y-104221875D01*
X132715624Y-104221892D01*
X132608356Y-104504736D01*
X132594712Y-104560091D01*
X132553504Y-104648074D01*
X132481764Y-104713590D01*
X132390412Y-104746665D01*
X132352948Y-104749500D01*
X126065892Y-104749500D01*
X126000000Y-104749500D01*
X125848748Y-104749500D01*
X125672722Y-104770873D01*
X125548453Y-104785962D01*
X125254732Y-104858357D01*
X124971892Y-104965624D01*
X124971875Y-104965632D01*
X124704045Y-105106200D01*
X124704027Y-105106211D01*
X124455085Y-105278043D01*
X124455072Y-105278053D01*
X124228653Y-105478643D01*
X124228643Y-105478653D01*
X124028053Y-105705072D01*
X124028043Y-105705085D01*
X123856211Y-105954027D01*
X123856200Y-105954045D01*
X123715632Y-106221875D01*
X123715624Y-106221892D01*
X123608357Y-106504732D01*
X123535962Y-106798453D01*
X123532430Y-106827542D01*
X123499500Y-107098748D01*
X123499500Y-107098754D01*
X123499500Y-112486018D01*
X123497934Y-112513899D01*
X123490117Y-112583272D01*
X123477710Y-112637630D01*
X123459300Y-112690243D01*
X123435107Y-112740480D01*
X123405453Y-112787674D01*
X123370689Y-112831268D01*
X123331268Y-112870689D01*
X123287674Y-112905453D01*
X123240480Y-112935107D01*
X123190243Y-112959300D01*
X123137630Y-112977710D01*
X123083272Y-112990117D01*
X123047446Y-112994153D01*
X123013897Y-112997934D01*
X122986018Y-112999500D01*
X105013982Y-112999500D01*
X104986102Y-112997934D01*
X104916727Y-112990117D01*
X104862371Y-112977710D01*
X104809755Y-112959299D01*
X104759519Y-112935107D01*
X104712325Y-112905453D01*
X104668731Y-112870689D01*
X104629310Y-112831268D01*
X104594546Y-112787674D01*
X104564892Y-112740480D01*
X104540701Y-112690248D01*
X104522287Y-112637622D01*
X104509884Y-112583282D01*
X104502064Y-112513882D01*
X104500500Y-112486018D01*
X104500500Y-111752558D01*
X105498500Y-111752558D01*
X105498500Y-112001500D01*
X106627968Y-112001500D01*
X108785093Y-112001500D01*
X110163502Y-112001500D01*
X112320627Y-112001500D01*
X113699036Y-112001500D01*
X115856161Y-112001500D01*
X117234570Y-112001500D01*
X119391694Y-112001500D01*
X120770104Y-112001500D01*
X120080899Y-111312295D01*
X119391694Y-112001500D01*
X117234570Y-112001500D01*
X116545365Y-111312295D01*
X115856161Y-112001500D01*
X113699036Y-112001500D01*
X113009831Y-111312295D01*
X112320627Y-112001500D01*
X110163502Y-112001500D01*
X109474297Y-111312295D01*
X108785093Y-112001500D01*
X106627968Y-112001500D01*
X105938763Y-111312295D01*
X105498500Y-111752558D01*
X104500500Y-111752558D01*
X104500500Y-110606601D01*
X106644456Y-110606601D01*
X107706530Y-111668675D01*
X108768603Y-110606601D01*
X110179990Y-110606601D01*
X111242064Y-111668675D01*
X112304137Y-110606601D01*
X113715524Y-110606601D01*
X114777598Y-111668675D01*
X115839671Y-110606601D01*
X117251058Y-110606601D01*
X118313132Y-111668675D01*
X119375205Y-110606601D01*
X120786592Y-110606601D01*
X121848665Y-111668675D01*
X122501500Y-111015841D01*
X122501500Y-110197362D01*
X121848666Y-109544528D01*
X120786592Y-110606601D01*
X119375205Y-110606601D01*
X118313132Y-109544528D01*
X117251058Y-110606601D01*
X115839671Y-110606601D01*
X114777598Y-109544528D01*
X113715524Y-110606601D01*
X112304137Y-110606601D01*
X111242064Y-109544528D01*
X110179990Y-110606601D01*
X108768603Y-110606601D01*
X107706530Y-109544528D01*
X106644456Y-110606601D01*
X104500500Y-110606601D01*
X104500500Y-108217024D01*
X105498500Y-108217024D01*
X105498500Y-109460645D01*
X105938763Y-109900908D01*
X107000836Y-108838834D01*
X108412223Y-108838834D01*
X109474297Y-109900908D01*
X110536370Y-108838834D01*
X111947757Y-108838834D01*
X113009831Y-109900908D01*
X114071904Y-108838834D01*
X115483291Y-108838834D01*
X116545365Y-109900908D01*
X117607438Y-108838834D01*
X119018825Y-108838834D01*
X120080899Y-109900908D01*
X121142972Y-108838834D01*
X120080899Y-107776761D01*
X119018825Y-108838834D01*
X117607438Y-108838834D01*
X116545365Y-107776761D01*
X115483291Y-108838834D01*
X114071904Y-108838834D01*
X113009831Y-107776761D01*
X111947757Y-108838834D01*
X110536370Y-108838834D01*
X109474297Y-107776761D01*
X108412223Y-108838834D01*
X107000836Y-108838834D01*
X105938763Y-107776761D01*
X105498500Y-108217024D01*
X104500500Y-108217024D01*
X104500500Y-107071067D01*
X106644456Y-107071067D01*
X107706530Y-108133141D01*
X108768603Y-107071067D01*
X110179990Y-107071067D01*
X111242064Y-108133141D01*
X112304137Y-107071067D01*
X113715524Y-107071067D01*
X114777598Y-108133141D01*
X115839671Y-107071067D01*
X117251058Y-107071067D01*
X118313132Y-108133141D01*
X119375205Y-107071067D01*
X120786592Y-107071067D01*
X121848665Y-108133141D01*
X122501500Y-107480307D01*
X122501500Y-107083668D01*
X122501614Y-107076137D01*
X122502071Y-107061033D01*
X122502411Y-107053527D01*
X122504232Y-107023428D01*
X122504801Y-107015919D01*
X122506168Y-107000884D01*
X122506960Y-106993418D01*
X122542270Y-106702598D01*
X121848666Y-106008994D01*
X120786592Y-107071067D01*
X119375205Y-107071067D01*
X118313132Y-106008994D01*
X117251058Y-107071067D01*
X115839671Y-107071067D01*
X114777598Y-106008994D01*
X113715524Y-107071067D01*
X112304137Y-107071067D01*
X111242064Y-106008994D01*
X110179990Y-107071067D01*
X108768603Y-107071067D01*
X107706530Y-106008994D01*
X106644456Y-107071067D01*
X104500500Y-107071067D01*
X104500500Y-104681490D01*
X105498500Y-104681490D01*
X105498500Y-105925111D01*
X105938763Y-106365374D01*
X107000836Y-105303300D01*
X108412223Y-105303300D01*
X109474297Y-106365374D01*
X110536370Y-105303300D01*
X111947757Y-105303300D01*
X113009831Y-106365374D01*
X114071904Y-105303300D01*
X115483291Y-105303300D01*
X116545365Y-106365374D01*
X117607438Y-105303300D01*
X119018825Y-105303300D01*
X120080899Y-106365374D01*
X121142971Y-105303301D01*
X122554358Y-105303301D01*
X122892936Y-105641879D01*
X122979530Y-105476890D01*
X122983125Y-105470284D01*
X122990545Y-105457128D01*
X122994336Y-105450637D01*
X123009935Y-105424832D01*
X123013927Y-105418449D01*
X123022128Y-105405765D01*
X123026305Y-105399513D01*
X123215277Y-105125739D01*
X123219642Y-105119615D01*
X123228596Y-105107446D01*
X123233149Y-105101450D01*
X123251746Y-105077714D01*
X123256469Y-105071870D01*
X123266138Y-105060268D01*
X123271041Y-105054563D01*
X123491632Y-104805567D01*
X123496705Y-104800011D01*
X123507058Y-104789013D01*
X123512294Y-104783616D01*
X123533616Y-104762294D01*
X123539013Y-104757058D01*
X123550011Y-104746705D01*
X123555567Y-104741632D01*
X123653469Y-104654897D01*
X123518748Y-104532082D01*
X123487793Y-104498126D01*
X123432608Y-104425050D01*
X122554358Y-105303301D01*
X121142971Y-105303301D01*
X121142972Y-105303300D01*
X120080899Y-104241227D01*
X119018825Y-105303300D01*
X117607438Y-105303300D01*
X116545459Y-104241321D01*
X117956846Y-104241321D01*
X118313132Y-104597607D01*
X119375205Y-103535533D01*
X120786592Y-103535533D01*
X121848666Y-104597607D01*
X122637417Y-103808855D01*
X122475256Y-103746034D01*
X122434124Y-103725552D01*
X122252920Y-103613356D01*
X122216250Y-103585665D01*
X122113109Y-103491638D01*
X121956166Y-103473956D01*
X121942334Y-103472004D01*
X121914667Y-103467303D01*
X121900966Y-103464577D01*
X121846345Y-103452109D01*
X121832822Y-103448620D01*
X121805867Y-103440854D01*
X121792562Y-103436614D01*
X121569421Y-103358533D01*
X121556379Y-103353554D01*
X121530463Y-103342820D01*
X121517713Y-103337116D01*
X121467236Y-103312809D01*
X121454818Y-103306393D01*
X121430257Y-103292818D01*
X121418232Y-103285725D01*
X121218051Y-103159944D01*
X121206436Y-103152183D01*
X121185089Y-103137036D01*
X120786592Y-103535533D01*
X119375205Y-103535533D01*
X118963341Y-103123669D01*
X118963200Y-103125192D01*
X118954757Y-103170359D01*
X118896432Y-103375350D01*
X118879833Y-103418196D01*
X118784835Y-103608979D01*
X118760645Y-103648048D01*
X118632207Y-103818126D01*
X118601252Y-103852082D01*
X118443750Y-103995665D01*
X118407080Y-104023356D01*
X118225876Y-104135552D01*
X118184744Y-104156034D01*
X117986010Y-104233024D01*
X117956846Y-104241321D01*
X116545459Y-104241321D01*
X116545365Y-104241227D01*
X115483291Y-105303300D01*
X114071904Y-105303300D01*
X113009831Y-104241227D01*
X111947757Y-105303300D01*
X110536370Y-105303300D01*
X109474297Y-104241227D01*
X108412223Y-105303300D01*
X107000836Y-105303300D01*
X105938763Y-104241227D01*
X105498500Y-104681490D01*
X104500500Y-104681490D01*
X104500500Y-103535533D01*
X106644456Y-103535533D01*
X107706530Y-104597607D01*
X108768603Y-103535533D01*
X110179990Y-103535533D01*
X111242064Y-104597607D01*
X112304137Y-103535533D01*
X113715524Y-103535533D01*
X114777598Y-104597607D01*
X115839671Y-103535533D01*
X115126520Y-102822382D01*
X114955256Y-102756034D01*
X114914124Y-102735552D01*
X114732920Y-102623356D01*
X114696250Y-102595665D01*
X114674876Y-102576180D01*
X113715524Y-103535533D01*
X112304137Y-103535533D01*
X111242064Y-102473460D01*
X110179990Y-103535533D01*
X108768603Y-103535533D01*
X107706530Y-102473460D01*
X106644456Y-103535533D01*
X104500500Y-103535533D01*
X104500500Y-101145956D01*
X105498500Y-101145956D01*
X105498500Y-102389577D01*
X105938763Y-102829840D01*
X107000836Y-101767766D01*
X108412223Y-101767766D01*
X109474297Y-102829840D01*
X110536370Y-101767766D01*
X111947757Y-101767766D01*
X113009831Y-102829840D01*
X114071904Y-101767766D01*
X119018824Y-101767766D01*
X120080898Y-102829840D01*
X120493777Y-102416961D01*
X120487127Y-102412517D01*
X120464246Y-102396282D01*
X120453092Y-102387888D01*
X120409289Y-102352958D01*
X120398612Y-102343943D01*
X120377689Y-102325245D01*
X120367540Y-102315650D01*
X120204350Y-102152460D01*
X120194755Y-102142311D01*
X120176057Y-102121388D01*
X120167042Y-102110711D01*
X120132112Y-102066908D01*
X120123718Y-102055754D01*
X120107483Y-102032873D01*
X120099721Y-102021257D01*
X119976942Y-101825851D01*
X119969851Y-101813830D01*
X119956280Y-101789277D01*
X119949867Y-101776863D01*
X119925560Y-101726390D01*
X119919852Y-101713634D01*
X119909115Y-101687711D01*
X119904137Y-101674669D01*
X119827914Y-101456841D01*
X119823673Y-101443535D01*
X119815907Y-101416580D01*
X119812418Y-101403057D01*
X119799950Y-101348436D01*
X119797224Y-101334733D01*
X119792523Y-101307065D01*
X119790571Y-101293234D01*
X119764732Y-101063901D01*
X119763558Y-101049983D01*
X119762125Y-101024466D01*
X119018824Y-101767766D01*
X114071904Y-101767766D01*
X113353667Y-101049529D01*
X116889201Y-101049529D01*
X116934757Y-101209641D01*
X116943200Y-101254808D01*
X116962865Y-101467025D01*
X116962865Y-101512975D01*
X116951483Y-101635803D01*
X116975256Y-101623966D01*
X117173990Y-101546976D01*
X117218185Y-101534402D01*
X117349522Y-101509850D01*
X116889201Y-101049529D01*
X113353667Y-101049529D01*
X113009831Y-100705693D01*
X111947757Y-101767766D01*
X110536370Y-101767766D01*
X109474297Y-100705693D01*
X108412223Y-101767766D01*
X107000836Y-101767766D01*
X105938763Y-100705693D01*
X105498500Y-101145956D01*
X104500500Y-101145956D01*
X104500500Y-99999999D01*
X106644456Y-99999999D01*
X107706530Y-101062073D01*
X108768603Y-99999999D01*
X110179990Y-99999999D01*
X111242064Y-101062073D01*
X112304137Y-99999999D01*
X117251058Y-99999999D01*
X118313132Y-101062073D01*
X118495966Y-100879238D01*
X118410256Y-100846034D01*
X118369124Y-100825552D01*
X118187920Y-100713356D01*
X118151250Y-100685665D01*
X117993748Y-100542082D01*
X117962793Y-100508126D01*
X117834355Y-100338048D01*
X117810165Y-100298979D01*
X117715167Y-100108196D01*
X117698568Y-100065350D01*
X117640243Y-99860359D01*
X117631800Y-99815192D01*
X117615183Y-99635874D01*
X117251058Y-99999999D01*
X112304137Y-99999999D01*
X111242064Y-98937926D01*
X110179990Y-99999999D01*
X108768603Y-99999999D01*
X107706530Y-98937926D01*
X106644456Y-99999999D01*
X104500500Y-99999999D01*
X104500500Y-97610422D01*
X105498500Y-97610422D01*
X105498500Y-98854043D01*
X105938763Y-99294306D01*
X107000836Y-98232232D01*
X108412223Y-98232232D01*
X109474297Y-99294306D01*
X110536370Y-98232232D01*
X111947757Y-98232232D01*
X113009831Y-99294306D01*
X114071904Y-98232232D01*
X113903964Y-98064292D01*
X115651231Y-98064292D01*
X115651815Y-98064402D01*
X115696010Y-98076976D01*
X115894744Y-98153966D01*
X115935876Y-98174448D01*
X116117080Y-98286644D01*
X116153750Y-98314335D01*
X116311252Y-98457918D01*
X116342207Y-98491874D01*
X116470645Y-98661952D01*
X116494835Y-98701021D01*
X116589833Y-98891804D01*
X116606432Y-98934650D01*
X116664757Y-99139641D01*
X116670312Y-99169359D01*
X116964676Y-98874995D01*
X120694593Y-98874995D01*
X120694593Y-98875004D01*
X120714157Y-99048647D01*
X120714158Y-99048655D01*
X120714159Y-99048657D01*
X120771878Y-99213606D01*
X120864853Y-99361576D01*
X120988424Y-99485147D01*
X121136394Y-99578122D01*
X121270085Y-99624903D01*
X121353764Y-99674265D01*
X121363913Y-99683859D01*
X121446570Y-99766516D01*
X121500546Y-99847298D01*
X121519500Y-99942586D01*
X121519500Y-99977414D01*
X121500546Y-100072702D01*
X121446571Y-100153482D01*
X121435752Y-100164301D01*
X121428908Y-100171145D01*
X121348125Y-100225119D01*
X121335085Y-100230096D01*
X121201395Y-100276877D01*
X121053424Y-100369852D01*
X120929852Y-100493424D01*
X120836878Y-100641394D01*
X120779158Y-100806344D01*
X120779157Y-100806352D01*
X120759593Y-100979995D01*
X120759593Y-100980004D01*
X120779157Y-101153647D01*
X120779158Y-101153655D01*
X120779159Y-101153657D01*
X120836878Y-101318606D01*
X120929853Y-101466576D01*
X121053424Y-101590147D01*
X121201394Y-101683122D01*
X121338462Y-101731085D01*
X121422140Y-101780445D01*
X121480561Y-101858073D01*
X121491246Y-101883867D01*
X121549211Y-102049522D01*
X121549212Y-102049523D01*
X121549214Y-102049529D01*
X121645180Y-102202257D01*
X121645182Y-102202259D01*
X121645184Y-102202262D01*
X121772738Y-102329816D01*
X121772740Y-102329817D01*
X121772742Y-102329819D01*
X121925470Y-102425785D01*
X121925473Y-102425786D01*
X121925478Y-102425789D01*
X122095745Y-102485368D01*
X122095754Y-102485369D01*
X122274996Y-102505565D01*
X122275000Y-102505565D01*
X122275004Y-102505565D01*
X122414908Y-102489801D01*
X122454255Y-102485368D01*
X122624522Y-102425789D01*
X122624527Y-102425785D01*
X122624529Y-102425785D01*
X122754779Y-102343943D01*
X122777262Y-102329816D01*
X122904816Y-102202262D01*
X122915632Y-102185046D01*
X122982376Y-102114450D01*
X123071056Y-102074767D01*
X123168173Y-102072041D01*
X123258941Y-102106687D01*
X123329540Y-102173432D01*
X123369223Y-102262112D01*
X123373901Y-102289644D01*
X123389630Y-102429245D01*
X123389631Y-102429251D01*
X123389632Y-102429255D01*
X123449211Y-102599522D01*
X123449212Y-102599523D01*
X123449214Y-102599529D01*
X123545180Y-102752257D01*
X123545182Y-102752259D01*
X123545184Y-102752262D01*
X123672738Y-102879816D01*
X123672740Y-102879817D01*
X123672742Y-102879819D01*
X123825470Y-102975785D01*
X123825473Y-102975786D01*
X123825478Y-102975789D01*
X123995745Y-103035368D01*
X123995754Y-103035369D01*
X124174996Y-103055565D01*
X124175000Y-103055565D01*
X124175001Y-103055565D01*
X124192272Y-103053618D01*
X124258586Y-103046147D01*
X124355395Y-103054312D01*
X124441712Y-103098904D01*
X124497299Y-103161106D01*
X124569834Y-103276547D01*
X124569853Y-103276576D01*
X124693424Y-103400147D01*
X124841394Y-103493122D01*
X125006343Y-103550841D01*
X125006352Y-103550842D01*
X125179996Y-103570407D01*
X125180000Y-103570407D01*
X125180004Y-103570407D01*
X125315542Y-103555135D01*
X125353657Y-103550841D01*
X125397401Y-103535534D01*
X127857660Y-103535534D01*
X128073626Y-103751500D01*
X129765841Y-103751500D01*
X129981806Y-103535534D01*
X131393194Y-103535534D01*
X131609160Y-103751500D01*
X131835403Y-103751500D01*
X131979530Y-103476890D01*
X131983125Y-103470284D01*
X131990545Y-103457128D01*
X131994336Y-103450637D01*
X132009935Y-103424832D01*
X132013927Y-103418449D01*
X132022128Y-103405765D01*
X132026305Y-103399513D01*
X132215277Y-103125739D01*
X132219642Y-103119615D01*
X132228596Y-103107446D01*
X132233149Y-103101450D01*
X132251746Y-103077714D01*
X132256469Y-103071870D01*
X132266138Y-103060268D01*
X132271041Y-103054563D01*
X132491632Y-102805567D01*
X132496705Y-102800011D01*
X132507058Y-102789013D01*
X132512294Y-102783616D01*
X132533616Y-102762294D01*
X132539013Y-102757058D01*
X132550011Y-102746705D01*
X132555567Y-102741632D01*
X132644580Y-102662772D01*
X132455268Y-102473459D01*
X131393194Y-103535534D01*
X129981806Y-103535534D01*
X129981807Y-103535533D01*
X128919733Y-102473460D01*
X127857660Y-103535534D01*
X125397401Y-103535534D01*
X125518606Y-103493122D01*
X125666576Y-103400147D01*
X125790147Y-103276576D01*
X125883122Y-103128606D01*
X125940841Y-102963657D01*
X125950287Y-102879819D01*
X125960407Y-102790004D01*
X125960407Y-102789995D01*
X125940842Y-102616352D01*
X125940841Y-102616344D01*
X125906869Y-102519259D01*
X125883122Y-102451394D01*
X125868664Y-102428384D01*
X125834018Y-102337619D01*
X125830500Y-102295910D01*
X125830500Y-101029160D01*
X126828500Y-101029160D01*
X126828500Y-102131440D01*
X126892087Y-102313159D01*
X126896327Y-102326465D01*
X126904093Y-102353420D01*
X126907582Y-102366943D01*
X126920050Y-102421564D01*
X126922776Y-102435267D01*
X126927477Y-102462935D01*
X126929429Y-102476766D01*
X126946004Y-102623877D01*
X127151967Y-102829840D01*
X128214040Y-101767766D01*
X129625427Y-101767766D01*
X130687500Y-102829840D01*
X131749573Y-101767767D01*
X133160961Y-101767767D01*
X133486479Y-102093285D01*
X133521441Y-102074937D01*
X133528155Y-102071541D01*
X133541733Y-102064930D01*
X133548542Y-102061741D01*
X133576038Y-102049366D01*
X133582937Y-102046385D01*
X133596895Y-102040603D01*
X133603892Y-102037828D01*
X133914934Y-101919865D01*
X133922002Y-101917306D01*
X133936279Y-101912379D01*
X133943430Y-101910031D01*
X133972219Y-101901060D01*
X133979423Y-101898934D01*
X133993974Y-101894877D01*
X134001259Y-101892964D01*
X134324247Y-101813356D01*
X134331560Y-101811670D01*
X134346318Y-101808501D01*
X134353704Y-101807032D01*
X134383363Y-101801596D01*
X134390776Y-101800353D01*
X134405719Y-101798078D01*
X134413184Y-101797056D01*
X134654419Y-101767766D01*
X136696495Y-101767766D01*
X137579634Y-102650905D01*
X137693706Y-102519259D01*
X137699647Y-102512645D01*
X137711812Y-102499579D01*
X137717983Y-102493183D01*
X137743183Y-102467983D01*
X137749579Y-102461812D01*
X137762645Y-102449647D01*
X137769259Y-102443706D01*
X137958404Y-102279811D01*
X137965232Y-102274105D01*
X137979134Y-102262903D01*
X137986143Y-102257459D01*
X138014673Y-102236101D01*
X138021892Y-102230895D01*
X138036555Y-102220715D01*
X138043939Y-102215781D01*
X138254482Y-102080473D01*
X138262056Y-102075795D01*
X138277412Y-102066685D01*
X138285125Y-102062293D01*
X138316403Y-102045214D01*
X138324285Y-102041091D01*
X138340246Y-102033102D01*
X138348257Y-102029269D01*
X138575916Y-101925299D01*
X138584077Y-101921747D01*
X138600580Y-101914912D01*
X138608850Y-101911659D01*
X138642241Y-101899206D01*
X138650622Y-101896249D01*
X138667551Y-101890615D01*
X138676026Y-101887962D01*
X138710598Y-101877810D01*
X138820642Y-101767767D01*
X138804375Y-101751500D01*
X140248296Y-101751500D01*
X142339909Y-101751500D01*
X141294102Y-100705693D01*
X140248296Y-101751500D01*
X138804375Y-101751500D01*
X137758568Y-100705693D01*
X136696495Y-101767766D01*
X134654419Y-101767766D01*
X134743418Y-101756960D01*
X134750884Y-101756168D01*
X134765919Y-101754801D01*
X134773428Y-101754232D01*
X134803527Y-101752411D01*
X134811033Y-101752071D01*
X134826137Y-101751614D01*
X134833668Y-101751500D01*
X135166332Y-101751500D01*
X135173863Y-101751614D01*
X135188967Y-101752071D01*
X135196473Y-101752411D01*
X135226572Y-101754232D01*
X135234081Y-101754801D01*
X135249116Y-101756168D01*
X135256581Y-101756960D01*
X135276749Y-101759408D01*
X134223034Y-100705693D01*
X133160961Y-101767767D01*
X131749573Y-101767767D01*
X131749574Y-101767766D01*
X130687500Y-100705693D01*
X129625427Y-101767766D01*
X128214040Y-101767766D01*
X127151966Y-100705693D01*
X126828500Y-101029160D01*
X125830500Y-101029160D01*
X125830500Y-99999999D01*
X127857660Y-99999999D01*
X128919733Y-101062073D01*
X129981807Y-99999999D01*
X131393194Y-99999999D01*
X132455267Y-101062073D01*
X133517341Y-99999999D01*
X134928728Y-99999999D01*
X135990801Y-101062073D01*
X137052875Y-99999999D01*
X138464262Y-99999999D01*
X139526335Y-101062073D01*
X140588409Y-99999999D01*
X141999795Y-99999999D01*
X143061869Y-101062073D01*
X144123942Y-99999999D01*
X143061869Y-98937926D01*
X141999795Y-99999999D01*
X140588409Y-99999999D01*
X139526335Y-98937926D01*
X138464262Y-99999999D01*
X137052875Y-99999999D01*
X135990801Y-98937926D01*
X134928728Y-99999999D01*
X133517341Y-99999999D01*
X132455267Y-98937926D01*
X131393194Y-99999999D01*
X129981807Y-99999999D01*
X128919733Y-98937926D01*
X127857660Y-99999999D01*
X125830500Y-99999999D01*
X125830500Y-97778556D01*
X126828500Y-97778556D01*
X126828500Y-98970839D01*
X127151967Y-99294306D01*
X128214040Y-98232232D01*
X129625427Y-98232232D01*
X130687500Y-99294306D01*
X131749574Y-98232232D01*
X133160960Y-98232232D01*
X134223034Y-99294306D01*
X135276749Y-98240591D01*
X135256583Y-98243040D01*
X135249116Y-98243832D01*
X135234081Y-98245199D01*
X135226572Y-98245768D01*
X135196473Y-98247589D01*
X135188967Y-98247929D01*
X135173863Y-98248386D01*
X135166332Y-98248500D01*
X134833668Y-98248500D01*
X134826137Y-98248386D01*
X134811033Y-98247929D01*
X134803527Y-98247589D01*
X134773428Y-98245768D01*
X134765919Y-98245199D01*
X134750884Y-98243832D01*
X134743418Y-98243040D01*
X134654402Y-98232232D01*
X136696494Y-98232232D01*
X137758568Y-99294306D01*
X138804374Y-98248500D01*
X140248296Y-98248500D01*
X141294102Y-99294306D01*
X142339909Y-98248500D01*
X140248296Y-98248500D01*
X138804374Y-98248500D01*
X138820642Y-98232232D01*
X138710600Y-98122189D01*
X138676029Y-98112039D01*
X138667551Y-98109385D01*
X138650622Y-98103751D01*
X138642241Y-98100794D01*
X138608850Y-98088341D01*
X138600580Y-98085088D01*
X138584077Y-98078253D01*
X138575916Y-98074701D01*
X138348257Y-97970731D01*
X138340246Y-97966898D01*
X138324285Y-97958909D01*
X138316403Y-97954786D01*
X138285125Y-97937707D01*
X138277412Y-97933315D01*
X138262056Y-97924205D01*
X138254482Y-97919527D01*
X138043939Y-97784219D01*
X138036555Y-97779285D01*
X138021892Y-97769105D01*
X138014673Y-97763899D01*
X137986143Y-97742541D01*
X137979134Y-97737097D01*
X137965232Y-97725895D01*
X137958404Y-97720189D01*
X137769259Y-97556294D01*
X137762645Y-97550353D01*
X137749579Y-97538188D01*
X137743183Y-97532017D01*
X137717983Y-97506817D01*
X137711812Y-97500421D01*
X137699647Y-97487355D01*
X137693706Y-97480741D01*
X137579633Y-97349093D01*
X136696494Y-98232232D01*
X134654402Y-98232232D01*
X134413184Y-98202944D01*
X134405719Y-98201922D01*
X134390776Y-98199647D01*
X134383363Y-98198404D01*
X134353704Y-98192968D01*
X134346318Y-98191499D01*
X134331560Y-98188330D01*
X134324247Y-98186644D01*
X134001259Y-98107036D01*
X133993974Y-98105123D01*
X133979423Y-98101066D01*
X133972219Y-98098940D01*
X133943430Y-98089969D01*
X133936279Y-98087621D01*
X133922002Y-98082694D01*
X133914934Y-98080135D01*
X133603892Y-97962172D01*
X133596895Y-97959397D01*
X133582937Y-97953615D01*
X133576038Y-97950634D01*
X133548542Y-97938259D01*
X133541733Y-97935070D01*
X133528155Y-97928459D01*
X133521440Y-97925063D01*
X133486478Y-97906713D01*
X133160960Y-98232232D01*
X131749574Y-98232232D01*
X130687500Y-97170159D01*
X129625427Y-98232232D01*
X128214040Y-98232232D01*
X127151966Y-97170158D01*
X126934577Y-97387546D01*
X126929430Y-97433233D01*
X126927477Y-97447065D01*
X126922776Y-97474733D01*
X126920050Y-97488436D01*
X126907582Y-97543057D01*
X126904093Y-97556580D01*
X126896327Y-97583535D01*
X126892086Y-97596841D01*
X126828500Y-97778556D01*
X125830500Y-97778556D01*
X125830500Y-97614089D01*
X125849454Y-97518801D01*
X125868666Y-97481612D01*
X125883122Y-97458606D01*
X125940841Y-97293657D01*
X125949145Y-97219953D01*
X125960407Y-97120004D01*
X125960407Y-97119995D01*
X125940842Y-96946352D01*
X125940841Y-96946344D01*
X125940434Y-96945180D01*
X125883122Y-96781394D01*
X125790147Y-96633424D01*
X125666576Y-96509853D01*
X125666575Y-96509852D01*
X125594341Y-96464465D01*
X127857660Y-96464465D01*
X128919733Y-97526539D01*
X129981807Y-96464466D01*
X129981806Y-96464465D01*
X131393194Y-96464465D01*
X132455268Y-97526539D01*
X132644580Y-97337226D01*
X132555567Y-97258368D01*
X132550011Y-97253295D01*
X132539013Y-97242942D01*
X132533616Y-97237706D01*
X132512294Y-97216384D01*
X132507058Y-97210987D01*
X132496705Y-97199989D01*
X132491632Y-97194433D01*
X132271041Y-96945437D01*
X132266138Y-96939732D01*
X132256469Y-96928130D01*
X132251746Y-96922286D01*
X132233149Y-96898550D01*
X132228596Y-96892554D01*
X132219642Y-96880385D01*
X132215277Y-96874261D01*
X132026305Y-96600487D01*
X132022128Y-96594235D01*
X132013927Y-96581551D01*
X132009935Y-96575168D01*
X131994336Y-96549363D01*
X131990545Y-96542872D01*
X131983125Y-96529716D01*
X131979530Y-96523110D01*
X131835403Y-96248500D01*
X131609160Y-96248500D01*
X131393194Y-96464465D01*
X129981806Y-96464465D01*
X129765841Y-96248500D01*
X128073626Y-96248500D01*
X127857660Y-96464465D01*
X125594341Y-96464465D01*
X125518606Y-96416878D01*
X125420924Y-96382697D01*
X125353655Y-96359158D01*
X125353647Y-96359157D01*
X125180004Y-96339593D01*
X125179996Y-96339593D01*
X125006352Y-96359157D01*
X125006344Y-96359158D01*
X124841394Y-96416878D01*
X124693424Y-96509852D01*
X124569850Y-96633426D01*
X124545520Y-96672147D01*
X124478774Y-96742745D01*
X124390092Y-96782426D01*
X124306810Y-96787102D01*
X124150004Y-96769435D01*
X124149996Y-96769435D01*
X123970754Y-96789630D01*
X123970746Y-96789631D01*
X123970745Y-96789632D01*
X123800478Y-96849211D01*
X123800476Y-96849211D01*
X123800476Y-96849212D01*
X123800470Y-96849214D01*
X123647742Y-96945180D01*
X123520180Y-97072742D01*
X123424214Y-97225470D01*
X123424211Y-97225476D01*
X123424211Y-97225478D01*
X123380957Y-97349093D01*
X123364632Y-97395746D01*
X123364630Y-97395753D01*
X123352974Y-97499203D01*
X123323470Y-97591770D01*
X123260788Y-97666000D01*
X123174471Y-97710592D01*
X123077660Y-97718757D01*
X122985093Y-97689253D01*
X122929474Y-97647396D01*
X122802262Y-97520184D01*
X122802259Y-97520182D01*
X122802257Y-97520180D01*
X122649529Y-97424214D01*
X122649524Y-97424212D01*
X122649522Y-97424211D01*
X122479255Y-97364632D01*
X122479251Y-97364631D01*
X122479245Y-97364630D01*
X122300004Y-97344435D01*
X122299996Y-97344435D01*
X122120754Y-97364630D01*
X122120746Y-97364631D01*
X122120745Y-97364632D01*
X121950478Y-97424211D01*
X121950476Y-97424211D01*
X121950476Y-97424212D01*
X121950470Y-97424214D01*
X121797742Y-97520180D01*
X121670180Y-97647742D01*
X121574214Y-97800470D01*
X121574209Y-97800481D01*
X121522817Y-97947351D01*
X121473455Y-98031031D01*
X121395827Y-98089452D01*
X121315670Y-98112544D01*
X121301352Y-98114157D01*
X121301344Y-98114158D01*
X121136394Y-98171878D01*
X120988424Y-98264852D01*
X120864852Y-98388424D01*
X120771878Y-98536394D01*
X120714158Y-98701344D01*
X120714157Y-98701352D01*
X120694593Y-98874995D01*
X116964676Y-98874995D01*
X117607438Y-98232232D01*
X117556206Y-98181000D01*
X119070058Y-98181000D01*
X119121563Y-98181000D01*
X119167317Y-98185240D01*
X119376815Y-98224402D01*
X119421010Y-98236976D01*
X119619744Y-98313966D01*
X119660876Y-98334448D01*
X119763067Y-98397721D01*
X119839137Y-98180331D01*
X119844115Y-98167289D01*
X119854852Y-98141366D01*
X119860560Y-98128610D01*
X119884867Y-98078137D01*
X119891280Y-98065723D01*
X119904851Y-98041170D01*
X119911942Y-98029149D01*
X120034721Y-97833743D01*
X120042483Y-97822127D01*
X120058718Y-97799246D01*
X120067112Y-97788092D01*
X120102042Y-97744289D01*
X120111057Y-97733612D01*
X120129755Y-97712689D01*
X120139350Y-97702540D01*
X120302540Y-97539350D01*
X120312689Y-97529755D01*
X120333612Y-97511057D01*
X120344289Y-97502042D01*
X120382394Y-97471654D01*
X120080899Y-97170159D01*
X119070058Y-98181000D01*
X117556206Y-98181000D01*
X116545365Y-97170159D01*
X115651231Y-98064292D01*
X113903964Y-98064292D01*
X113009831Y-97170159D01*
X111947757Y-98232232D01*
X110536370Y-98232232D01*
X109474297Y-97170159D01*
X108412223Y-98232232D01*
X107000836Y-98232232D01*
X105938763Y-97170159D01*
X105498500Y-97610422D01*
X104500500Y-97610422D01*
X104500500Y-96464465D01*
X106644456Y-96464465D01*
X107706530Y-97526539D01*
X108768603Y-96464465D01*
X110179990Y-96464465D01*
X111242064Y-97526539D01*
X112304137Y-96464465D01*
X113715524Y-96464465D01*
X114777598Y-97526539D01*
X115839671Y-96464465D01*
X117251058Y-96464465D01*
X118313132Y-97526539D01*
X119375204Y-96464466D01*
X120786591Y-96464466D01*
X121114400Y-96792274D01*
X121122002Y-96785089D01*
X121142921Y-96766395D01*
X121153586Y-96757389D01*
X121197387Y-96722457D01*
X121208551Y-96714055D01*
X121231436Y-96697817D01*
X121243051Y-96690056D01*
X121443232Y-96564275D01*
X121455257Y-96557182D01*
X121479818Y-96543607D01*
X121492236Y-96537191D01*
X121542713Y-96512884D01*
X121555463Y-96507180D01*
X121581379Y-96496446D01*
X121594421Y-96491467D01*
X121817562Y-96413386D01*
X121830867Y-96409146D01*
X121857822Y-96401380D01*
X121871345Y-96397891D01*
X121925966Y-96385423D01*
X121939667Y-96382697D01*
X121967334Y-96377996D01*
X121981166Y-96376044D01*
X122049214Y-96368376D01*
X122196250Y-96234335D01*
X122232920Y-96206644D01*
X122414124Y-96094448D01*
X122455256Y-96073966D01*
X122502094Y-96055820D01*
X121848666Y-95402392D01*
X120786591Y-96464466D01*
X119375204Y-96464466D01*
X119375205Y-96464465D01*
X118313132Y-95402392D01*
X117251058Y-96464465D01*
X115839671Y-96464465D01*
X114777598Y-95402392D01*
X113715524Y-96464465D01*
X112304137Y-96464465D01*
X111242064Y-95402392D01*
X110179990Y-96464465D01*
X108768603Y-96464465D01*
X107706530Y-95402392D01*
X106644456Y-96464465D01*
X104500500Y-96464465D01*
X104500500Y-94074888D01*
X105498500Y-94074888D01*
X105498500Y-95318510D01*
X105938762Y-95758773D01*
X107000837Y-94696699D01*
X108412223Y-94696699D01*
X109474297Y-95758772D01*
X110536371Y-94696699D01*
X111947757Y-94696699D01*
X113009831Y-95758772D01*
X114071905Y-94696699D01*
X115483291Y-94696699D01*
X116545365Y-95758772D01*
X117607439Y-94696699D01*
X119018825Y-94696699D01*
X120080899Y-95758773D01*
X121142973Y-94696699D01*
X121142972Y-94696698D01*
X122554358Y-94696698D01*
X123284632Y-95426972D01*
X123386250Y-95334335D01*
X123422920Y-95306644D01*
X123533866Y-95237949D01*
X123533616Y-95237706D01*
X123512294Y-95216384D01*
X123507058Y-95210987D01*
X123496705Y-95199989D01*
X123491632Y-95194433D01*
X123271041Y-94945437D01*
X123266138Y-94939732D01*
X123256469Y-94928130D01*
X123251746Y-94922286D01*
X123233149Y-94898550D01*
X123228596Y-94892554D01*
X123219642Y-94880385D01*
X123215277Y-94874261D01*
X123026305Y-94600487D01*
X123022128Y-94594235D01*
X123013927Y-94581551D01*
X123009935Y-94575168D01*
X122994336Y-94549363D01*
X122990545Y-94542872D01*
X122983125Y-94529716D01*
X122979530Y-94523110D01*
X122892936Y-94358120D01*
X122554358Y-94696698D01*
X121142972Y-94696698D01*
X120080899Y-93634625D01*
X119018825Y-94696699D01*
X117607439Y-94696699D01*
X116545365Y-93634625D01*
X115483291Y-94696699D01*
X114071905Y-94696699D01*
X113009831Y-93634625D01*
X111947757Y-94696699D01*
X110536371Y-94696699D01*
X109474297Y-93634625D01*
X108412223Y-94696699D01*
X107000837Y-94696699D01*
X105938763Y-93634625D01*
X105498500Y-94074888D01*
X104500500Y-94074888D01*
X104500500Y-92928932D01*
X106644456Y-92928932D01*
X107706530Y-93991005D01*
X108768604Y-92928932D01*
X110179990Y-92928932D01*
X111242064Y-93991005D01*
X112304138Y-92928932D01*
X113715524Y-92928932D01*
X114777598Y-93991005D01*
X115839672Y-92928932D01*
X117251058Y-92928932D01*
X118313132Y-93991005D01*
X119375206Y-92928932D01*
X120786592Y-92928932D01*
X121848666Y-93991006D01*
X122542270Y-93297401D01*
X122506960Y-93006582D01*
X122506168Y-92999116D01*
X122504801Y-92984081D01*
X122504232Y-92976572D01*
X122502411Y-92946473D01*
X122502071Y-92938967D01*
X122501614Y-92923863D01*
X122501500Y-92916332D01*
X122501500Y-92519692D01*
X121848666Y-91866858D01*
X120786592Y-92928932D01*
X119375206Y-92928932D01*
X118313132Y-91866858D01*
X117251058Y-92928932D01*
X115839672Y-92928932D01*
X114777598Y-91866858D01*
X113715524Y-92928932D01*
X112304138Y-92928932D01*
X111242064Y-91866858D01*
X110179990Y-92928932D01*
X108768604Y-92928932D01*
X107706530Y-91866858D01*
X106644456Y-92928932D01*
X104500500Y-92928932D01*
X104500500Y-90539355D01*
X105498500Y-90539355D01*
X105498500Y-91782976D01*
X105938762Y-92223239D01*
X107000836Y-91161165D01*
X108412223Y-91161165D01*
X109474297Y-92223238D01*
X110536370Y-91161165D01*
X111947757Y-91161165D01*
X113009831Y-92223238D01*
X114071904Y-91161165D01*
X115483291Y-91161165D01*
X116545365Y-92223238D01*
X117607438Y-91161165D01*
X119018825Y-91161165D01*
X120080899Y-92223239D01*
X121142972Y-91161165D01*
X120080899Y-90099091D01*
X119018825Y-91161165D01*
X117607438Y-91161165D01*
X116545365Y-90099091D01*
X115483291Y-91161165D01*
X114071904Y-91161165D01*
X113009831Y-90099091D01*
X111947757Y-91161165D01*
X110536370Y-91161165D01*
X109474297Y-90099091D01*
X108412223Y-91161165D01*
X107000836Y-91161165D01*
X105938763Y-90099091D01*
X105498500Y-90539355D01*
X104500500Y-90539355D01*
X104500500Y-89393398D01*
X106644456Y-89393398D01*
X107706530Y-90455471D01*
X108768603Y-89393398D01*
X110179990Y-89393398D01*
X111242064Y-90455471D01*
X112304137Y-89393398D01*
X113715524Y-89393398D01*
X114777598Y-90455471D01*
X115839671Y-89393398D01*
X117251058Y-89393398D01*
X118313132Y-90455471D01*
X119375205Y-89393398D01*
X120786592Y-89393398D01*
X121848666Y-90455472D01*
X122501500Y-89802638D01*
X122501500Y-88984157D01*
X121848666Y-88331324D01*
X120786592Y-89393398D01*
X119375205Y-89393398D01*
X118313132Y-88331324D01*
X117251058Y-89393398D01*
X115839671Y-89393398D01*
X114777598Y-88331324D01*
X113715524Y-89393398D01*
X112304137Y-89393398D01*
X111242064Y-88331324D01*
X110179990Y-89393398D01*
X108768603Y-89393398D01*
X107706530Y-88331324D01*
X106644456Y-89393398D01*
X104500500Y-89393398D01*
X104500500Y-88247442D01*
X105498500Y-88247442D01*
X105938762Y-88687705D01*
X106627968Y-87998500D01*
X108785093Y-87998500D01*
X109474297Y-88687704D01*
X110163502Y-87998500D01*
X112320627Y-87998500D01*
X113009831Y-88687704D01*
X113699036Y-87998500D01*
X115856161Y-87998500D01*
X116545365Y-88687704D01*
X117234570Y-87998500D01*
X119391694Y-87998500D01*
X120080899Y-88687705D01*
X120770104Y-87998500D01*
X119391694Y-87998500D01*
X117234570Y-87998500D01*
X115856161Y-87998500D01*
X113699036Y-87998500D01*
X112320627Y-87998500D01*
X110163502Y-87998500D01*
X108785093Y-87998500D01*
X106627968Y-87998500D01*
X105498500Y-87998500D01*
X105498500Y-88247442D01*
X104500500Y-88247442D01*
X104500500Y-87513981D01*
X104502064Y-87486118D01*
X104509884Y-87416715D01*
X104522286Y-87362379D01*
X104540702Y-87309747D01*
X104564889Y-87259525D01*
X104594550Y-87212319D01*
X104629306Y-87168735D01*
X104668735Y-87129306D01*
X104712319Y-87094550D01*
X104759525Y-87064889D01*
X104809747Y-87040702D01*
X104862379Y-87022286D01*
X104916717Y-87009884D01*
X104986116Y-87002064D01*
X105013982Y-87000500D01*
X105065892Y-87000500D01*
X122934108Y-87000500D01*
X122986018Y-87000500D01*
X123013882Y-87002064D01*
G37*
%TD.AperFunction*%
%TD*%
M02*
