%TF.GenerationSoftware,KiCad,Pcbnew,8.0.4*%
%TF.CreationDate,2024-07-27T12:21:03+02:00*%
%TF.ProjectId,PA3194G822_R04,50413331-3934-4473-9832-325f5230342e,4*%
%TF.SameCoordinates,Original*%
%TF.FileFunction,Other,User*%
%FSLAX46Y46*%
G04 Gerber Fmt 4.6, Leading zero omitted, Abs format (unit mm)*
G04 Created by KiCad (PCBNEW 8.0.4) date 2024-07-27 12:21:03*
%MOMM*%
%LPD*%
G01*
G04 APERTURE LIST*
%ADD10C,0.050000*%
%ADD11C,0.200000*%
G04 APERTURE END LIST*
D10*
X104997107Y-86497107D02*
X121997107Y-86497107D01*
X103997107Y-87497107D02*
G75*
G02*
X104997107Y-86497107I1000000J0D01*
G01*
X103997107Y-87497107D02*
X103997107Y-112497107D01*
X104997107Y-113497107D02*
G75*
G02*
X103997107Y-112497107I0J1000000D01*
G01*
X122997107Y-87497107D02*
X122997107Y-112497107D01*
X104997107Y-113497107D02*
X121997107Y-113497107D01*
X121997107Y-86497107D02*
G75*
G02*
X122997107Y-87497107I0J-1000000D01*
G01*
X122997107Y-112497107D02*
G75*
G02*
X121997107Y-113497107I-1000000J0D01*
G01*
D11*
X106923006Y-82903409D02*
X106589673Y-82903409D01*
X106589673Y-83427219D02*
X106589673Y-82427219D01*
X106589673Y-82427219D02*
X107065863Y-82427219D01*
X108018244Y-83427219D02*
X107684911Y-82951028D01*
X107446816Y-83427219D02*
X107446816Y-82427219D01*
X107446816Y-82427219D02*
X107827768Y-82427219D01*
X107827768Y-82427219D02*
X107923006Y-82474838D01*
X107923006Y-82474838D02*
X107970625Y-82522457D01*
X107970625Y-82522457D02*
X108018244Y-82617695D01*
X108018244Y-82617695D02*
X108018244Y-82760552D01*
X108018244Y-82760552D02*
X107970625Y-82855790D01*
X107970625Y-82855790D02*
X107923006Y-82903409D01*
X107923006Y-82903409D02*
X107827768Y-82951028D01*
X107827768Y-82951028D02*
X107446816Y-82951028D01*
X108875387Y-82760552D02*
X108875387Y-83427219D01*
X108637292Y-82379600D02*
X108399197Y-83093885D01*
X108399197Y-83093885D02*
X109018244Y-83093885D01*
X110113483Y-83379600D02*
X110256340Y-83427219D01*
X110256340Y-83427219D02*
X110494435Y-83427219D01*
X110494435Y-83427219D02*
X110589673Y-83379600D01*
X110589673Y-83379600D02*
X110637292Y-83331980D01*
X110637292Y-83331980D02*
X110684911Y-83236742D01*
X110684911Y-83236742D02*
X110684911Y-83141504D01*
X110684911Y-83141504D02*
X110637292Y-83046266D01*
X110637292Y-83046266D02*
X110589673Y-82998647D01*
X110589673Y-82998647D02*
X110494435Y-82951028D01*
X110494435Y-82951028D02*
X110303959Y-82903409D01*
X110303959Y-82903409D02*
X110208721Y-82855790D01*
X110208721Y-82855790D02*
X110161102Y-82808171D01*
X110161102Y-82808171D02*
X110113483Y-82712933D01*
X110113483Y-82712933D02*
X110113483Y-82617695D01*
X110113483Y-82617695D02*
X110161102Y-82522457D01*
X110161102Y-82522457D02*
X110208721Y-82474838D01*
X110208721Y-82474838D02*
X110303959Y-82427219D01*
X110303959Y-82427219D02*
X110542054Y-82427219D01*
X110542054Y-82427219D02*
X110684911Y-82474838D01*
X110970626Y-82760552D02*
X111351578Y-82760552D01*
X111113483Y-82427219D02*
X111113483Y-83284361D01*
X111113483Y-83284361D02*
X111161102Y-83379600D01*
X111161102Y-83379600D02*
X111256340Y-83427219D01*
X111256340Y-83427219D02*
X111351578Y-83427219D01*
X111684912Y-83427219D02*
X111684912Y-82760552D01*
X111684912Y-82427219D02*
X111637293Y-82474838D01*
X111637293Y-82474838D02*
X111684912Y-82522457D01*
X111684912Y-82522457D02*
X111732531Y-82474838D01*
X111732531Y-82474838D02*
X111684912Y-82427219D01*
X111684912Y-82427219D02*
X111684912Y-82522457D01*
X112018245Y-82760552D02*
X112399197Y-82760552D01*
X112161102Y-83427219D02*
X112161102Y-82570076D01*
X112161102Y-82570076D02*
X112208721Y-82474838D01*
X112208721Y-82474838D02*
X112303959Y-82427219D01*
X112303959Y-82427219D02*
X112399197Y-82427219D01*
X112589674Y-82760552D02*
X112970626Y-82760552D01*
X112732531Y-83427219D02*
X112732531Y-82570076D01*
X112732531Y-82570076D02*
X112780150Y-82474838D01*
X112780150Y-82474838D02*
X112875388Y-82427219D01*
X112875388Y-82427219D02*
X112970626Y-82427219D01*
X113684912Y-83379600D02*
X113589674Y-83427219D01*
X113589674Y-83427219D02*
X113399198Y-83427219D01*
X113399198Y-83427219D02*
X113303960Y-83379600D01*
X113303960Y-83379600D02*
X113256341Y-83284361D01*
X113256341Y-83284361D02*
X113256341Y-82903409D01*
X113256341Y-82903409D02*
X113303960Y-82808171D01*
X113303960Y-82808171D02*
X113399198Y-82760552D01*
X113399198Y-82760552D02*
X113589674Y-82760552D01*
X113589674Y-82760552D02*
X113684912Y-82808171D01*
X113684912Y-82808171D02*
X113732531Y-82903409D01*
X113732531Y-82903409D02*
X113732531Y-82998647D01*
X113732531Y-82998647D02*
X113256341Y-83093885D01*
X114161103Y-82760552D02*
X114161103Y-83427219D01*
X114161103Y-82855790D02*
X114208722Y-82808171D01*
X114208722Y-82808171D02*
X114303960Y-82760552D01*
X114303960Y-82760552D02*
X114446817Y-82760552D01*
X114446817Y-82760552D02*
X114542055Y-82808171D01*
X114542055Y-82808171D02*
X114589674Y-82903409D01*
X114589674Y-82903409D02*
X114589674Y-83427219D01*
X115446817Y-83379600D02*
X115351579Y-83427219D01*
X115351579Y-83427219D02*
X115161103Y-83427219D01*
X115161103Y-83427219D02*
X115065865Y-83379600D01*
X115065865Y-83379600D02*
X115018246Y-83284361D01*
X115018246Y-83284361D02*
X115018246Y-82903409D01*
X115018246Y-82903409D02*
X115065865Y-82808171D01*
X115065865Y-82808171D02*
X115161103Y-82760552D01*
X115161103Y-82760552D02*
X115351579Y-82760552D01*
X115351579Y-82760552D02*
X115446817Y-82808171D01*
X115446817Y-82808171D02*
X115494436Y-82903409D01*
X115494436Y-82903409D02*
X115494436Y-82998647D01*
X115494436Y-82998647D02*
X115018246Y-83093885D01*
X115923008Y-83427219D02*
X115923008Y-82760552D01*
X115923008Y-82951028D02*
X115970627Y-82855790D01*
X115970627Y-82855790D02*
X116018246Y-82808171D01*
X116018246Y-82808171D02*
X116113484Y-82760552D01*
X116113484Y-82760552D02*
X116208722Y-82760552D01*
X117827770Y-83427219D02*
X117256342Y-83427219D01*
X117542056Y-83427219D02*
X117542056Y-82427219D01*
X117542056Y-82427219D02*
X117446818Y-82570076D01*
X117446818Y-82570076D02*
X117351580Y-82665314D01*
X117351580Y-82665314D02*
X117256342Y-82712933D01*
X118256342Y-83331980D02*
X118303961Y-83379600D01*
X118303961Y-83379600D02*
X118256342Y-83427219D01*
X118256342Y-83427219D02*
X118208723Y-83379600D01*
X118208723Y-83379600D02*
X118256342Y-83331980D01*
X118256342Y-83331980D02*
X118256342Y-83427219D01*
X118923008Y-82427219D02*
X119018246Y-82427219D01*
X119018246Y-82427219D02*
X119113484Y-82474838D01*
X119113484Y-82474838D02*
X119161103Y-82522457D01*
X119161103Y-82522457D02*
X119208722Y-82617695D01*
X119208722Y-82617695D02*
X119256341Y-82808171D01*
X119256341Y-82808171D02*
X119256341Y-83046266D01*
X119256341Y-83046266D02*
X119208722Y-83236742D01*
X119208722Y-83236742D02*
X119161103Y-83331980D01*
X119161103Y-83331980D02*
X119113484Y-83379600D01*
X119113484Y-83379600D02*
X119018246Y-83427219D01*
X119018246Y-83427219D02*
X118923008Y-83427219D01*
X118923008Y-83427219D02*
X118827770Y-83379600D01*
X118827770Y-83379600D02*
X118780151Y-83331980D01*
X118780151Y-83331980D02*
X118732532Y-83236742D01*
X118732532Y-83236742D02*
X118684913Y-83046266D01*
X118684913Y-83046266D02*
X118684913Y-82808171D01*
X118684913Y-82808171D02*
X118732532Y-82617695D01*
X118732532Y-82617695D02*
X118780151Y-82522457D01*
X118780151Y-82522457D02*
X118827770Y-82474838D01*
X118827770Y-82474838D02*
X118923008Y-82427219D01*
X119684913Y-83427219D02*
X119684913Y-82760552D01*
X119684913Y-82855790D02*
X119732532Y-82808171D01*
X119732532Y-82808171D02*
X119827770Y-82760552D01*
X119827770Y-82760552D02*
X119970627Y-82760552D01*
X119970627Y-82760552D02*
X120065865Y-82808171D01*
X120065865Y-82808171D02*
X120113484Y-82903409D01*
X120113484Y-82903409D02*
X120113484Y-83427219D01*
X120113484Y-82903409D02*
X120161103Y-82808171D01*
X120161103Y-82808171D02*
X120256341Y-82760552D01*
X120256341Y-82760552D02*
X120399198Y-82760552D01*
X120399198Y-82760552D02*
X120494437Y-82808171D01*
X120494437Y-82808171D02*
X120542056Y-82903409D01*
X120542056Y-82903409D02*
X120542056Y-83427219D01*
X121018246Y-83427219D02*
X121018246Y-82760552D01*
X121018246Y-82855790D02*
X121065865Y-82808171D01*
X121065865Y-82808171D02*
X121161103Y-82760552D01*
X121161103Y-82760552D02*
X121303960Y-82760552D01*
X121303960Y-82760552D02*
X121399198Y-82808171D01*
X121399198Y-82808171D02*
X121446817Y-82903409D01*
X121446817Y-82903409D02*
X121446817Y-83427219D01*
X121446817Y-82903409D02*
X121494436Y-82808171D01*
X121494436Y-82808171D02*
X121589674Y-82760552D01*
X121589674Y-82760552D02*
X121732531Y-82760552D01*
X121732531Y-82760552D02*
X121827770Y-82808171D01*
X121827770Y-82808171D02*
X121875389Y-82903409D01*
X121875389Y-82903409D02*
X121875389Y-83427219D01*
M02*
