%TF.GenerationSoftware,KiCad,Pcbnew,8.0.4*%
%TF.CreationDate,2024-07-27T12:21:03+02:00*%
%TF.ProjectId,PA3194G822_R04,50413331-3934-4473-9832-325f5230342e,4*%
%TF.SameCoordinates,Original*%
%TF.FileFunction,Other,User*%
%FSLAX46Y46*%
G04 Gerber Fmt 4.6, Leading zero omitted, Abs format (unit mm)*
G04 Created by KiCad (PCBNEW 8.0.4) date 2024-07-27 12:21:03*
%MOMM*%
%LPD*%
G01*
G04 APERTURE LIST*
%ADD10C,0.050000*%
%ADD11C,0.150000*%
G04 APERTURE END LIST*
D10*
X144600000Y-96750000D02*
X140600000Y-96750000D01*
X145000000Y-102850000D02*
G75*
G02*
X144600000Y-103250000I-399993J-7D01*
G01*
X145000000Y-97150000D02*
X145000000Y-102850000D01*
X140600000Y-103250000D02*
G75*
G02*
X140200014Y-102850000I7J399993D01*
G01*
X140200000Y-97150000D02*
G75*
G02*
X140600000Y-96750000I400007J-7D01*
G01*
X144600000Y-96750000D02*
G75*
G02*
X145000014Y-97150000I7J-400007D01*
G01*
X140600000Y-103250000D02*
X144600000Y-103250000D01*
X140200000Y-102850000D02*
X140200000Y-97150000D01*
D11*
X136327255Y-106919819D02*
X136517731Y-106919819D01*
X136517731Y-106919819D02*
X136612969Y-106967438D01*
X136612969Y-106967438D02*
X136708207Y-107062676D01*
X136708207Y-107062676D02*
X136755826Y-107253152D01*
X136755826Y-107253152D02*
X136755826Y-107586485D01*
X136755826Y-107586485D02*
X136708207Y-107776961D01*
X136708207Y-107776961D02*
X136612969Y-107872200D01*
X136612969Y-107872200D02*
X136517731Y-107919819D01*
X136517731Y-107919819D02*
X136327255Y-107919819D01*
X136327255Y-107919819D02*
X136232017Y-107872200D01*
X136232017Y-107872200D02*
X136136779Y-107776961D01*
X136136779Y-107776961D02*
X136089160Y-107586485D01*
X136089160Y-107586485D02*
X136089160Y-107253152D01*
X136089160Y-107253152D02*
X136136779Y-107062676D01*
X136136779Y-107062676D02*
X136232017Y-106967438D01*
X136232017Y-106967438D02*
X136327255Y-106919819D01*
X137089160Y-107253152D02*
X137327255Y-107919819D01*
X137327255Y-107919819D02*
X137565350Y-107253152D01*
X138327255Y-107872200D02*
X138232017Y-107919819D01*
X138232017Y-107919819D02*
X138041541Y-107919819D01*
X138041541Y-107919819D02*
X137946303Y-107872200D01*
X137946303Y-107872200D02*
X137898684Y-107776961D01*
X137898684Y-107776961D02*
X137898684Y-107396009D01*
X137898684Y-107396009D02*
X137946303Y-107300771D01*
X137946303Y-107300771D02*
X138041541Y-107253152D01*
X138041541Y-107253152D02*
X138232017Y-107253152D01*
X138232017Y-107253152D02*
X138327255Y-107300771D01*
X138327255Y-107300771D02*
X138374874Y-107396009D01*
X138374874Y-107396009D02*
X138374874Y-107491247D01*
X138374874Y-107491247D02*
X137898684Y-107586485D01*
X138803446Y-107919819D02*
X138803446Y-107253152D01*
X138803446Y-107443628D02*
X138851065Y-107348390D01*
X138851065Y-107348390D02*
X138898684Y-107300771D01*
X138898684Y-107300771D02*
X138993922Y-107253152D01*
X138993922Y-107253152D02*
X139089160Y-107253152D01*
X139851065Y-107919819D02*
X139851065Y-107396009D01*
X139851065Y-107396009D02*
X139803446Y-107300771D01*
X139803446Y-107300771D02*
X139708208Y-107253152D01*
X139708208Y-107253152D02*
X139517732Y-107253152D01*
X139517732Y-107253152D02*
X139422494Y-107300771D01*
X139851065Y-107872200D02*
X139755827Y-107919819D01*
X139755827Y-107919819D02*
X139517732Y-107919819D01*
X139517732Y-107919819D02*
X139422494Y-107872200D01*
X139422494Y-107872200D02*
X139374875Y-107776961D01*
X139374875Y-107776961D02*
X139374875Y-107681723D01*
X139374875Y-107681723D02*
X139422494Y-107586485D01*
X139422494Y-107586485D02*
X139517732Y-107538866D01*
X139517732Y-107538866D02*
X139755827Y-107538866D01*
X139755827Y-107538866D02*
X139851065Y-107491247D01*
X140470113Y-107919819D02*
X140374875Y-107872200D01*
X140374875Y-107872200D02*
X140327256Y-107776961D01*
X140327256Y-107776961D02*
X140327256Y-106919819D01*
X140993923Y-107919819D02*
X140898685Y-107872200D01*
X140898685Y-107872200D02*
X140851066Y-107776961D01*
X140851066Y-107776961D02*
X140851066Y-106919819D01*
X141993924Y-107253152D02*
X142374876Y-107253152D01*
X142136781Y-107919819D02*
X142136781Y-107062676D01*
X142136781Y-107062676D02*
X142184400Y-106967438D01*
X142184400Y-106967438D02*
X142279638Y-106919819D01*
X142279638Y-106919819D02*
X142374876Y-106919819D01*
X142708210Y-107919819D02*
X142708210Y-107253152D01*
X142708210Y-106919819D02*
X142660591Y-106967438D01*
X142660591Y-106967438D02*
X142708210Y-107015057D01*
X142708210Y-107015057D02*
X142755829Y-106967438D01*
X142755829Y-106967438D02*
X142708210Y-106919819D01*
X142708210Y-106919819D02*
X142708210Y-107015057D01*
X143184400Y-107253152D02*
X143184400Y-107919819D01*
X143184400Y-107348390D02*
X143232019Y-107300771D01*
X143232019Y-107300771D02*
X143327257Y-107253152D01*
X143327257Y-107253152D02*
X143470114Y-107253152D01*
X143470114Y-107253152D02*
X143565352Y-107300771D01*
X143565352Y-107300771D02*
X143612971Y-107396009D01*
X143612971Y-107396009D02*
X143612971Y-107919819D01*
X144517733Y-107253152D02*
X144517733Y-108062676D01*
X144517733Y-108062676D02*
X144470114Y-108157914D01*
X144470114Y-108157914D02*
X144422495Y-108205533D01*
X144422495Y-108205533D02*
X144327257Y-108253152D01*
X144327257Y-108253152D02*
X144184400Y-108253152D01*
X144184400Y-108253152D02*
X144089162Y-108205533D01*
X144517733Y-107872200D02*
X144422495Y-107919819D01*
X144422495Y-107919819D02*
X144232019Y-107919819D01*
X144232019Y-107919819D02*
X144136781Y-107872200D01*
X144136781Y-107872200D02*
X144089162Y-107824580D01*
X144089162Y-107824580D02*
X144041543Y-107729342D01*
X144041543Y-107729342D02*
X144041543Y-107443628D01*
X144041543Y-107443628D02*
X144089162Y-107348390D01*
X144089162Y-107348390D02*
X144136781Y-107300771D01*
X144136781Y-107300771D02*
X144232019Y-107253152D01*
X144232019Y-107253152D02*
X144422495Y-107253152D01*
X144422495Y-107253152D02*
X144517733Y-107300771D01*
X145374876Y-107872200D02*
X145279638Y-107919819D01*
X145279638Y-107919819D02*
X145089162Y-107919819D01*
X145089162Y-107919819D02*
X144993924Y-107872200D01*
X144993924Y-107872200D02*
X144946305Y-107776961D01*
X144946305Y-107776961D02*
X144946305Y-107396009D01*
X144946305Y-107396009D02*
X144993924Y-107300771D01*
X144993924Y-107300771D02*
X145089162Y-107253152D01*
X145089162Y-107253152D02*
X145279638Y-107253152D01*
X145279638Y-107253152D02*
X145374876Y-107300771D01*
X145374876Y-107300771D02*
X145422495Y-107396009D01*
X145422495Y-107396009D02*
X145422495Y-107491247D01*
X145422495Y-107491247D02*
X144946305Y-107586485D01*
X145851067Y-107919819D02*
X145851067Y-107253152D01*
X145851067Y-107443628D02*
X145898686Y-107348390D01*
X145898686Y-107348390D02*
X145946305Y-107300771D01*
X145946305Y-107300771D02*
X146041543Y-107253152D01*
X146041543Y-107253152D02*
X146136781Y-107253152D01*
X147089163Y-107253152D02*
X147470115Y-107253152D01*
X147232020Y-106919819D02*
X147232020Y-107776961D01*
X147232020Y-107776961D02*
X147279639Y-107872200D01*
X147279639Y-107872200D02*
X147374877Y-107919819D01*
X147374877Y-107919819D02*
X147470115Y-107919819D01*
X147803449Y-107919819D02*
X147803449Y-106919819D01*
X148232020Y-107919819D02*
X148232020Y-107396009D01*
X148232020Y-107396009D02*
X148184401Y-107300771D01*
X148184401Y-107300771D02*
X148089163Y-107253152D01*
X148089163Y-107253152D02*
X147946306Y-107253152D01*
X147946306Y-107253152D02*
X147851068Y-107300771D01*
X147851068Y-107300771D02*
X147803449Y-107348390D01*
X148708211Y-107919819D02*
X148708211Y-107253152D01*
X148708211Y-106919819D02*
X148660592Y-106967438D01*
X148660592Y-106967438D02*
X148708211Y-107015057D01*
X148708211Y-107015057D02*
X148755830Y-106967438D01*
X148755830Y-106967438D02*
X148708211Y-106919819D01*
X148708211Y-106919819D02*
X148708211Y-107015057D01*
X149612972Y-107872200D02*
X149517734Y-107919819D01*
X149517734Y-107919819D02*
X149327258Y-107919819D01*
X149327258Y-107919819D02*
X149232020Y-107872200D01*
X149232020Y-107872200D02*
X149184401Y-107824580D01*
X149184401Y-107824580D02*
X149136782Y-107729342D01*
X149136782Y-107729342D02*
X149136782Y-107443628D01*
X149136782Y-107443628D02*
X149184401Y-107348390D01*
X149184401Y-107348390D02*
X149232020Y-107300771D01*
X149232020Y-107300771D02*
X149327258Y-107253152D01*
X149327258Y-107253152D02*
X149517734Y-107253152D01*
X149517734Y-107253152D02*
X149612972Y-107300771D01*
X150041544Y-107919819D02*
X150041544Y-106919819D01*
X150136782Y-107538866D02*
X150422496Y-107919819D01*
X150422496Y-107253152D02*
X150041544Y-107634104D01*
X150851068Y-107253152D02*
X150851068Y-107919819D01*
X150851068Y-107348390D02*
X150898687Y-107300771D01*
X150898687Y-107300771D02*
X150993925Y-107253152D01*
X150993925Y-107253152D02*
X151136782Y-107253152D01*
X151136782Y-107253152D02*
X151232020Y-107300771D01*
X151232020Y-107300771D02*
X151279639Y-107396009D01*
X151279639Y-107396009D02*
X151279639Y-107919819D01*
X152136782Y-107872200D02*
X152041544Y-107919819D01*
X152041544Y-107919819D02*
X151851068Y-107919819D01*
X151851068Y-107919819D02*
X151755830Y-107872200D01*
X151755830Y-107872200D02*
X151708211Y-107776961D01*
X151708211Y-107776961D02*
X151708211Y-107396009D01*
X151708211Y-107396009D02*
X151755830Y-107300771D01*
X151755830Y-107300771D02*
X151851068Y-107253152D01*
X151851068Y-107253152D02*
X152041544Y-107253152D01*
X152041544Y-107253152D02*
X152136782Y-107300771D01*
X152136782Y-107300771D02*
X152184401Y-107396009D01*
X152184401Y-107396009D02*
X152184401Y-107491247D01*
X152184401Y-107491247D02*
X151708211Y-107586485D01*
X152565354Y-107872200D02*
X152660592Y-107919819D01*
X152660592Y-107919819D02*
X152851068Y-107919819D01*
X152851068Y-107919819D02*
X152946306Y-107872200D01*
X152946306Y-107872200D02*
X152993925Y-107776961D01*
X152993925Y-107776961D02*
X152993925Y-107729342D01*
X152993925Y-107729342D02*
X152946306Y-107634104D01*
X152946306Y-107634104D02*
X152851068Y-107586485D01*
X152851068Y-107586485D02*
X152708211Y-107586485D01*
X152708211Y-107586485D02*
X152612973Y-107538866D01*
X152612973Y-107538866D02*
X152565354Y-107443628D01*
X152565354Y-107443628D02*
X152565354Y-107396009D01*
X152565354Y-107396009D02*
X152612973Y-107300771D01*
X152612973Y-107300771D02*
X152708211Y-107253152D01*
X152708211Y-107253152D02*
X152851068Y-107253152D01*
X152851068Y-107253152D02*
X152946306Y-107300771D01*
X153374878Y-107872200D02*
X153470116Y-107919819D01*
X153470116Y-107919819D02*
X153660592Y-107919819D01*
X153660592Y-107919819D02*
X153755830Y-107872200D01*
X153755830Y-107872200D02*
X153803449Y-107776961D01*
X153803449Y-107776961D02*
X153803449Y-107729342D01*
X153803449Y-107729342D02*
X153755830Y-107634104D01*
X153755830Y-107634104D02*
X153660592Y-107586485D01*
X153660592Y-107586485D02*
X153517735Y-107586485D01*
X153517735Y-107586485D02*
X153422497Y-107538866D01*
X153422497Y-107538866D02*
X153374878Y-107443628D01*
X153374878Y-107443628D02*
X153374878Y-107396009D01*
X153374878Y-107396009D02*
X153422497Y-107300771D01*
X153422497Y-107300771D02*
X153517735Y-107253152D01*
X153517735Y-107253152D02*
X153660592Y-107253152D01*
X153660592Y-107253152D02*
X153755830Y-107300771D01*
X154232021Y-107824580D02*
X154279640Y-107872200D01*
X154279640Y-107872200D02*
X154232021Y-107919819D01*
X154232021Y-107919819D02*
X154184402Y-107872200D01*
X154184402Y-107872200D02*
X154232021Y-107824580D01*
X154232021Y-107824580D02*
X154232021Y-107919819D01*
X154232021Y-107300771D02*
X154279640Y-107348390D01*
X154279640Y-107348390D02*
X154232021Y-107396009D01*
X154232021Y-107396009D02*
X154184402Y-107348390D01*
X154184402Y-107348390D02*
X154232021Y-107300771D01*
X154232021Y-107300771D02*
X154232021Y-107396009D01*
X155660592Y-106919819D02*
X155755830Y-106919819D01*
X155755830Y-106919819D02*
X155851068Y-106967438D01*
X155851068Y-106967438D02*
X155898687Y-107015057D01*
X155898687Y-107015057D02*
X155946306Y-107110295D01*
X155946306Y-107110295D02*
X155993925Y-107300771D01*
X155993925Y-107300771D02*
X155993925Y-107538866D01*
X155993925Y-107538866D02*
X155946306Y-107729342D01*
X155946306Y-107729342D02*
X155898687Y-107824580D01*
X155898687Y-107824580D02*
X155851068Y-107872200D01*
X155851068Y-107872200D02*
X155755830Y-107919819D01*
X155755830Y-107919819D02*
X155660592Y-107919819D01*
X155660592Y-107919819D02*
X155565354Y-107872200D01*
X155565354Y-107872200D02*
X155517735Y-107824580D01*
X155517735Y-107824580D02*
X155470116Y-107729342D01*
X155470116Y-107729342D02*
X155422497Y-107538866D01*
X155422497Y-107538866D02*
X155422497Y-107300771D01*
X155422497Y-107300771D02*
X155470116Y-107110295D01*
X155470116Y-107110295D02*
X155517735Y-107015057D01*
X155517735Y-107015057D02*
X155565354Y-106967438D01*
X155565354Y-106967438D02*
X155660592Y-106919819D01*
X156422497Y-107824580D02*
X156470116Y-107872200D01*
X156470116Y-107872200D02*
X156422497Y-107919819D01*
X156422497Y-107919819D02*
X156374878Y-107872200D01*
X156374878Y-107872200D02*
X156422497Y-107824580D01*
X156422497Y-107824580D02*
X156422497Y-107919819D01*
X156803449Y-106919819D02*
X157422496Y-106919819D01*
X157422496Y-106919819D02*
X157089163Y-107300771D01*
X157089163Y-107300771D02*
X157232020Y-107300771D01*
X157232020Y-107300771D02*
X157327258Y-107348390D01*
X157327258Y-107348390D02*
X157374877Y-107396009D01*
X157374877Y-107396009D02*
X157422496Y-107491247D01*
X157422496Y-107491247D02*
X157422496Y-107729342D01*
X157422496Y-107729342D02*
X157374877Y-107824580D01*
X157374877Y-107824580D02*
X157327258Y-107872200D01*
X157327258Y-107872200D02*
X157232020Y-107919819D01*
X157232020Y-107919819D02*
X156946306Y-107919819D01*
X156946306Y-107919819D02*
X156851068Y-107872200D01*
X156851068Y-107872200D02*
X156803449Y-107824580D01*
X158374877Y-107919819D02*
X157803449Y-107919819D01*
X158089163Y-107919819D02*
X158089163Y-106919819D01*
X158089163Y-106919819D02*
X157993925Y-107062676D01*
X157993925Y-107062676D02*
X157898687Y-107157914D01*
X157898687Y-107157914D02*
X157803449Y-107205533D01*
X158803449Y-107919819D02*
X158803449Y-107253152D01*
X158803449Y-107348390D02*
X158851068Y-107300771D01*
X158851068Y-107300771D02*
X158946306Y-107253152D01*
X158946306Y-107253152D02*
X159089163Y-107253152D01*
X159089163Y-107253152D02*
X159184401Y-107300771D01*
X159184401Y-107300771D02*
X159232020Y-107396009D01*
X159232020Y-107396009D02*
X159232020Y-107919819D01*
X159232020Y-107396009D02*
X159279639Y-107300771D01*
X159279639Y-107300771D02*
X159374877Y-107253152D01*
X159374877Y-107253152D02*
X159517734Y-107253152D01*
X159517734Y-107253152D02*
X159612973Y-107300771D01*
X159612973Y-107300771D02*
X159660592Y-107396009D01*
X159660592Y-107396009D02*
X159660592Y-107919819D01*
X160136782Y-107919819D02*
X160136782Y-107253152D01*
X160136782Y-107348390D02*
X160184401Y-107300771D01*
X160184401Y-107300771D02*
X160279639Y-107253152D01*
X160279639Y-107253152D02*
X160422496Y-107253152D01*
X160422496Y-107253152D02*
X160517734Y-107300771D01*
X160517734Y-107300771D02*
X160565353Y-107396009D01*
X160565353Y-107396009D02*
X160565353Y-107919819D01*
X160565353Y-107396009D02*
X160612972Y-107300771D01*
X160612972Y-107300771D02*
X160708210Y-107253152D01*
X160708210Y-107253152D02*
X160851067Y-107253152D01*
X160851067Y-107253152D02*
X160946306Y-107300771D01*
X160946306Y-107300771D02*
X160993925Y-107396009D01*
X160993925Y-107396009D02*
X160993925Y-107919819D01*
X138136779Y-93069819D02*
X138136779Y-92069819D01*
X138136779Y-92069819D02*
X138517731Y-92069819D01*
X138517731Y-92069819D02*
X138612969Y-92117438D01*
X138612969Y-92117438D02*
X138660588Y-92165057D01*
X138660588Y-92165057D02*
X138708207Y-92260295D01*
X138708207Y-92260295D02*
X138708207Y-92403152D01*
X138708207Y-92403152D02*
X138660588Y-92498390D01*
X138660588Y-92498390D02*
X138612969Y-92546009D01*
X138612969Y-92546009D02*
X138517731Y-92593628D01*
X138517731Y-92593628D02*
X138136779Y-92593628D01*
X139136779Y-93069819D02*
X139136779Y-92069819D01*
X140327255Y-93022200D02*
X140470112Y-93069819D01*
X140470112Y-93069819D02*
X140708207Y-93069819D01*
X140708207Y-93069819D02*
X140803445Y-93022200D01*
X140803445Y-93022200D02*
X140851064Y-92974580D01*
X140851064Y-92974580D02*
X140898683Y-92879342D01*
X140898683Y-92879342D02*
X140898683Y-92784104D01*
X140898683Y-92784104D02*
X140851064Y-92688866D01*
X140851064Y-92688866D02*
X140803445Y-92641247D01*
X140803445Y-92641247D02*
X140708207Y-92593628D01*
X140708207Y-92593628D02*
X140517731Y-92546009D01*
X140517731Y-92546009D02*
X140422493Y-92498390D01*
X140422493Y-92498390D02*
X140374874Y-92450771D01*
X140374874Y-92450771D02*
X140327255Y-92355533D01*
X140327255Y-92355533D02*
X140327255Y-92260295D01*
X140327255Y-92260295D02*
X140374874Y-92165057D01*
X140374874Y-92165057D02*
X140422493Y-92117438D01*
X140422493Y-92117438D02*
X140517731Y-92069819D01*
X140517731Y-92069819D02*
X140755826Y-92069819D01*
X140755826Y-92069819D02*
X140898683Y-92117438D01*
X141184398Y-92403152D02*
X141565350Y-92403152D01*
X141327255Y-92069819D02*
X141327255Y-92926961D01*
X141327255Y-92926961D02*
X141374874Y-93022200D01*
X141374874Y-93022200D02*
X141470112Y-93069819D01*
X141470112Y-93069819D02*
X141565350Y-93069819D01*
X141898684Y-93069819D02*
X141898684Y-92403152D01*
X141898684Y-92069819D02*
X141851065Y-92117438D01*
X141851065Y-92117438D02*
X141898684Y-92165057D01*
X141898684Y-92165057D02*
X141946303Y-92117438D01*
X141946303Y-92117438D02*
X141898684Y-92069819D01*
X141898684Y-92069819D02*
X141898684Y-92165057D01*
X142232017Y-92403152D02*
X142612969Y-92403152D01*
X142374874Y-93069819D02*
X142374874Y-92212676D01*
X142374874Y-92212676D02*
X142422493Y-92117438D01*
X142422493Y-92117438D02*
X142517731Y-92069819D01*
X142517731Y-92069819D02*
X142612969Y-92069819D01*
X142803446Y-92403152D02*
X143184398Y-92403152D01*
X142946303Y-93069819D02*
X142946303Y-92212676D01*
X142946303Y-92212676D02*
X142993922Y-92117438D01*
X142993922Y-92117438D02*
X143089160Y-92069819D01*
X143089160Y-92069819D02*
X143184398Y-92069819D01*
X143898684Y-93022200D02*
X143803446Y-93069819D01*
X143803446Y-93069819D02*
X143612970Y-93069819D01*
X143612970Y-93069819D02*
X143517732Y-93022200D01*
X143517732Y-93022200D02*
X143470113Y-92926961D01*
X143470113Y-92926961D02*
X143470113Y-92546009D01*
X143470113Y-92546009D02*
X143517732Y-92450771D01*
X143517732Y-92450771D02*
X143612970Y-92403152D01*
X143612970Y-92403152D02*
X143803446Y-92403152D01*
X143803446Y-92403152D02*
X143898684Y-92450771D01*
X143898684Y-92450771D02*
X143946303Y-92546009D01*
X143946303Y-92546009D02*
X143946303Y-92641247D01*
X143946303Y-92641247D02*
X143470113Y-92736485D01*
X144374875Y-92403152D02*
X144374875Y-93069819D01*
X144374875Y-92498390D02*
X144422494Y-92450771D01*
X144422494Y-92450771D02*
X144517732Y-92403152D01*
X144517732Y-92403152D02*
X144660589Y-92403152D01*
X144660589Y-92403152D02*
X144755827Y-92450771D01*
X144755827Y-92450771D02*
X144803446Y-92546009D01*
X144803446Y-92546009D02*
X144803446Y-93069819D01*
X145660589Y-93022200D02*
X145565351Y-93069819D01*
X145565351Y-93069819D02*
X145374875Y-93069819D01*
X145374875Y-93069819D02*
X145279637Y-93022200D01*
X145279637Y-93022200D02*
X145232018Y-92926961D01*
X145232018Y-92926961D02*
X145232018Y-92546009D01*
X145232018Y-92546009D02*
X145279637Y-92450771D01*
X145279637Y-92450771D02*
X145374875Y-92403152D01*
X145374875Y-92403152D02*
X145565351Y-92403152D01*
X145565351Y-92403152D02*
X145660589Y-92450771D01*
X145660589Y-92450771D02*
X145708208Y-92546009D01*
X145708208Y-92546009D02*
X145708208Y-92641247D01*
X145708208Y-92641247D02*
X145232018Y-92736485D01*
X146136780Y-93069819D02*
X146136780Y-92403152D01*
X146136780Y-92593628D02*
X146184399Y-92498390D01*
X146184399Y-92498390D02*
X146232018Y-92450771D01*
X146232018Y-92450771D02*
X146327256Y-92403152D01*
X146327256Y-92403152D02*
X146422494Y-92403152D01*
X147708209Y-92069819D02*
X147803447Y-92069819D01*
X147803447Y-92069819D02*
X147898685Y-92117438D01*
X147898685Y-92117438D02*
X147946304Y-92165057D01*
X147946304Y-92165057D02*
X147993923Y-92260295D01*
X147993923Y-92260295D02*
X148041542Y-92450771D01*
X148041542Y-92450771D02*
X148041542Y-92688866D01*
X148041542Y-92688866D02*
X147993923Y-92879342D01*
X147993923Y-92879342D02*
X147946304Y-92974580D01*
X147946304Y-92974580D02*
X147898685Y-93022200D01*
X147898685Y-93022200D02*
X147803447Y-93069819D01*
X147803447Y-93069819D02*
X147708209Y-93069819D01*
X147708209Y-93069819D02*
X147612971Y-93022200D01*
X147612971Y-93022200D02*
X147565352Y-92974580D01*
X147565352Y-92974580D02*
X147517733Y-92879342D01*
X147517733Y-92879342D02*
X147470114Y-92688866D01*
X147470114Y-92688866D02*
X147470114Y-92450771D01*
X147470114Y-92450771D02*
X147517733Y-92260295D01*
X147517733Y-92260295D02*
X147565352Y-92165057D01*
X147565352Y-92165057D02*
X147612971Y-92117438D01*
X147612971Y-92117438D02*
X147708209Y-92069819D01*
X148470114Y-92974580D02*
X148517733Y-93022200D01*
X148517733Y-93022200D02*
X148470114Y-93069819D01*
X148470114Y-93069819D02*
X148422495Y-93022200D01*
X148422495Y-93022200D02*
X148470114Y-92974580D01*
X148470114Y-92974580D02*
X148470114Y-93069819D01*
X148898685Y-92165057D02*
X148946304Y-92117438D01*
X148946304Y-92117438D02*
X149041542Y-92069819D01*
X149041542Y-92069819D02*
X149279637Y-92069819D01*
X149279637Y-92069819D02*
X149374875Y-92117438D01*
X149374875Y-92117438D02*
X149422494Y-92165057D01*
X149422494Y-92165057D02*
X149470113Y-92260295D01*
X149470113Y-92260295D02*
X149470113Y-92355533D01*
X149470113Y-92355533D02*
X149422494Y-92498390D01*
X149422494Y-92498390D02*
X148851066Y-93069819D01*
X148851066Y-93069819D02*
X149470113Y-93069819D01*
X149898685Y-93069819D02*
X149898685Y-92403152D01*
X149898685Y-92498390D02*
X149946304Y-92450771D01*
X149946304Y-92450771D02*
X150041542Y-92403152D01*
X150041542Y-92403152D02*
X150184399Y-92403152D01*
X150184399Y-92403152D02*
X150279637Y-92450771D01*
X150279637Y-92450771D02*
X150327256Y-92546009D01*
X150327256Y-92546009D02*
X150327256Y-93069819D01*
X150327256Y-92546009D02*
X150374875Y-92450771D01*
X150374875Y-92450771D02*
X150470113Y-92403152D01*
X150470113Y-92403152D02*
X150612970Y-92403152D01*
X150612970Y-92403152D02*
X150708209Y-92450771D01*
X150708209Y-92450771D02*
X150755828Y-92546009D01*
X150755828Y-92546009D02*
X150755828Y-93069819D01*
X151232018Y-93069819D02*
X151232018Y-92403152D01*
X151232018Y-92498390D02*
X151279637Y-92450771D01*
X151279637Y-92450771D02*
X151374875Y-92403152D01*
X151374875Y-92403152D02*
X151517732Y-92403152D01*
X151517732Y-92403152D02*
X151612970Y-92450771D01*
X151612970Y-92450771D02*
X151660589Y-92546009D01*
X151660589Y-92546009D02*
X151660589Y-93069819D01*
X151660589Y-92546009D02*
X151708208Y-92450771D01*
X151708208Y-92450771D02*
X151803446Y-92403152D01*
X151803446Y-92403152D02*
X151946303Y-92403152D01*
X151946303Y-92403152D02*
X152041542Y-92450771D01*
X152041542Y-92450771D02*
X152089161Y-92546009D01*
X152089161Y-92546009D02*
X152089161Y-93069819D01*
M02*
