%TF.GenerationSoftware,KiCad,Pcbnew,8.0.4*%
%TF.CreationDate,2024-07-27T11:55:36+02:00*%
%TF.ProjectId,PA3194G822_R02,50413331-3934-4473-9832-325f5230322e,2*%
%TF.SameCoordinates,Original*%
%TF.FileFunction,Legend,Top*%
%TF.FilePolarity,Positive*%
%FSLAX46Y46*%
G04 Gerber Fmt 4.6, Leading zero omitted, Abs format (unit mm)*
G04 Created by KiCad (PCBNEW 8.0.4) date 2024-07-27 11:55:36*
%MOMM*%
%LPD*%
G01*
G04 APERTURE LIST*
%ADD10C,0.100000*%
%ADD11C,0.150000*%
%ADD12C,0.120000*%
%ADD13C,0.152400*%
%ADD14C,0.200000*%
G04 APERTURE END LIST*
D10*
X113730000Y-106467500D02*
X125780000Y-106467500D01*
X125780000Y-112732500D01*
X113730000Y-112732500D01*
X113730000Y-106467500D01*
X108823884Y-91492419D02*
X108823884Y-90492419D01*
X108823884Y-90492419D02*
X109204836Y-90492419D01*
X109204836Y-90492419D02*
X109300074Y-90540038D01*
X109300074Y-90540038D02*
X109347693Y-90587657D01*
X109347693Y-90587657D02*
X109395312Y-90682895D01*
X109395312Y-90682895D02*
X109395312Y-90825752D01*
X109395312Y-90825752D02*
X109347693Y-90920990D01*
X109347693Y-90920990D02*
X109300074Y-90968609D01*
X109300074Y-90968609D02*
X109204836Y-91016228D01*
X109204836Y-91016228D02*
X108823884Y-91016228D01*
X109966741Y-91492419D02*
X109871503Y-91444800D01*
X109871503Y-91444800D02*
X109823884Y-91349561D01*
X109823884Y-91349561D02*
X109823884Y-90492419D01*
X110776265Y-91492419D02*
X110776265Y-90968609D01*
X110776265Y-90968609D02*
X110728646Y-90873371D01*
X110728646Y-90873371D02*
X110633408Y-90825752D01*
X110633408Y-90825752D02*
X110442932Y-90825752D01*
X110442932Y-90825752D02*
X110347694Y-90873371D01*
X110776265Y-91444800D02*
X110681027Y-91492419D01*
X110681027Y-91492419D02*
X110442932Y-91492419D01*
X110442932Y-91492419D02*
X110347694Y-91444800D01*
X110347694Y-91444800D02*
X110300075Y-91349561D01*
X110300075Y-91349561D02*
X110300075Y-91254323D01*
X110300075Y-91254323D02*
X110347694Y-91159085D01*
X110347694Y-91159085D02*
X110442932Y-91111466D01*
X110442932Y-91111466D02*
X110681027Y-91111466D01*
X110681027Y-91111466D02*
X110776265Y-91063847D01*
X111681027Y-91444800D02*
X111585789Y-91492419D01*
X111585789Y-91492419D02*
X111395313Y-91492419D01*
X111395313Y-91492419D02*
X111300075Y-91444800D01*
X111300075Y-91444800D02*
X111252456Y-91397180D01*
X111252456Y-91397180D02*
X111204837Y-91301942D01*
X111204837Y-91301942D02*
X111204837Y-91016228D01*
X111204837Y-91016228D02*
X111252456Y-90920990D01*
X111252456Y-90920990D02*
X111300075Y-90873371D01*
X111300075Y-90873371D02*
X111395313Y-90825752D01*
X111395313Y-90825752D02*
X111585789Y-90825752D01*
X111585789Y-90825752D02*
X111681027Y-90873371D01*
X112490551Y-91444800D02*
X112395313Y-91492419D01*
X112395313Y-91492419D02*
X112204837Y-91492419D01*
X112204837Y-91492419D02*
X112109599Y-91444800D01*
X112109599Y-91444800D02*
X112061980Y-91349561D01*
X112061980Y-91349561D02*
X112061980Y-90968609D01*
X112061980Y-90968609D02*
X112109599Y-90873371D01*
X112109599Y-90873371D02*
X112204837Y-90825752D01*
X112204837Y-90825752D02*
X112395313Y-90825752D01*
X112395313Y-90825752D02*
X112490551Y-90873371D01*
X112490551Y-90873371D02*
X112538170Y-90968609D01*
X112538170Y-90968609D02*
X112538170Y-91063847D01*
X112538170Y-91063847D02*
X112061980Y-91159085D01*
X114204837Y-91492419D02*
X113728647Y-91492419D01*
X113728647Y-91492419D02*
X113728647Y-90492419D01*
X115109599Y-91397180D02*
X115061980Y-91444800D01*
X115061980Y-91444800D02*
X114919123Y-91492419D01*
X114919123Y-91492419D02*
X114823885Y-91492419D01*
X114823885Y-91492419D02*
X114681028Y-91444800D01*
X114681028Y-91444800D02*
X114585790Y-91349561D01*
X114585790Y-91349561D02*
X114538171Y-91254323D01*
X114538171Y-91254323D02*
X114490552Y-91063847D01*
X114490552Y-91063847D02*
X114490552Y-90920990D01*
X114490552Y-90920990D02*
X114538171Y-90730514D01*
X114538171Y-90730514D02*
X114585790Y-90635276D01*
X114585790Y-90635276D02*
X114681028Y-90540038D01*
X114681028Y-90540038D02*
X114823885Y-90492419D01*
X114823885Y-90492419D02*
X114919123Y-90492419D01*
X114919123Y-90492419D02*
X115061980Y-90540038D01*
X115061980Y-90540038D02*
X115109599Y-90587657D01*
X115538171Y-91492419D02*
X115538171Y-90492419D01*
X115538171Y-90492419D02*
X115776266Y-90492419D01*
X115776266Y-90492419D02*
X115919123Y-90540038D01*
X115919123Y-90540038D02*
X116014361Y-90635276D01*
X116014361Y-90635276D02*
X116061980Y-90730514D01*
X116061980Y-90730514D02*
X116109599Y-90920990D01*
X116109599Y-90920990D02*
X116109599Y-91063847D01*
X116109599Y-91063847D02*
X116061980Y-91254323D01*
X116061980Y-91254323D02*
X116014361Y-91349561D01*
X116014361Y-91349561D02*
X115919123Y-91444800D01*
X115919123Y-91444800D02*
X115776266Y-91492419D01*
X115776266Y-91492419D02*
X115538171Y-91492419D01*
X117442933Y-91492419D02*
X117347695Y-91444800D01*
X117347695Y-91444800D02*
X117300076Y-91397180D01*
X117300076Y-91397180D02*
X117252457Y-91301942D01*
X117252457Y-91301942D02*
X117252457Y-91016228D01*
X117252457Y-91016228D02*
X117300076Y-90920990D01*
X117300076Y-90920990D02*
X117347695Y-90873371D01*
X117347695Y-90873371D02*
X117442933Y-90825752D01*
X117442933Y-90825752D02*
X117585790Y-90825752D01*
X117585790Y-90825752D02*
X117681028Y-90873371D01*
X117681028Y-90873371D02*
X117728647Y-90920990D01*
X117728647Y-90920990D02*
X117776266Y-91016228D01*
X117776266Y-91016228D02*
X117776266Y-91301942D01*
X117776266Y-91301942D02*
X117728647Y-91397180D01*
X117728647Y-91397180D02*
X117681028Y-91444800D01*
X117681028Y-91444800D02*
X117585790Y-91492419D01*
X117585790Y-91492419D02*
X117442933Y-91492419D01*
X118204838Y-90825752D02*
X118204838Y-91492419D01*
X118204838Y-90920990D02*
X118252457Y-90873371D01*
X118252457Y-90873371D02*
X118347695Y-90825752D01*
X118347695Y-90825752D02*
X118490552Y-90825752D01*
X118490552Y-90825752D02*
X118585790Y-90873371D01*
X118585790Y-90873371D02*
X118633409Y-90968609D01*
X118633409Y-90968609D02*
X118633409Y-91492419D01*
X120014362Y-91492419D02*
X119919124Y-91444800D01*
X119919124Y-91444800D02*
X119871505Y-91397180D01*
X119871505Y-91397180D02*
X119823886Y-91301942D01*
X119823886Y-91301942D02*
X119823886Y-91016228D01*
X119823886Y-91016228D02*
X119871505Y-90920990D01*
X119871505Y-90920990D02*
X119919124Y-90873371D01*
X119919124Y-90873371D02*
X120014362Y-90825752D01*
X120014362Y-90825752D02*
X120157219Y-90825752D01*
X120157219Y-90825752D02*
X120252457Y-90873371D01*
X120252457Y-90873371D02*
X120300076Y-90920990D01*
X120300076Y-90920990D02*
X120347695Y-91016228D01*
X120347695Y-91016228D02*
X120347695Y-91301942D01*
X120347695Y-91301942D02*
X120300076Y-91397180D01*
X120300076Y-91397180D02*
X120252457Y-91444800D01*
X120252457Y-91444800D02*
X120157219Y-91492419D01*
X120157219Y-91492419D02*
X120014362Y-91492419D01*
X120776267Y-90825752D02*
X120776267Y-91825752D01*
X120776267Y-90873371D02*
X120871505Y-90825752D01*
X120871505Y-90825752D02*
X121061981Y-90825752D01*
X121061981Y-90825752D02*
X121157219Y-90873371D01*
X121157219Y-90873371D02*
X121204838Y-90920990D01*
X121204838Y-90920990D02*
X121252457Y-91016228D01*
X121252457Y-91016228D02*
X121252457Y-91301942D01*
X121252457Y-91301942D02*
X121204838Y-91397180D01*
X121204838Y-91397180D02*
X121157219Y-91444800D01*
X121157219Y-91444800D02*
X121061981Y-91492419D01*
X121061981Y-91492419D02*
X120871505Y-91492419D01*
X120871505Y-91492419D02*
X120776267Y-91444800D01*
X121681029Y-90825752D02*
X121681029Y-91825752D01*
X121681029Y-90873371D02*
X121776267Y-90825752D01*
X121776267Y-90825752D02*
X121966743Y-90825752D01*
X121966743Y-90825752D02*
X122061981Y-90873371D01*
X122061981Y-90873371D02*
X122109600Y-90920990D01*
X122109600Y-90920990D02*
X122157219Y-91016228D01*
X122157219Y-91016228D02*
X122157219Y-91301942D01*
X122157219Y-91301942D02*
X122109600Y-91397180D01*
X122109600Y-91397180D02*
X122061981Y-91444800D01*
X122061981Y-91444800D02*
X121966743Y-91492419D01*
X121966743Y-91492419D02*
X121776267Y-91492419D01*
X121776267Y-91492419D02*
X121681029Y-91444800D01*
X122728648Y-91492419D02*
X122633410Y-91444800D01*
X122633410Y-91444800D02*
X122585791Y-91397180D01*
X122585791Y-91397180D02*
X122538172Y-91301942D01*
X122538172Y-91301942D02*
X122538172Y-91016228D01*
X122538172Y-91016228D02*
X122585791Y-90920990D01*
X122585791Y-90920990D02*
X122633410Y-90873371D01*
X122633410Y-90873371D02*
X122728648Y-90825752D01*
X122728648Y-90825752D02*
X122871505Y-90825752D01*
X122871505Y-90825752D02*
X122966743Y-90873371D01*
X122966743Y-90873371D02*
X123014362Y-90920990D01*
X123014362Y-90920990D02*
X123061981Y-91016228D01*
X123061981Y-91016228D02*
X123061981Y-91301942D01*
X123061981Y-91301942D02*
X123014362Y-91397180D01*
X123014362Y-91397180D02*
X122966743Y-91444800D01*
X122966743Y-91444800D02*
X122871505Y-91492419D01*
X122871505Y-91492419D02*
X122728648Y-91492419D01*
X123442934Y-91444800D02*
X123538172Y-91492419D01*
X123538172Y-91492419D02*
X123728648Y-91492419D01*
X123728648Y-91492419D02*
X123823886Y-91444800D01*
X123823886Y-91444800D02*
X123871505Y-91349561D01*
X123871505Y-91349561D02*
X123871505Y-91301942D01*
X123871505Y-91301942D02*
X123823886Y-91206704D01*
X123823886Y-91206704D02*
X123728648Y-91159085D01*
X123728648Y-91159085D02*
X123585791Y-91159085D01*
X123585791Y-91159085D02*
X123490553Y-91111466D01*
X123490553Y-91111466D02*
X123442934Y-91016228D01*
X123442934Y-91016228D02*
X123442934Y-90968609D01*
X123442934Y-90968609D02*
X123490553Y-90873371D01*
X123490553Y-90873371D02*
X123585791Y-90825752D01*
X123585791Y-90825752D02*
X123728648Y-90825752D01*
X123728648Y-90825752D02*
X123823886Y-90873371D01*
X124300077Y-91492419D02*
X124300077Y-90825752D01*
X124300077Y-90492419D02*
X124252458Y-90540038D01*
X124252458Y-90540038D02*
X124300077Y-90587657D01*
X124300077Y-90587657D02*
X124347696Y-90540038D01*
X124347696Y-90540038D02*
X124300077Y-90492419D01*
X124300077Y-90492419D02*
X124300077Y-90587657D01*
X124633410Y-90825752D02*
X125014362Y-90825752D01*
X124776267Y-90492419D02*
X124776267Y-91349561D01*
X124776267Y-91349561D02*
X124823886Y-91444800D01*
X124823886Y-91444800D02*
X124919124Y-91492419D01*
X124919124Y-91492419D02*
X125014362Y-91492419D01*
X125728648Y-91444800D02*
X125633410Y-91492419D01*
X125633410Y-91492419D02*
X125442934Y-91492419D01*
X125442934Y-91492419D02*
X125347696Y-91444800D01*
X125347696Y-91444800D02*
X125300077Y-91349561D01*
X125300077Y-91349561D02*
X125300077Y-90968609D01*
X125300077Y-90968609D02*
X125347696Y-90873371D01*
X125347696Y-90873371D02*
X125442934Y-90825752D01*
X125442934Y-90825752D02*
X125633410Y-90825752D01*
X125633410Y-90825752D02*
X125728648Y-90873371D01*
X125728648Y-90873371D02*
X125776267Y-90968609D01*
X125776267Y-90968609D02*
X125776267Y-91063847D01*
X125776267Y-91063847D02*
X125300077Y-91159085D01*
X126919125Y-91444800D02*
X127014363Y-91492419D01*
X127014363Y-91492419D02*
X127204839Y-91492419D01*
X127204839Y-91492419D02*
X127300077Y-91444800D01*
X127300077Y-91444800D02*
X127347696Y-91349561D01*
X127347696Y-91349561D02*
X127347696Y-91301942D01*
X127347696Y-91301942D02*
X127300077Y-91206704D01*
X127300077Y-91206704D02*
X127204839Y-91159085D01*
X127204839Y-91159085D02*
X127061982Y-91159085D01*
X127061982Y-91159085D02*
X126966744Y-91111466D01*
X126966744Y-91111466D02*
X126919125Y-91016228D01*
X126919125Y-91016228D02*
X126919125Y-90968609D01*
X126919125Y-90968609D02*
X126966744Y-90873371D01*
X126966744Y-90873371D02*
X127061982Y-90825752D01*
X127061982Y-90825752D02*
X127204839Y-90825752D01*
X127204839Y-90825752D02*
X127300077Y-90873371D01*
X127776268Y-91492419D02*
X127776268Y-90825752D01*
X127776268Y-90492419D02*
X127728649Y-90540038D01*
X127728649Y-90540038D02*
X127776268Y-90587657D01*
X127776268Y-90587657D02*
X127823887Y-90540038D01*
X127823887Y-90540038D02*
X127776268Y-90492419D01*
X127776268Y-90492419D02*
X127776268Y-90587657D01*
X128681029Y-91492419D02*
X128681029Y-90492419D01*
X128681029Y-91444800D02*
X128585791Y-91492419D01*
X128585791Y-91492419D02*
X128395315Y-91492419D01*
X128395315Y-91492419D02*
X128300077Y-91444800D01*
X128300077Y-91444800D02*
X128252458Y-91397180D01*
X128252458Y-91397180D02*
X128204839Y-91301942D01*
X128204839Y-91301942D02*
X128204839Y-91016228D01*
X128204839Y-91016228D02*
X128252458Y-90920990D01*
X128252458Y-90920990D02*
X128300077Y-90873371D01*
X128300077Y-90873371D02*
X128395315Y-90825752D01*
X128395315Y-90825752D02*
X128585791Y-90825752D01*
X128585791Y-90825752D02*
X128681029Y-90873371D01*
X129538172Y-91444800D02*
X129442934Y-91492419D01*
X129442934Y-91492419D02*
X129252458Y-91492419D01*
X129252458Y-91492419D02*
X129157220Y-91444800D01*
X129157220Y-91444800D02*
X129109601Y-91349561D01*
X129109601Y-91349561D02*
X129109601Y-90968609D01*
X129109601Y-90968609D02*
X129157220Y-90873371D01*
X129157220Y-90873371D02*
X129252458Y-90825752D01*
X129252458Y-90825752D02*
X129442934Y-90825752D01*
X129442934Y-90825752D02*
X129538172Y-90873371D01*
X129538172Y-90873371D02*
X129585791Y-90968609D01*
X129585791Y-90968609D02*
X129585791Y-91063847D01*
X129585791Y-91063847D02*
X129109601Y-91159085D01*
X130014363Y-91397180D02*
X130061982Y-91444800D01*
X130061982Y-91444800D02*
X130014363Y-91492419D01*
X130014363Y-91492419D02*
X129966744Y-91444800D01*
X129966744Y-91444800D02*
X130014363Y-91397180D01*
X130014363Y-91397180D02*
X130014363Y-91492419D01*
X130014363Y-91111466D02*
X129966744Y-90540038D01*
X129966744Y-90540038D02*
X130014363Y-90492419D01*
X130014363Y-90492419D02*
X130061982Y-90540038D01*
X130061982Y-90540038D02*
X130014363Y-91111466D01*
X130014363Y-91111466D02*
X130014363Y-90492419D01*
X115223884Y-108582531D02*
X115223884Y-107582531D01*
X115223884Y-107582531D02*
X115604836Y-107582531D01*
X115604836Y-107582531D02*
X115700074Y-107630150D01*
X115700074Y-107630150D02*
X115747693Y-107677769D01*
X115747693Y-107677769D02*
X115795312Y-107773007D01*
X115795312Y-107773007D02*
X115795312Y-107915864D01*
X115795312Y-107915864D02*
X115747693Y-108011102D01*
X115747693Y-108011102D02*
X115700074Y-108058721D01*
X115700074Y-108058721D02*
X115604836Y-108106340D01*
X115604836Y-108106340D02*
X115223884Y-108106340D01*
X116176265Y-108296816D02*
X116652455Y-108296816D01*
X116081027Y-108582531D02*
X116414360Y-107582531D01*
X116414360Y-107582531D02*
X116747693Y-108582531D01*
X116985789Y-107582531D02*
X117604836Y-107582531D01*
X117604836Y-107582531D02*
X117271503Y-107963483D01*
X117271503Y-107963483D02*
X117414360Y-107963483D01*
X117414360Y-107963483D02*
X117509598Y-108011102D01*
X117509598Y-108011102D02*
X117557217Y-108058721D01*
X117557217Y-108058721D02*
X117604836Y-108153959D01*
X117604836Y-108153959D02*
X117604836Y-108392054D01*
X117604836Y-108392054D02*
X117557217Y-108487292D01*
X117557217Y-108487292D02*
X117509598Y-108534912D01*
X117509598Y-108534912D02*
X117414360Y-108582531D01*
X117414360Y-108582531D02*
X117128646Y-108582531D01*
X117128646Y-108582531D02*
X117033408Y-108534912D01*
X117033408Y-108534912D02*
X116985789Y-108487292D01*
X118557217Y-108582531D02*
X117985789Y-108582531D01*
X118271503Y-108582531D02*
X118271503Y-107582531D01*
X118271503Y-107582531D02*
X118176265Y-107725388D01*
X118176265Y-107725388D02*
X118081027Y-107820626D01*
X118081027Y-107820626D02*
X117985789Y-107868245D01*
X119033408Y-108582531D02*
X119223884Y-108582531D01*
X119223884Y-108582531D02*
X119319122Y-108534912D01*
X119319122Y-108534912D02*
X119366741Y-108487292D01*
X119366741Y-108487292D02*
X119461979Y-108344435D01*
X119461979Y-108344435D02*
X119509598Y-108153959D01*
X119509598Y-108153959D02*
X119509598Y-107773007D01*
X119509598Y-107773007D02*
X119461979Y-107677769D01*
X119461979Y-107677769D02*
X119414360Y-107630150D01*
X119414360Y-107630150D02*
X119319122Y-107582531D01*
X119319122Y-107582531D02*
X119128646Y-107582531D01*
X119128646Y-107582531D02*
X119033408Y-107630150D01*
X119033408Y-107630150D02*
X118985789Y-107677769D01*
X118985789Y-107677769D02*
X118938170Y-107773007D01*
X118938170Y-107773007D02*
X118938170Y-108011102D01*
X118938170Y-108011102D02*
X118985789Y-108106340D01*
X118985789Y-108106340D02*
X119033408Y-108153959D01*
X119033408Y-108153959D02*
X119128646Y-108201578D01*
X119128646Y-108201578D02*
X119319122Y-108201578D01*
X119319122Y-108201578D02*
X119414360Y-108153959D01*
X119414360Y-108153959D02*
X119461979Y-108106340D01*
X119461979Y-108106340D02*
X119509598Y-108011102D01*
X120366741Y-107915864D02*
X120366741Y-108582531D01*
X120128646Y-107534912D02*
X119890551Y-108249197D01*
X119890551Y-108249197D02*
X120509598Y-108249197D01*
X121414360Y-107630150D02*
X121319122Y-107582531D01*
X121319122Y-107582531D02*
X121176265Y-107582531D01*
X121176265Y-107582531D02*
X121033408Y-107630150D01*
X121033408Y-107630150D02*
X120938170Y-107725388D01*
X120938170Y-107725388D02*
X120890551Y-107820626D01*
X120890551Y-107820626D02*
X120842932Y-108011102D01*
X120842932Y-108011102D02*
X120842932Y-108153959D01*
X120842932Y-108153959D02*
X120890551Y-108344435D01*
X120890551Y-108344435D02*
X120938170Y-108439673D01*
X120938170Y-108439673D02*
X121033408Y-108534912D01*
X121033408Y-108534912D02*
X121176265Y-108582531D01*
X121176265Y-108582531D02*
X121271503Y-108582531D01*
X121271503Y-108582531D02*
X121414360Y-108534912D01*
X121414360Y-108534912D02*
X121461979Y-108487292D01*
X121461979Y-108487292D02*
X121461979Y-108153959D01*
X121461979Y-108153959D02*
X121271503Y-108153959D01*
X122033408Y-108011102D02*
X121938170Y-107963483D01*
X121938170Y-107963483D02*
X121890551Y-107915864D01*
X121890551Y-107915864D02*
X121842932Y-107820626D01*
X121842932Y-107820626D02*
X121842932Y-107773007D01*
X121842932Y-107773007D02*
X121890551Y-107677769D01*
X121890551Y-107677769D02*
X121938170Y-107630150D01*
X121938170Y-107630150D02*
X122033408Y-107582531D01*
X122033408Y-107582531D02*
X122223884Y-107582531D01*
X122223884Y-107582531D02*
X122319122Y-107630150D01*
X122319122Y-107630150D02*
X122366741Y-107677769D01*
X122366741Y-107677769D02*
X122414360Y-107773007D01*
X122414360Y-107773007D02*
X122414360Y-107820626D01*
X122414360Y-107820626D02*
X122366741Y-107915864D01*
X122366741Y-107915864D02*
X122319122Y-107963483D01*
X122319122Y-107963483D02*
X122223884Y-108011102D01*
X122223884Y-108011102D02*
X122033408Y-108011102D01*
X122033408Y-108011102D02*
X121938170Y-108058721D01*
X121938170Y-108058721D02*
X121890551Y-108106340D01*
X121890551Y-108106340D02*
X121842932Y-108201578D01*
X121842932Y-108201578D02*
X121842932Y-108392054D01*
X121842932Y-108392054D02*
X121890551Y-108487292D01*
X121890551Y-108487292D02*
X121938170Y-108534912D01*
X121938170Y-108534912D02*
X122033408Y-108582531D01*
X122033408Y-108582531D02*
X122223884Y-108582531D01*
X122223884Y-108582531D02*
X122319122Y-108534912D01*
X122319122Y-108534912D02*
X122366741Y-108487292D01*
X122366741Y-108487292D02*
X122414360Y-108392054D01*
X122414360Y-108392054D02*
X122414360Y-108201578D01*
X122414360Y-108201578D02*
X122366741Y-108106340D01*
X122366741Y-108106340D02*
X122319122Y-108058721D01*
X122319122Y-108058721D02*
X122223884Y-108011102D01*
X122795313Y-107677769D02*
X122842932Y-107630150D01*
X122842932Y-107630150D02*
X122938170Y-107582531D01*
X122938170Y-107582531D02*
X123176265Y-107582531D01*
X123176265Y-107582531D02*
X123271503Y-107630150D01*
X123271503Y-107630150D02*
X123319122Y-107677769D01*
X123319122Y-107677769D02*
X123366741Y-107773007D01*
X123366741Y-107773007D02*
X123366741Y-107868245D01*
X123366741Y-107868245D02*
X123319122Y-108011102D01*
X123319122Y-108011102D02*
X122747694Y-108582531D01*
X122747694Y-108582531D02*
X123366741Y-108582531D01*
X123747694Y-107677769D02*
X123795313Y-107630150D01*
X123795313Y-107630150D02*
X123890551Y-107582531D01*
X123890551Y-107582531D02*
X124128646Y-107582531D01*
X124128646Y-107582531D02*
X124223884Y-107630150D01*
X124223884Y-107630150D02*
X124271503Y-107677769D01*
X124271503Y-107677769D02*
X124319122Y-107773007D01*
X124319122Y-107773007D02*
X124319122Y-107868245D01*
X124319122Y-107868245D02*
X124271503Y-108011102D01*
X124271503Y-108011102D02*
X123700075Y-108582531D01*
X123700075Y-108582531D02*
X124319122Y-108582531D01*
X115795312Y-110192475D02*
X115461979Y-109716284D01*
X115223884Y-110192475D02*
X115223884Y-109192475D01*
X115223884Y-109192475D02*
X115604836Y-109192475D01*
X115604836Y-109192475D02*
X115700074Y-109240094D01*
X115700074Y-109240094D02*
X115747693Y-109287713D01*
X115747693Y-109287713D02*
X115795312Y-109382951D01*
X115795312Y-109382951D02*
X115795312Y-109525808D01*
X115795312Y-109525808D02*
X115747693Y-109621046D01*
X115747693Y-109621046D02*
X115700074Y-109668665D01*
X115700074Y-109668665D02*
X115604836Y-109716284D01*
X115604836Y-109716284D02*
X115223884Y-109716284D01*
X116604836Y-110144856D02*
X116509598Y-110192475D01*
X116509598Y-110192475D02*
X116319122Y-110192475D01*
X116319122Y-110192475D02*
X116223884Y-110144856D01*
X116223884Y-110144856D02*
X116176265Y-110049617D01*
X116176265Y-110049617D02*
X116176265Y-109668665D01*
X116176265Y-109668665D02*
X116223884Y-109573427D01*
X116223884Y-109573427D02*
X116319122Y-109525808D01*
X116319122Y-109525808D02*
X116509598Y-109525808D01*
X116509598Y-109525808D02*
X116604836Y-109573427D01*
X116604836Y-109573427D02*
X116652455Y-109668665D01*
X116652455Y-109668665D02*
X116652455Y-109763903D01*
X116652455Y-109763903D02*
X116176265Y-109859141D01*
X116985789Y-109525808D02*
X117223884Y-110192475D01*
X117223884Y-110192475D02*
X117461979Y-109525808D01*
X118795313Y-109192475D02*
X118890551Y-109192475D01*
X118890551Y-109192475D02*
X118985789Y-109240094D01*
X118985789Y-109240094D02*
X119033408Y-109287713D01*
X119033408Y-109287713D02*
X119081027Y-109382951D01*
X119081027Y-109382951D02*
X119128646Y-109573427D01*
X119128646Y-109573427D02*
X119128646Y-109811522D01*
X119128646Y-109811522D02*
X119081027Y-110001998D01*
X119081027Y-110001998D02*
X119033408Y-110097236D01*
X119033408Y-110097236D02*
X118985789Y-110144856D01*
X118985789Y-110144856D02*
X118890551Y-110192475D01*
X118890551Y-110192475D02*
X118795313Y-110192475D01*
X118795313Y-110192475D02*
X118700075Y-110144856D01*
X118700075Y-110144856D02*
X118652456Y-110097236D01*
X118652456Y-110097236D02*
X118604837Y-110001998D01*
X118604837Y-110001998D02*
X118557218Y-109811522D01*
X118557218Y-109811522D02*
X118557218Y-109573427D01*
X118557218Y-109573427D02*
X118604837Y-109382951D01*
X118604837Y-109382951D02*
X118652456Y-109287713D01*
X118652456Y-109287713D02*
X118700075Y-109240094D01*
X118700075Y-109240094D02*
X118795313Y-109192475D01*
X119509599Y-109287713D02*
X119557218Y-109240094D01*
X119557218Y-109240094D02*
X119652456Y-109192475D01*
X119652456Y-109192475D02*
X119890551Y-109192475D01*
X119890551Y-109192475D02*
X119985789Y-109240094D01*
X119985789Y-109240094D02*
X120033408Y-109287713D01*
X120033408Y-109287713D02*
X120081027Y-109382951D01*
X120081027Y-109382951D02*
X120081027Y-109478189D01*
X120081027Y-109478189D02*
X120033408Y-109621046D01*
X120033408Y-109621046D02*
X119461980Y-110192475D01*
X119461980Y-110192475D02*
X120081027Y-110192475D01*
X115509598Y-110802419D02*
X115509598Y-111516704D01*
X115509598Y-111516704D02*
X115461979Y-111659561D01*
X115461979Y-111659561D02*
X115366741Y-111754800D01*
X115366741Y-111754800D02*
X115223884Y-111802419D01*
X115223884Y-111802419D02*
X115128646Y-111802419D01*
X116414360Y-111135752D02*
X116414360Y-111802419D01*
X115985789Y-111135752D02*
X115985789Y-111659561D01*
X115985789Y-111659561D02*
X116033408Y-111754800D01*
X116033408Y-111754800D02*
X116128646Y-111802419D01*
X116128646Y-111802419D02*
X116271503Y-111802419D01*
X116271503Y-111802419D02*
X116366741Y-111754800D01*
X116366741Y-111754800D02*
X116414360Y-111707180D01*
X117033408Y-111802419D02*
X116938170Y-111754800D01*
X116938170Y-111754800D02*
X116890551Y-111659561D01*
X116890551Y-111659561D02*
X116890551Y-110802419D01*
X117319123Y-111135752D02*
X117557218Y-111802419D01*
X117795313Y-111135752D02*
X117557218Y-111802419D01*
X117557218Y-111802419D02*
X117461980Y-112040514D01*
X117461980Y-112040514D02*
X117414361Y-112088133D01*
X117414361Y-112088133D02*
X117319123Y-112135752D01*
X118890552Y-110897657D02*
X118938171Y-110850038D01*
X118938171Y-110850038D02*
X119033409Y-110802419D01*
X119033409Y-110802419D02*
X119271504Y-110802419D01*
X119271504Y-110802419D02*
X119366742Y-110850038D01*
X119366742Y-110850038D02*
X119414361Y-110897657D01*
X119414361Y-110897657D02*
X119461980Y-110992895D01*
X119461980Y-110992895D02*
X119461980Y-111088133D01*
X119461980Y-111088133D02*
X119414361Y-111230990D01*
X119414361Y-111230990D02*
X118842933Y-111802419D01*
X118842933Y-111802419D02*
X119461980Y-111802419D01*
X120081028Y-110802419D02*
X120176266Y-110802419D01*
X120176266Y-110802419D02*
X120271504Y-110850038D01*
X120271504Y-110850038D02*
X120319123Y-110897657D01*
X120319123Y-110897657D02*
X120366742Y-110992895D01*
X120366742Y-110992895D02*
X120414361Y-111183371D01*
X120414361Y-111183371D02*
X120414361Y-111421466D01*
X120414361Y-111421466D02*
X120366742Y-111611942D01*
X120366742Y-111611942D02*
X120319123Y-111707180D01*
X120319123Y-111707180D02*
X120271504Y-111754800D01*
X120271504Y-111754800D02*
X120176266Y-111802419D01*
X120176266Y-111802419D02*
X120081028Y-111802419D01*
X120081028Y-111802419D02*
X119985790Y-111754800D01*
X119985790Y-111754800D02*
X119938171Y-111707180D01*
X119938171Y-111707180D02*
X119890552Y-111611942D01*
X119890552Y-111611942D02*
X119842933Y-111421466D01*
X119842933Y-111421466D02*
X119842933Y-111183371D01*
X119842933Y-111183371D02*
X119890552Y-110992895D01*
X119890552Y-110992895D02*
X119938171Y-110897657D01*
X119938171Y-110897657D02*
X119985790Y-110850038D01*
X119985790Y-110850038D02*
X120081028Y-110802419D01*
X120795314Y-110897657D02*
X120842933Y-110850038D01*
X120842933Y-110850038D02*
X120938171Y-110802419D01*
X120938171Y-110802419D02*
X121176266Y-110802419D01*
X121176266Y-110802419D02*
X121271504Y-110850038D01*
X121271504Y-110850038D02*
X121319123Y-110897657D01*
X121319123Y-110897657D02*
X121366742Y-110992895D01*
X121366742Y-110992895D02*
X121366742Y-111088133D01*
X121366742Y-111088133D02*
X121319123Y-111230990D01*
X121319123Y-111230990D02*
X120747695Y-111802419D01*
X120747695Y-111802419D02*
X121366742Y-111802419D01*
X122223885Y-111135752D02*
X122223885Y-111802419D01*
X121985790Y-110754800D02*
X121747695Y-111469085D01*
X121747695Y-111469085D02*
X122366742Y-111469085D01*
D11*
X118173333Y-104559580D02*
X118125714Y-104607200D01*
X118125714Y-104607200D02*
X117982857Y-104654819D01*
X117982857Y-104654819D02*
X117887619Y-104654819D01*
X117887619Y-104654819D02*
X117744762Y-104607200D01*
X117744762Y-104607200D02*
X117649524Y-104511961D01*
X117649524Y-104511961D02*
X117601905Y-104416723D01*
X117601905Y-104416723D02*
X117554286Y-104226247D01*
X117554286Y-104226247D02*
X117554286Y-104083390D01*
X117554286Y-104083390D02*
X117601905Y-103892914D01*
X117601905Y-103892914D02*
X117649524Y-103797676D01*
X117649524Y-103797676D02*
X117744762Y-103702438D01*
X117744762Y-103702438D02*
X117887619Y-103654819D01*
X117887619Y-103654819D02*
X117982857Y-103654819D01*
X117982857Y-103654819D02*
X118125714Y-103702438D01*
X118125714Y-103702438D02*
X118173333Y-103750057D01*
X118554286Y-103750057D02*
X118601905Y-103702438D01*
X118601905Y-103702438D02*
X118697143Y-103654819D01*
X118697143Y-103654819D02*
X118935238Y-103654819D01*
X118935238Y-103654819D02*
X119030476Y-103702438D01*
X119030476Y-103702438D02*
X119078095Y-103750057D01*
X119078095Y-103750057D02*
X119125714Y-103845295D01*
X119125714Y-103845295D02*
X119125714Y-103940533D01*
X119125714Y-103940533D02*
X119078095Y-104083390D01*
X119078095Y-104083390D02*
X118506667Y-104654819D01*
X118506667Y-104654819D02*
X119125714Y-104654819D01*
X121449580Y-100841666D02*
X121497200Y-100889285D01*
X121497200Y-100889285D02*
X121544819Y-101032142D01*
X121544819Y-101032142D02*
X121544819Y-101127380D01*
X121544819Y-101127380D02*
X121497200Y-101270237D01*
X121497200Y-101270237D02*
X121401961Y-101365475D01*
X121401961Y-101365475D02*
X121306723Y-101413094D01*
X121306723Y-101413094D02*
X121116247Y-101460713D01*
X121116247Y-101460713D02*
X120973390Y-101460713D01*
X120973390Y-101460713D02*
X120782914Y-101413094D01*
X120782914Y-101413094D02*
X120687676Y-101365475D01*
X120687676Y-101365475D02*
X120592438Y-101270237D01*
X120592438Y-101270237D02*
X120544819Y-101127380D01*
X120544819Y-101127380D02*
X120544819Y-101032142D01*
X120544819Y-101032142D02*
X120592438Y-100889285D01*
X120592438Y-100889285D02*
X120640057Y-100841666D01*
X121544819Y-99889285D02*
X121544819Y-100460713D01*
X121544819Y-100174999D02*
X120544819Y-100174999D01*
X120544819Y-100174999D02*
X120687676Y-100270237D01*
X120687676Y-100270237D02*
X120782914Y-100365475D01*
X120782914Y-100365475D02*
X120830533Y-100460713D01*
X118406666Y-95581009D02*
X118073333Y-95581009D01*
X118073333Y-96104819D02*
X118073333Y-95104819D01*
X118073333Y-95104819D02*
X118549523Y-95104819D01*
X119263809Y-95581009D02*
X119406666Y-95628628D01*
X119406666Y-95628628D02*
X119454285Y-95676247D01*
X119454285Y-95676247D02*
X119501904Y-95771485D01*
X119501904Y-95771485D02*
X119501904Y-95914342D01*
X119501904Y-95914342D02*
X119454285Y-96009580D01*
X119454285Y-96009580D02*
X119406666Y-96057200D01*
X119406666Y-96057200D02*
X119311428Y-96104819D01*
X119311428Y-96104819D02*
X118930476Y-96104819D01*
X118930476Y-96104819D02*
X118930476Y-95104819D01*
X118930476Y-95104819D02*
X119263809Y-95104819D01*
X119263809Y-95104819D02*
X119359047Y-95152438D01*
X119359047Y-95152438D02*
X119406666Y-95200057D01*
X119406666Y-95200057D02*
X119454285Y-95295295D01*
X119454285Y-95295295D02*
X119454285Y-95390533D01*
X119454285Y-95390533D02*
X119406666Y-95485771D01*
X119406666Y-95485771D02*
X119359047Y-95533390D01*
X119359047Y-95533390D02*
X119263809Y-95581009D01*
X119263809Y-95581009D02*
X118930476Y-95581009D01*
X120454285Y-96104819D02*
X119882857Y-96104819D01*
X120168571Y-96104819D02*
X120168571Y-95104819D01*
X120168571Y-95104819D02*
X120073333Y-95247676D01*
X120073333Y-95247676D02*
X119978095Y-95342914D01*
X119978095Y-95342914D02*
X119882857Y-95390533D01*
X114906666Y-104454819D02*
X114906666Y-105169104D01*
X114906666Y-105169104D02*
X114859047Y-105311961D01*
X114859047Y-105311961D02*
X114763809Y-105407200D01*
X114763809Y-105407200D02*
X114620952Y-105454819D01*
X114620952Y-105454819D02*
X114525714Y-105454819D01*
X115906666Y-105454819D02*
X115335238Y-105454819D01*
X115620952Y-105454819D02*
X115620952Y-104454819D01*
X115620952Y-104454819D02*
X115525714Y-104597676D01*
X115525714Y-104597676D02*
X115430476Y-104692914D01*
X115430476Y-104692914D02*
X115335238Y-104740533D01*
X118606666Y-105606009D02*
X118273333Y-105606009D01*
X118273333Y-106129819D02*
X118273333Y-105129819D01*
X118273333Y-105129819D02*
X118749523Y-105129819D01*
X119463809Y-105606009D02*
X119606666Y-105653628D01*
X119606666Y-105653628D02*
X119654285Y-105701247D01*
X119654285Y-105701247D02*
X119701904Y-105796485D01*
X119701904Y-105796485D02*
X119701904Y-105939342D01*
X119701904Y-105939342D02*
X119654285Y-106034580D01*
X119654285Y-106034580D02*
X119606666Y-106082200D01*
X119606666Y-106082200D02*
X119511428Y-106129819D01*
X119511428Y-106129819D02*
X119130476Y-106129819D01*
X119130476Y-106129819D02*
X119130476Y-105129819D01*
X119130476Y-105129819D02*
X119463809Y-105129819D01*
X119463809Y-105129819D02*
X119559047Y-105177438D01*
X119559047Y-105177438D02*
X119606666Y-105225057D01*
X119606666Y-105225057D02*
X119654285Y-105320295D01*
X119654285Y-105320295D02*
X119654285Y-105415533D01*
X119654285Y-105415533D02*
X119606666Y-105510771D01*
X119606666Y-105510771D02*
X119559047Y-105558390D01*
X119559047Y-105558390D02*
X119463809Y-105606009D01*
X119463809Y-105606009D02*
X119130476Y-105606009D01*
X120082857Y-105225057D02*
X120130476Y-105177438D01*
X120130476Y-105177438D02*
X120225714Y-105129819D01*
X120225714Y-105129819D02*
X120463809Y-105129819D01*
X120463809Y-105129819D02*
X120559047Y-105177438D01*
X120559047Y-105177438D02*
X120606666Y-105225057D01*
X120606666Y-105225057D02*
X120654285Y-105320295D01*
X120654285Y-105320295D02*
X120654285Y-105415533D01*
X120654285Y-105415533D02*
X120606666Y-105558390D01*
X120606666Y-105558390D02*
X120035238Y-106129819D01*
X120035238Y-106129819D02*
X120654285Y-106129819D01*
X118198333Y-97484580D02*
X118150714Y-97532200D01*
X118150714Y-97532200D02*
X118007857Y-97579819D01*
X118007857Y-97579819D02*
X117912619Y-97579819D01*
X117912619Y-97579819D02*
X117769762Y-97532200D01*
X117769762Y-97532200D02*
X117674524Y-97436961D01*
X117674524Y-97436961D02*
X117626905Y-97341723D01*
X117626905Y-97341723D02*
X117579286Y-97151247D01*
X117579286Y-97151247D02*
X117579286Y-97008390D01*
X117579286Y-97008390D02*
X117626905Y-96817914D01*
X117626905Y-96817914D02*
X117674524Y-96722676D01*
X117674524Y-96722676D02*
X117769762Y-96627438D01*
X117769762Y-96627438D02*
X117912619Y-96579819D01*
X117912619Y-96579819D02*
X118007857Y-96579819D01*
X118007857Y-96579819D02*
X118150714Y-96627438D01*
X118150714Y-96627438D02*
X118198333Y-96675057D01*
X118531667Y-96579819D02*
X119150714Y-96579819D01*
X119150714Y-96579819D02*
X118817381Y-96960771D01*
X118817381Y-96960771D02*
X118960238Y-96960771D01*
X118960238Y-96960771D02*
X119055476Y-97008390D01*
X119055476Y-97008390D02*
X119103095Y-97056009D01*
X119103095Y-97056009D02*
X119150714Y-97151247D01*
X119150714Y-97151247D02*
X119150714Y-97389342D01*
X119150714Y-97389342D02*
X119103095Y-97484580D01*
X119103095Y-97484580D02*
X119055476Y-97532200D01*
X119055476Y-97532200D02*
X118960238Y-97579819D01*
X118960238Y-97579819D02*
X118674524Y-97579819D01*
X118674524Y-97579819D02*
X118579286Y-97532200D01*
X118579286Y-97532200D02*
X118531667Y-97484580D01*
D12*
%TO.C,C2*%
X118157164Y-100740000D02*
X118372836Y-100740000D01*
X118157164Y-101460000D02*
X118372836Y-101460000D01*
%TO.C,C1*%
X119480000Y-100682836D02*
X119480000Y-100467164D01*
X120200000Y-100682836D02*
X120200000Y-100467164D01*
%TO.C,FB1*%
X118740378Y-97815000D02*
X119539622Y-97815000D01*
X118740378Y-98935000D02*
X119539622Y-98935000D01*
D13*
%TO.C,J1*%
X113090376Y-97237683D02*
X113090376Y-102745517D01*
X114290000Y-103700000D02*
X117140000Y-103700000D01*
X117140000Y-96300000D02*
X114290000Y-96300000D01*
X117140000Y-103700000D02*
X117140000Y-96300000D01*
D10*
X117320000Y-97740000D02*
X117570000Y-97890000D01*
X117570000Y-97590000D02*
X117320000Y-97740000D01*
D12*
%TO.C,FB2*%
X119764622Y-102190000D02*
X118965378Y-102190000D01*
X119764622Y-103310000D02*
X118965378Y-103310000D01*
D14*
%TO.C,J2*%
X148470000Y-102740000D02*
G75*
G02*
X148270000Y-102740000I-100000J0D01*
G01*
X148270000Y-102740000D02*
G75*
G02*
X148470000Y-102740000I100000J0D01*
G01*
D12*
%TO.C,C3*%
X118157164Y-99640000D02*
X118372836Y-99640000D01*
X118157164Y-100360000D02*
X118372836Y-100360000D01*
%TD*%
M02*
