%TF.GenerationSoftware,KiCad,Pcbnew,8.0.4*%
%TF.CreationDate,2024-07-27T11:55:36+02:00*%
%TF.ProjectId,PA3194G822_R02,50413331-3934-4473-9832-325f5230322e,2*%
%TF.SameCoordinates,Original*%
%TF.FileFunction,Other,User*%
%FSLAX46Y46*%
G04 Gerber Fmt 4.6, Leading zero omitted, Abs format (unit mm)*
G04 Created by KiCad (PCBNEW 8.0.4) date 2024-07-27 11:55:36*
%MOMM*%
%LPD*%
G01*
G04 APERTURE LIST*
%ADD10C,0.050000*%
%ADD11C,0.200000*%
G04 APERTURE END LIST*
D10*
X104000000Y-87500000D02*
X104000000Y-112500000D01*
X135000000Y-87500000D02*
X135000000Y-112500000D01*
X105000000Y-86500000D02*
X134000000Y-86500000D01*
X105000000Y-113500000D02*
G75*
G02*
X104000000Y-112500000I0J1000000D01*
G01*
X135000000Y-112500000D02*
G75*
G02*
X134000000Y-113500000I-1000000J0D01*
G01*
X134000000Y-86500000D02*
G75*
G02*
X135000000Y-87500000I0J-1000000D01*
G01*
X105000000Y-113500000D02*
X134000000Y-113500000D01*
X104000000Y-87500000D02*
G75*
G02*
X105000000Y-86500000I1000000J0D01*
G01*
D11*
X112823006Y-83543409D02*
X112489673Y-83543409D01*
X112489673Y-84067219D02*
X112489673Y-83067219D01*
X112489673Y-83067219D02*
X112965863Y-83067219D01*
X113918244Y-84067219D02*
X113584911Y-83591028D01*
X113346816Y-84067219D02*
X113346816Y-83067219D01*
X113346816Y-83067219D02*
X113727768Y-83067219D01*
X113727768Y-83067219D02*
X113823006Y-83114838D01*
X113823006Y-83114838D02*
X113870625Y-83162457D01*
X113870625Y-83162457D02*
X113918244Y-83257695D01*
X113918244Y-83257695D02*
X113918244Y-83400552D01*
X113918244Y-83400552D02*
X113870625Y-83495790D01*
X113870625Y-83495790D02*
X113823006Y-83543409D01*
X113823006Y-83543409D02*
X113727768Y-83591028D01*
X113727768Y-83591028D02*
X113346816Y-83591028D01*
X114775387Y-83400552D02*
X114775387Y-84067219D01*
X114537292Y-83019600D02*
X114299197Y-83733885D01*
X114299197Y-83733885D02*
X114918244Y-83733885D01*
X116013483Y-84019600D02*
X116156340Y-84067219D01*
X116156340Y-84067219D02*
X116394435Y-84067219D01*
X116394435Y-84067219D02*
X116489673Y-84019600D01*
X116489673Y-84019600D02*
X116537292Y-83971980D01*
X116537292Y-83971980D02*
X116584911Y-83876742D01*
X116584911Y-83876742D02*
X116584911Y-83781504D01*
X116584911Y-83781504D02*
X116537292Y-83686266D01*
X116537292Y-83686266D02*
X116489673Y-83638647D01*
X116489673Y-83638647D02*
X116394435Y-83591028D01*
X116394435Y-83591028D02*
X116203959Y-83543409D01*
X116203959Y-83543409D02*
X116108721Y-83495790D01*
X116108721Y-83495790D02*
X116061102Y-83448171D01*
X116061102Y-83448171D02*
X116013483Y-83352933D01*
X116013483Y-83352933D02*
X116013483Y-83257695D01*
X116013483Y-83257695D02*
X116061102Y-83162457D01*
X116061102Y-83162457D02*
X116108721Y-83114838D01*
X116108721Y-83114838D02*
X116203959Y-83067219D01*
X116203959Y-83067219D02*
X116442054Y-83067219D01*
X116442054Y-83067219D02*
X116584911Y-83114838D01*
X116870626Y-83400552D02*
X117251578Y-83400552D01*
X117013483Y-83067219D02*
X117013483Y-83924361D01*
X117013483Y-83924361D02*
X117061102Y-84019600D01*
X117061102Y-84019600D02*
X117156340Y-84067219D01*
X117156340Y-84067219D02*
X117251578Y-84067219D01*
X117584912Y-84067219D02*
X117584912Y-83400552D01*
X117584912Y-83067219D02*
X117537293Y-83114838D01*
X117537293Y-83114838D02*
X117584912Y-83162457D01*
X117584912Y-83162457D02*
X117632531Y-83114838D01*
X117632531Y-83114838D02*
X117584912Y-83067219D01*
X117584912Y-83067219D02*
X117584912Y-83162457D01*
X117918245Y-83400552D02*
X118299197Y-83400552D01*
X118061102Y-84067219D02*
X118061102Y-83210076D01*
X118061102Y-83210076D02*
X118108721Y-83114838D01*
X118108721Y-83114838D02*
X118203959Y-83067219D01*
X118203959Y-83067219D02*
X118299197Y-83067219D01*
X118489674Y-83400552D02*
X118870626Y-83400552D01*
X118632531Y-84067219D02*
X118632531Y-83210076D01*
X118632531Y-83210076D02*
X118680150Y-83114838D01*
X118680150Y-83114838D02*
X118775388Y-83067219D01*
X118775388Y-83067219D02*
X118870626Y-83067219D01*
X119584912Y-84019600D02*
X119489674Y-84067219D01*
X119489674Y-84067219D02*
X119299198Y-84067219D01*
X119299198Y-84067219D02*
X119203960Y-84019600D01*
X119203960Y-84019600D02*
X119156341Y-83924361D01*
X119156341Y-83924361D02*
X119156341Y-83543409D01*
X119156341Y-83543409D02*
X119203960Y-83448171D01*
X119203960Y-83448171D02*
X119299198Y-83400552D01*
X119299198Y-83400552D02*
X119489674Y-83400552D01*
X119489674Y-83400552D02*
X119584912Y-83448171D01*
X119584912Y-83448171D02*
X119632531Y-83543409D01*
X119632531Y-83543409D02*
X119632531Y-83638647D01*
X119632531Y-83638647D02*
X119156341Y-83733885D01*
X120061103Y-83400552D02*
X120061103Y-84067219D01*
X120061103Y-83495790D02*
X120108722Y-83448171D01*
X120108722Y-83448171D02*
X120203960Y-83400552D01*
X120203960Y-83400552D02*
X120346817Y-83400552D01*
X120346817Y-83400552D02*
X120442055Y-83448171D01*
X120442055Y-83448171D02*
X120489674Y-83543409D01*
X120489674Y-83543409D02*
X120489674Y-84067219D01*
X121346817Y-84019600D02*
X121251579Y-84067219D01*
X121251579Y-84067219D02*
X121061103Y-84067219D01*
X121061103Y-84067219D02*
X120965865Y-84019600D01*
X120965865Y-84019600D02*
X120918246Y-83924361D01*
X120918246Y-83924361D02*
X120918246Y-83543409D01*
X120918246Y-83543409D02*
X120965865Y-83448171D01*
X120965865Y-83448171D02*
X121061103Y-83400552D01*
X121061103Y-83400552D02*
X121251579Y-83400552D01*
X121251579Y-83400552D02*
X121346817Y-83448171D01*
X121346817Y-83448171D02*
X121394436Y-83543409D01*
X121394436Y-83543409D02*
X121394436Y-83638647D01*
X121394436Y-83638647D02*
X120918246Y-83733885D01*
X121823008Y-84067219D02*
X121823008Y-83400552D01*
X121823008Y-83591028D02*
X121870627Y-83495790D01*
X121870627Y-83495790D02*
X121918246Y-83448171D01*
X121918246Y-83448171D02*
X122013484Y-83400552D01*
X122013484Y-83400552D02*
X122108722Y-83400552D01*
X123727770Y-84067219D02*
X123156342Y-84067219D01*
X123442056Y-84067219D02*
X123442056Y-83067219D01*
X123442056Y-83067219D02*
X123346818Y-83210076D01*
X123346818Y-83210076D02*
X123251580Y-83305314D01*
X123251580Y-83305314D02*
X123156342Y-83352933D01*
X124156342Y-83971980D02*
X124203961Y-84019600D01*
X124203961Y-84019600D02*
X124156342Y-84067219D01*
X124156342Y-84067219D02*
X124108723Y-84019600D01*
X124108723Y-84019600D02*
X124156342Y-83971980D01*
X124156342Y-83971980D02*
X124156342Y-84067219D01*
X124823008Y-83067219D02*
X124918246Y-83067219D01*
X124918246Y-83067219D02*
X125013484Y-83114838D01*
X125013484Y-83114838D02*
X125061103Y-83162457D01*
X125061103Y-83162457D02*
X125108722Y-83257695D01*
X125108722Y-83257695D02*
X125156341Y-83448171D01*
X125156341Y-83448171D02*
X125156341Y-83686266D01*
X125156341Y-83686266D02*
X125108722Y-83876742D01*
X125108722Y-83876742D02*
X125061103Y-83971980D01*
X125061103Y-83971980D02*
X125013484Y-84019600D01*
X125013484Y-84019600D02*
X124918246Y-84067219D01*
X124918246Y-84067219D02*
X124823008Y-84067219D01*
X124823008Y-84067219D02*
X124727770Y-84019600D01*
X124727770Y-84019600D02*
X124680151Y-83971980D01*
X124680151Y-83971980D02*
X124632532Y-83876742D01*
X124632532Y-83876742D02*
X124584913Y-83686266D01*
X124584913Y-83686266D02*
X124584913Y-83448171D01*
X124584913Y-83448171D02*
X124632532Y-83257695D01*
X124632532Y-83257695D02*
X124680151Y-83162457D01*
X124680151Y-83162457D02*
X124727770Y-83114838D01*
X124727770Y-83114838D02*
X124823008Y-83067219D01*
X125584913Y-84067219D02*
X125584913Y-83400552D01*
X125584913Y-83495790D02*
X125632532Y-83448171D01*
X125632532Y-83448171D02*
X125727770Y-83400552D01*
X125727770Y-83400552D02*
X125870627Y-83400552D01*
X125870627Y-83400552D02*
X125965865Y-83448171D01*
X125965865Y-83448171D02*
X126013484Y-83543409D01*
X126013484Y-83543409D02*
X126013484Y-84067219D01*
X126013484Y-83543409D02*
X126061103Y-83448171D01*
X126061103Y-83448171D02*
X126156341Y-83400552D01*
X126156341Y-83400552D02*
X126299198Y-83400552D01*
X126299198Y-83400552D02*
X126394437Y-83448171D01*
X126394437Y-83448171D02*
X126442056Y-83543409D01*
X126442056Y-83543409D02*
X126442056Y-84067219D01*
X126918246Y-84067219D02*
X126918246Y-83400552D01*
X126918246Y-83495790D02*
X126965865Y-83448171D01*
X126965865Y-83448171D02*
X127061103Y-83400552D01*
X127061103Y-83400552D02*
X127203960Y-83400552D01*
X127203960Y-83400552D02*
X127299198Y-83448171D01*
X127299198Y-83448171D02*
X127346817Y-83543409D01*
X127346817Y-83543409D02*
X127346817Y-84067219D01*
X127346817Y-83543409D02*
X127394436Y-83448171D01*
X127394436Y-83448171D02*
X127489674Y-83400552D01*
X127489674Y-83400552D02*
X127632531Y-83400552D01*
X127632531Y-83400552D02*
X127727770Y-83448171D01*
X127727770Y-83448171D02*
X127775389Y-83543409D01*
X127775389Y-83543409D02*
X127775389Y-84067219D01*
M02*
