%TF.GenerationSoftware,KiCad,Pcbnew,8.0.4*%
%TF.CreationDate,2024-07-27T11:55:35+02:00*%
%TF.ProjectId,PA3194G822_R02,50413331-3934-4473-9832-325f5230322e,2*%
%TF.SameCoordinates,Original*%
%TF.FileFunction,Copper,L2,Bot*%
%TF.FilePolarity,Positive*%
%FSLAX46Y46*%
G04 Gerber Fmt 4.6, Leading zero omitted, Abs format (unit mm)*
G04 Created by KiCad (PCBNEW 8.0.4) date 2024-07-27 11:55:35*
%MOMM*%
%LPD*%
G01*
G04 APERTURE LIST*
%TA.AperFunction,ViaPad*%
%ADD10C,0.600000*%
%TD*%
%TA.AperFunction,Conductor*%
%ADD11C,0.300000*%
%TD*%
G04 APERTURE END LIST*
D10*
%TO.N,GND*%
X119015000Y-99580000D03*
X130560000Y-97340000D03*
X115290000Y-99420000D03*
X127525000Y-99975000D03*
X130490000Y-102520000D03*
X132410000Y-96770000D03*
X128575000Y-99975000D03*
X117580000Y-102890000D03*
X115560000Y-101490000D03*
X132470000Y-103080000D03*
%TO.N,/SPI_CS*%
X129800000Y-98150000D03*
X129775000Y-101700000D03*
%TO.N,/SPI_SDI*%
X131650000Y-97575000D03*
X131675000Y-102250000D03*
%TO.N,/SPI_CLK*%
X133525000Y-102675000D03*
X133475000Y-96925000D03*
%TD*%
D11*
%TO.N,/SPI_CS*%
X129800000Y-98150000D02*
X129800000Y-101675000D01*
X129800000Y-101675000D02*
X129775000Y-101700000D01*
%TO.N,/SPI_SDI*%
X131675000Y-102250000D02*
X131675000Y-97600000D01*
X131650000Y-102225000D02*
X131675000Y-102250000D01*
X131675000Y-97600000D02*
X131650000Y-97575000D01*
%TO.N,/SPI_CLK*%
X133475000Y-96925000D02*
X133475000Y-102625000D01*
X133475000Y-102625000D02*
X133525000Y-102675000D01*
%TD*%
%TA.AperFunction,Conductor*%
%TO.N,GND*%
G36*
X134013882Y-87002064D02*
G01*
X134083282Y-87009884D01*
X134137622Y-87022287D01*
X134190248Y-87040701D01*
X134240480Y-87064892D01*
X134287674Y-87094546D01*
X134331268Y-87129310D01*
X134370689Y-87168731D01*
X134405453Y-87212325D01*
X134435107Y-87259519D01*
X134459300Y-87309756D01*
X134477710Y-87362369D01*
X134490117Y-87416727D01*
X134492075Y-87434108D01*
X134497934Y-87486100D01*
X134499500Y-87513981D01*
X134499500Y-94684108D01*
X134499500Y-94750000D01*
X134499500Y-94901252D01*
X134535963Y-95201551D01*
X134548028Y-95250500D01*
X134608357Y-95495267D01*
X134715624Y-95778107D01*
X134715632Y-95778124D01*
X134856200Y-96045954D01*
X134856211Y-96045972D01*
X135014791Y-96275715D01*
X135028050Y-96294924D01*
X135228648Y-96521352D01*
X135455076Y-96721950D01*
X135704033Y-96893792D01*
X135704036Y-96893794D01*
X135704045Y-96893799D01*
X135971875Y-97034367D01*
X135971880Y-97034369D01*
X135971887Y-97034373D01*
X136254734Y-97141643D01*
X136548449Y-97214037D01*
X136848748Y-97250500D01*
X136848754Y-97250500D01*
X137151246Y-97250500D01*
X137151252Y-97250500D01*
X137451551Y-97214037D01*
X137745266Y-97141643D01*
X138028113Y-97034373D01*
X138295967Y-96893792D01*
X138544924Y-96721950D01*
X138771352Y-96521352D01*
X138971950Y-96294924D01*
X139143792Y-96045967D01*
X139284373Y-95778113D01*
X139391643Y-95495266D01*
X139398131Y-95468940D01*
X139405288Y-95439909D01*
X139446496Y-95351926D01*
X139518236Y-95286410D01*
X139609588Y-95253335D01*
X139647052Y-95250500D01*
X139750500Y-95250500D01*
X139845788Y-95269454D01*
X139926570Y-95323430D01*
X139980546Y-95404212D01*
X139999500Y-95499500D01*
X139999500Y-95684108D01*
X139999500Y-95750000D01*
X139999500Y-95857318D01*
X140030046Y-96069769D01*
X140090516Y-96275710D01*
X140090517Y-96275713D01*
X140090518Y-96275715D01*
X140090519Y-96275718D01*
X140179677Y-96470946D01*
X140179684Y-96470959D01*
X140222249Y-96537191D01*
X140295719Y-96651513D01*
X140436276Y-96813724D01*
X140598487Y-96954281D01*
X140723117Y-97034375D01*
X140779040Y-97070315D01*
X140779044Y-97070317D01*
X140779050Y-97070321D01*
X140974290Y-97159484D01*
X141180231Y-97219954D01*
X141392682Y-97250500D01*
X141434108Y-97250500D01*
X151250500Y-97250500D01*
X151345788Y-97269454D01*
X151426570Y-97323430D01*
X151480546Y-97404212D01*
X151499500Y-97499500D01*
X151499500Y-102500500D01*
X151480546Y-102595788D01*
X151426570Y-102676570D01*
X151345788Y-102730546D01*
X151250500Y-102749500D01*
X141565892Y-102749500D01*
X141500000Y-102749500D01*
X141392682Y-102749500D01*
X141180231Y-102780046D01*
X140974290Y-102840516D01*
X140974288Y-102840516D01*
X140974284Y-102840518D01*
X140974281Y-102840519D01*
X140779053Y-102929677D01*
X140779040Y-102929684D01*
X140614761Y-103035260D01*
X140598487Y-103045719D01*
X140554764Y-103083605D01*
X140436281Y-103186271D01*
X140436271Y-103186281D01*
X140356759Y-103278043D01*
X140295719Y-103348487D01*
X140295714Y-103348495D01*
X140179684Y-103529040D01*
X140179677Y-103529053D01*
X140090519Y-103724281D01*
X140090518Y-103724284D01*
X140090516Y-103724288D01*
X140090516Y-103724290D01*
X140030046Y-103930231D01*
X140000526Y-104135552D01*
X139999500Y-104142685D01*
X139999500Y-104500500D01*
X139980546Y-104595788D01*
X139926570Y-104676570D01*
X139845788Y-104730546D01*
X139750500Y-104749500D01*
X139647052Y-104749500D01*
X139551764Y-104730546D01*
X139470982Y-104676570D01*
X139417006Y-104595788D01*
X139405288Y-104560091D01*
X139391643Y-104504736D01*
X139391643Y-104504734D01*
X139284373Y-104221887D01*
X139284367Y-104221875D01*
X139143799Y-103954045D01*
X139143788Y-103954027D01*
X139053962Y-103823891D01*
X138971950Y-103705076D01*
X138771352Y-103478648D01*
X138544924Y-103278050D01*
X138542747Y-103276547D01*
X138295972Y-103106211D01*
X138295954Y-103106200D01*
X138028124Y-102965632D01*
X138028107Y-102965624D01*
X137745267Y-102858357D01*
X137594084Y-102821094D01*
X137451551Y-102785963D01*
X137451549Y-102785962D01*
X137451547Y-102785962D01*
X137327277Y-102770873D01*
X137151252Y-102749500D01*
X136848748Y-102749500D01*
X136672722Y-102770873D01*
X136548453Y-102785962D01*
X136254732Y-102858357D01*
X135971892Y-102965624D01*
X135971875Y-102965632D01*
X135704045Y-103106200D01*
X135704027Y-103106211D01*
X135455085Y-103278043D01*
X135455072Y-103278053D01*
X135228653Y-103478643D01*
X135228643Y-103478653D01*
X135028053Y-103705072D01*
X135028043Y-103705085D01*
X134856211Y-103954027D01*
X134856200Y-103954045D01*
X134715632Y-104221875D01*
X134715624Y-104221892D01*
X134608357Y-104504732D01*
X134535962Y-104798453D01*
X134531217Y-104837532D01*
X134499500Y-105098748D01*
X134499500Y-105098754D01*
X134499500Y-112486018D01*
X134497934Y-112513899D01*
X134490117Y-112583272D01*
X134477710Y-112637630D01*
X134459300Y-112690243D01*
X134435107Y-112740480D01*
X134405453Y-112787674D01*
X134370689Y-112831268D01*
X134331268Y-112870689D01*
X134287674Y-112905453D01*
X134240480Y-112935107D01*
X134190243Y-112959300D01*
X134137630Y-112977710D01*
X134083272Y-112990117D01*
X134047446Y-112994153D01*
X134013897Y-112997934D01*
X133986018Y-112999500D01*
X105013982Y-112999500D01*
X104986102Y-112997934D01*
X104916727Y-112990117D01*
X104862371Y-112977710D01*
X104809755Y-112959299D01*
X104759519Y-112935107D01*
X104712325Y-112905453D01*
X104668731Y-112870689D01*
X104629310Y-112831268D01*
X104594546Y-112787674D01*
X104564892Y-112740480D01*
X104540701Y-112690248D01*
X104522287Y-112637622D01*
X104509884Y-112583282D01*
X104502064Y-112513882D01*
X104500500Y-112486018D01*
X104500500Y-111752558D01*
X105498500Y-111752558D01*
X105498500Y-112001500D01*
X106627968Y-112001500D01*
X108785093Y-112001500D01*
X110163502Y-112001500D01*
X112320627Y-112001500D01*
X113699036Y-112001500D01*
X115856161Y-112001500D01*
X117234570Y-112001500D01*
X119391694Y-112001500D01*
X120770104Y-112001500D01*
X122927228Y-112001500D01*
X124305638Y-112001500D01*
X126462762Y-112001500D01*
X127841171Y-112001500D01*
X129998296Y-112001500D01*
X131376705Y-112001500D01*
X130687500Y-111312295D01*
X129998296Y-112001500D01*
X127841171Y-112001500D01*
X127151966Y-111312295D01*
X126462762Y-112001500D01*
X124305638Y-112001500D01*
X123616433Y-111312295D01*
X122927228Y-112001500D01*
X120770104Y-112001500D01*
X120080899Y-111312295D01*
X119391694Y-112001500D01*
X117234570Y-112001500D01*
X116545365Y-111312295D01*
X115856161Y-112001500D01*
X113699036Y-112001500D01*
X113009831Y-111312295D01*
X112320627Y-112001500D01*
X110163502Y-112001500D01*
X109474297Y-111312295D01*
X108785093Y-112001500D01*
X106627968Y-112001500D01*
X105938763Y-111312295D01*
X105498500Y-111752558D01*
X104500500Y-111752558D01*
X104500500Y-110606601D01*
X106644456Y-110606601D01*
X107706530Y-111668675D01*
X108768603Y-110606601D01*
X110179990Y-110606601D01*
X111242064Y-111668675D01*
X112304137Y-110606601D01*
X113715524Y-110606601D01*
X114777598Y-111668675D01*
X115839671Y-110606601D01*
X117251058Y-110606601D01*
X118313132Y-111668675D01*
X119375205Y-110606601D01*
X120786592Y-110606601D01*
X121848666Y-111668675D01*
X122910739Y-110606601D01*
X124322126Y-110606601D01*
X125384199Y-111668675D01*
X126446273Y-110606601D01*
X127857660Y-110606601D01*
X128919733Y-111668675D01*
X129981807Y-110606601D01*
X131393194Y-110606601D01*
X132455267Y-111668675D01*
X133501500Y-110622443D01*
X133501500Y-110590760D01*
X132455268Y-109544528D01*
X131393194Y-110606601D01*
X129981807Y-110606601D01*
X128919733Y-109544528D01*
X127857660Y-110606601D01*
X126446273Y-110606601D01*
X125384199Y-109544528D01*
X124322126Y-110606601D01*
X122910739Y-110606601D01*
X121848666Y-109544528D01*
X120786592Y-110606601D01*
X119375205Y-110606601D01*
X118313132Y-109544528D01*
X117251058Y-110606601D01*
X115839671Y-110606601D01*
X114777598Y-109544528D01*
X113715524Y-110606601D01*
X112304137Y-110606601D01*
X111242064Y-109544528D01*
X110179990Y-110606601D01*
X108768603Y-110606601D01*
X107706530Y-109544528D01*
X106644456Y-110606601D01*
X104500500Y-110606601D01*
X104500500Y-108217024D01*
X105498500Y-108217024D01*
X105498500Y-109460645D01*
X105938763Y-109900908D01*
X107000836Y-108838834D01*
X108412223Y-108838834D01*
X109474297Y-109900908D01*
X110536370Y-108838834D01*
X111947757Y-108838834D01*
X113009831Y-109900908D01*
X114071904Y-108838834D01*
X115483291Y-108838834D01*
X116545365Y-109900908D01*
X117607438Y-108838834D01*
X119018825Y-108838834D01*
X120080899Y-109900908D01*
X121142972Y-108838834D01*
X122554359Y-108838834D01*
X123616433Y-109900908D01*
X124678506Y-108838834D01*
X126089893Y-108838834D01*
X127151966Y-109900908D01*
X128214040Y-108838834D01*
X129625427Y-108838834D01*
X130687500Y-109900908D01*
X131749574Y-108838834D01*
X130687500Y-107776761D01*
X129625427Y-108838834D01*
X128214040Y-108838834D01*
X127151966Y-107776761D01*
X126089893Y-108838834D01*
X124678506Y-108838834D01*
X123616433Y-107776761D01*
X122554359Y-108838834D01*
X121142972Y-108838834D01*
X120080899Y-107776761D01*
X119018825Y-108838834D01*
X117607438Y-108838834D01*
X116545365Y-107776761D01*
X115483291Y-108838834D01*
X114071904Y-108838834D01*
X113009831Y-107776761D01*
X111947757Y-108838834D01*
X110536370Y-108838834D01*
X109474297Y-107776761D01*
X108412223Y-108838834D01*
X107000836Y-108838834D01*
X105938763Y-107776761D01*
X105498500Y-108217024D01*
X104500500Y-108217024D01*
X104500500Y-107071067D01*
X106644456Y-107071067D01*
X107706530Y-108133141D01*
X108768603Y-107071067D01*
X110179990Y-107071067D01*
X111242064Y-108133141D01*
X112304137Y-107071067D01*
X113715524Y-107071067D01*
X114777598Y-108133141D01*
X115839671Y-107071067D01*
X117251058Y-107071067D01*
X118313132Y-108133141D01*
X119375205Y-107071067D01*
X120786592Y-107071067D01*
X121848666Y-108133141D01*
X122910739Y-107071067D01*
X124322126Y-107071067D01*
X125384199Y-108133141D01*
X126446273Y-107071067D01*
X127857660Y-107071067D01*
X128919733Y-108133141D01*
X129981807Y-107071067D01*
X131393194Y-107071067D01*
X132455267Y-108133141D01*
X133501500Y-107086909D01*
X133501500Y-107055226D01*
X132455268Y-106008994D01*
X131393194Y-107071067D01*
X129981807Y-107071067D01*
X128919733Y-106008994D01*
X127857660Y-107071067D01*
X126446273Y-107071067D01*
X125384199Y-106008994D01*
X124322126Y-107071067D01*
X122910739Y-107071067D01*
X121848666Y-106008994D01*
X120786592Y-107071067D01*
X119375205Y-107071067D01*
X118313132Y-106008994D01*
X117251058Y-107071067D01*
X115839671Y-107071067D01*
X114777598Y-106008994D01*
X113715524Y-107071067D01*
X112304137Y-107071067D01*
X111242064Y-106008994D01*
X110179990Y-107071067D01*
X108768603Y-107071067D01*
X107706530Y-106008994D01*
X106644456Y-107071067D01*
X104500500Y-107071067D01*
X104500500Y-104681490D01*
X105498500Y-104681490D01*
X105498500Y-105925111D01*
X105938763Y-106365374D01*
X107000836Y-105303300D01*
X108412223Y-105303300D01*
X109474297Y-106365374D01*
X110536370Y-105303300D01*
X111947757Y-105303300D01*
X113009831Y-106365374D01*
X114071904Y-105303300D01*
X115483291Y-105303300D01*
X116545365Y-106365374D01*
X117607438Y-105303300D01*
X119018825Y-105303300D01*
X120080899Y-106365374D01*
X121142972Y-105303300D01*
X122554359Y-105303300D01*
X123616433Y-106365374D01*
X124678506Y-105303300D01*
X126089893Y-105303300D01*
X127151966Y-106365374D01*
X128214040Y-105303300D01*
X129625427Y-105303300D01*
X130687500Y-106365374D01*
X131749574Y-105303300D01*
X130687500Y-104241227D01*
X129625427Y-105303300D01*
X128214040Y-105303300D01*
X127151966Y-104241227D01*
X126089893Y-105303300D01*
X124678506Y-105303300D01*
X123616433Y-104241227D01*
X122554359Y-105303300D01*
X121142972Y-105303300D01*
X120080899Y-104241227D01*
X119018825Y-105303300D01*
X117607438Y-105303300D01*
X116545459Y-104241321D01*
X117956846Y-104241321D01*
X118313132Y-104597607D01*
X119375205Y-103535533D01*
X120786592Y-103535533D01*
X121848666Y-104597607D01*
X122910739Y-103535533D01*
X124322126Y-103535533D01*
X125384199Y-104597607D01*
X126446273Y-103535533D01*
X127857659Y-103535533D01*
X128919733Y-104597606D01*
X129787097Y-103730242D01*
X129662920Y-103653356D01*
X129626250Y-103625665D01*
X129468748Y-103482082D01*
X129461933Y-103474606D01*
X129456168Y-103473957D01*
X129442334Y-103472004D01*
X129414667Y-103467303D01*
X129400966Y-103464577D01*
X129346345Y-103452109D01*
X129332822Y-103448620D01*
X129305867Y-103440854D01*
X129292562Y-103436614D01*
X129069421Y-103358533D01*
X129056379Y-103353554D01*
X129030463Y-103342820D01*
X129017713Y-103337116D01*
X128967236Y-103312809D01*
X128954818Y-103306393D01*
X128930257Y-103292818D01*
X128918232Y-103285725D01*
X128718051Y-103159944D01*
X128706436Y-103152183D01*
X128683551Y-103135945D01*
X128672387Y-103127543D01*
X128628586Y-103092611D01*
X128617921Y-103083605D01*
X128597002Y-103064911D01*
X128586851Y-103055315D01*
X128462364Y-102930828D01*
X127857659Y-103535533D01*
X126446273Y-103535533D01*
X125384199Y-102473460D01*
X124322126Y-103535533D01*
X122910739Y-103535533D01*
X121848666Y-102473460D01*
X120786592Y-103535533D01*
X119375205Y-103535533D01*
X118963341Y-103123669D01*
X118963200Y-103125192D01*
X118954757Y-103170359D01*
X118896432Y-103375350D01*
X118879833Y-103418196D01*
X118784835Y-103608979D01*
X118760645Y-103648048D01*
X118632207Y-103818126D01*
X118601252Y-103852082D01*
X118443750Y-103995665D01*
X118407080Y-104023356D01*
X118225876Y-104135552D01*
X118184744Y-104156034D01*
X117986010Y-104233024D01*
X117956846Y-104241321D01*
X116545459Y-104241321D01*
X116545365Y-104241227D01*
X115483291Y-105303300D01*
X114071904Y-105303300D01*
X113009831Y-104241227D01*
X111947757Y-105303300D01*
X110536370Y-105303300D01*
X109474297Y-104241227D01*
X108412223Y-105303300D01*
X107000836Y-105303300D01*
X105938763Y-104241227D01*
X105498500Y-104681490D01*
X104500500Y-104681490D01*
X104500500Y-103535533D01*
X106644456Y-103535533D01*
X107706530Y-104597607D01*
X108768603Y-103535533D01*
X110179990Y-103535533D01*
X111242064Y-104597607D01*
X112304137Y-103535533D01*
X113715524Y-103535533D01*
X114777598Y-104597607D01*
X115839671Y-103535533D01*
X115126520Y-102822382D01*
X114955256Y-102756034D01*
X114914124Y-102735552D01*
X114732920Y-102623356D01*
X114696250Y-102595665D01*
X114674876Y-102576180D01*
X113715524Y-103535533D01*
X112304137Y-103535533D01*
X111242064Y-102473460D01*
X110179990Y-103535533D01*
X108768603Y-103535533D01*
X107706530Y-102473460D01*
X106644456Y-103535533D01*
X104500500Y-103535533D01*
X104500500Y-101145956D01*
X105498500Y-101145956D01*
X105498500Y-102389577D01*
X105938763Y-102829840D01*
X107000836Y-101767766D01*
X108412223Y-101767766D01*
X109474297Y-102829840D01*
X110536370Y-101767766D01*
X111947757Y-101767766D01*
X113009831Y-102829840D01*
X114071904Y-101767766D01*
X119018825Y-101767766D01*
X120080899Y-102829840D01*
X121142972Y-101767766D01*
X122554359Y-101767766D01*
X123616433Y-102829840D01*
X124678506Y-101767766D01*
X126089892Y-101767766D01*
X127151966Y-102829839D01*
X127997188Y-101984617D01*
X127974574Y-101783903D01*
X127973400Y-101769984D01*
X127971827Y-101741971D01*
X127971435Y-101728011D01*
X127971435Y-101699996D01*
X128969435Y-101699996D01*
X128969435Y-101700003D01*
X128989630Y-101879245D01*
X128989631Y-101879251D01*
X128989632Y-101879255D01*
X129049211Y-102049522D01*
X129049212Y-102049523D01*
X129049214Y-102049529D01*
X129145180Y-102202257D01*
X129145182Y-102202259D01*
X129145184Y-102202262D01*
X129272738Y-102329816D01*
X129272740Y-102329817D01*
X129272742Y-102329819D01*
X129425470Y-102425785D01*
X129425473Y-102425786D01*
X129425478Y-102425789D01*
X129595745Y-102485368D01*
X129595754Y-102485369D01*
X129774996Y-102505565D01*
X129775000Y-102505565D01*
X129775004Y-102505565D01*
X129914908Y-102489801D01*
X129954255Y-102485368D01*
X130124522Y-102425789D01*
X130124527Y-102425785D01*
X130124529Y-102425785D01*
X130277257Y-102329819D01*
X130277256Y-102329819D01*
X130277262Y-102329816D01*
X130404816Y-102202262D01*
X130415632Y-102185046D01*
X130482376Y-102114450D01*
X130571056Y-102074767D01*
X130668173Y-102072041D01*
X130758941Y-102106687D01*
X130829540Y-102173432D01*
X130869223Y-102262112D01*
X130873901Y-102289644D01*
X130889630Y-102429245D01*
X130889631Y-102429251D01*
X130889632Y-102429255D01*
X130949211Y-102599522D01*
X130949212Y-102599523D01*
X130949214Y-102599529D01*
X131045180Y-102752257D01*
X131045182Y-102752259D01*
X131045184Y-102752262D01*
X131172738Y-102879816D01*
X131172740Y-102879817D01*
X131172742Y-102879819D01*
X131325470Y-102975785D01*
X131325473Y-102975786D01*
X131325478Y-102975789D01*
X131495745Y-103035368D01*
X131495754Y-103035369D01*
X131674996Y-103055565D01*
X131675000Y-103055565D01*
X131675004Y-103055565D01*
X131814908Y-103039801D01*
X131854255Y-103035368D01*
X132024522Y-102975789D01*
X132024527Y-102975785D01*
X132024529Y-102975785D01*
X132177257Y-102879819D01*
X132177256Y-102879819D01*
X132177262Y-102879816D01*
X132304816Y-102752262D01*
X132304817Y-102752259D01*
X132314703Y-102742374D01*
X132316074Y-102743745D01*
X132376622Y-102692614D01*
X132469188Y-102663108D01*
X132565999Y-102671270D01*
X132652317Y-102715860D01*
X132715002Y-102790088D01*
X132734525Y-102841227D01*
X132735014Y-102841056D01*
X132739631Y-102854252D01*
X132739632Y-102854255D01*
X132799211Y-103024522D01*
X132799212Y-103024523D01*
X132799214Y-103024529D01*
X132895180Y-103177257D01*
X132895182Y-103177259D01*
X132895184Y-103177262D01*
X133022738Y-103304816D01*
X133022740Y-103304817D01*
X133022742Y-103304819D01*
X133175470Y-103400785D01*
X133175473Y-103400786D01*
X133175478Y-103400789D01*
X133345745Y-103460368D01*
X133345754Y-103460369D01*
X133524996Y-103480565D01*
X133525000Y-103480565D01*
X133525004Y-103480565D01*
X133666899Y-103464577D01*
X133704255Y-103460368D01*
X133874522Y-103400789D01*
X133874527Y-103400785D01*
X133874529Y-103400785D01*
X134027257Y-103304819D01*
X134027256Y-103304819D01*
X134027262Y-103304816D01*
X134154816Y-103177262D01*
X134225411Y-103064911D01*
X134250785Y-103024529D01*
X134250785Y-103024527D01*
X134250789Y-103024522D01*
X134310368Y-102854255D01*
X134322171Y-102749500D01*
X134330565Y-102675003D01*
X134330565Y-102674996D01*
X134310369Y-102495754D01*
X134310368Y-102495745D01*
X134250789Y-102325478D01*
X134228273Y-102289644D01*
X134163665Y-102186820D01*
X134129018Y-102096053D01*
X134125500Y-102054345D01*
X134125500Y-101761950D01*
X136702311Y-101761950D01*
X136743418Y-101756960D01*
X136750884Y-101756168D01*
X136765919Y-101754801D01*
X136773428Y-101754232D01*
X136803527Y-101752411D01*
X136811033Y-101752071D01*
X136826137Y-101751614D01*
X136833668Y-101751500D01*
X137166332Y-101751500D01*
X137173863Y-101751614D01*
X137188967Y-101752071D01*
X137196473Y-101752411D01*
X137226572Y-101754232D01*
X137234081Y-101754801D01*
X137249116Y-101756168D01*
X137256582Y-101756960D01*
X137586816Y-101797056D01*
X137594281Y-101798078D01*
X137609224Y-101800353D01*
X137616637Y-101801596D01*
X137646296Y-101807032D01*
X137653682Y-101808501D01*
X137668440Y-101811670D01*
X137675753Y-101813356D01*
X137998741Y-101892964D01*
X138006026Y-101894877D01*
X138020577Y-101898934D01*
X138027781Y-101901060D01*
X138056570Y-101910031D01*
X138063721Y-101912379D01*
X138077998Y-101917306D01*
X138085066Y-101919865D01*
X138396108Y-102037828D01*
X138403105Y-102040603D01*
X138417063Y-102046385D01*
X138423962Y-102049366D01*
X138451458Y-102061741D01*
X138458267Y-102064930D01*
X138471845Y-102071541D01*
X138478560Y-102074937D01*
X138501455Y-102086953D01*
X138820642Y-101767767D01*
X138820641Y-101767766D01*
X140232028Y-101767766D01*
X140447985Y-101983723D01*
X140575916Y-101925299D01*
X140584077Y-101921747D01*
X140600580Y-101914912D01*
X140608850Y-101911659D01*
X140642241Y-101899206D01*
X140650622Y-101896249D01*
X140667551Y-101890615D01*
X140676027Y-101887961D01*
X140916156Y-101817452D01*
X140924732Y-101815100D01*
X140942027Y-101810686D01*
X140950671Y-101808643D01*
X140985495Y-101801067D01*
X140994218Y-101799332D01*
X141011789Y-101796162D01*
X141020561Y-101794740D01*
X141268288Y-101759122D01*
X141277108Y-101758015D01*
X141294855Y-101756107D01*
X141303705Y-101755315D01*
X141339253Y-101752772D01*
X141348136Y-101752296D01*
X141365978Y-101751659D01*
X141374862Y-101751500D01*
X142339909Y-101751500D01*
X143783830Y-101751500D01*
X145875443Y-101751500D01*
X147319364Y-101751500D01*
X149410977Y-101751500D01*
X148365170Y-100705693D01*
X147319364Y-101751500D01*
X145875443Y-101751500D01*
X144829636Y-100705693D01*
X143783830Y-101751500D01*
X142339909Y-101751500D01*
X141294102Y-100705693D01*
X140232028Y-101767766D01*
X138820641Y-101767766D01*
X137758568Y-100705693D01*
X136702311Y-101761950D01*
X134125500Y-101761950D01*
X134125500Y-99805228D01*
X135123500Y-99805228D01*
X135123500Y-100194771D01*
X135990802Y-101062073D01*
X137052875Y-99999999D01*
X138464262Y-99999999D01*
X139526335Y-101062073D01*
X140588409Y-99999999D01*
X141999795Y-99999999D01*
X143061869Y-101062073D01*
X144123942Y-99999999D01*
X145535329Y-99999999D01*
X146597403Y-101062073D01*
X147659476Y-99999999D01*
X149070863Y-99999999D01*
X150132937Y-101062073D01*
X150501500Y-100693510D01*
X150501500Y-99306489D01*
X150132937Y-98937926D01*
X149070863Y-99999999D01*
X147659476Y-99999999D01*
X146597403Y-98937926D01*
X145535329Y-99999999D01*
X144123942Y-99999999D01*
X143061869Y-98937926D01*
X141999795Y-99999999D01*
X140588409Y-99999999D01*
X139526335Y-98937926D01*
X138464262Y-99999999D01*
X137052875Y-99999999D01*
X135990801Y-98937926D01*
X135123500Y-99805228D01*
X134125500Y-99805228D01*
X134125500Y-98238048D01*
X136702311Y-98238048D01*
X137758568Y-99294306D01*
X138820642Y-98232232D01*
X140232028Y-98232232D01*
X141294102Y-99294306D01*
X142339909Y-98248500D01*
X143783830Y-98248500D01*
X144829636Y-99294306D01*
X145875443Y-98248500D01*
X147319364Y-98248500D01*
X148365170Y-99294306D01*
X149410977Y-98248500D01*
X147319364Y-98248500D01*
X145875443Y-98248500D01*
X143783830Y-98248500D01*
X142339909Y-98248500D01*
X141374862Y-98248500D01*
X141365978Y-98248341D01*
X141348136Y-98247704D01*
X141339253Y-98247228D01*
X141303705Y-98244685D01*
X141294855Y-98243893D01*
X141277108Y-98241985D01*
X141268288Y-98240878D01*
X141020561Y-98205260D01*
X141011789Y-98203838D01*
X140994218Y-98200668D01*
X140985495Y-98198933D01*
X140950671Y-98191357D01*
X140942027Y-98189314D01*
X140924732Y-98184900D01*
X140916156Y-98182548D01*
X140676027Y-98112039D01*
X140667551Y-98109385D01*
X140650622Y-98103751D01*
X140642241Y-98100794D01*
X140608850Y-98088341D01*
X140600580Y-98085088D01*
X140584077Y-98078253D01*
X140575916Y-98074701D01*
X140447984Y-98016275D01*
X140232028Y-98232232D01*
X138820642Y-98232232D01*
X138501456Y-97913045D01*
X138478560Y-97925063D01*
X138471845Y-97928459D01*
X138458267Y-97935070D01*
X138451458Y-97938259D01*
X138423962Y-97950634D01*
X138417063Y-97953615D01*
X138403105Y-97959397D01*
X138396108Y-97962172D01*
X138085066Y-98080135D01*
X138077998Y-98082694D01*
X138063721Y-98087621D01*
X138056570Y-98089969D01*
X138027781Y-98098940D01*
X138020577Y-98101066D01*
X138006026Y-98105123D01*
X137998741Y-98107036D01*
X137675753Y-98186644D01*
X137668440Y-98188330D01*
X137653682Y-98191499D01*
X137646296Y-98192968D01*
X137616637Y-98198404D01*
X137609224Y-98199647D01*
X137594281Y-98201922D01*
X137586816Y-98202944D01*
X137256582Y-98243040D01*
X137249116Y-98243832D01*
X137234081Y-98245199D01*
X137226572Y-98245768D01*
X137196473Y-98247589D01*
X137188967Y-98247929D01*
X137173863Y-98248386D01*
X137166332Y-98248500D01*
X136833668Y-98248500D01*
X136826137Y-98248386D01*
X136811033Y-98247929D01*
X136803527Y-98247589D01*
X136773428Y-98245768D01*
X136765919Y-98245199D01*
X136750884Y-98243832D01*
X136743417Y-98243040D01*
X136702311Y-98238048D01*
X134125500Y-98238048D01*
X134125500Y-97466079D01*
X134144454Y-97370791D01*
X134163666Y-97333602D01*
X134200789Y-97274522D01*
X134260368Y-97104255D01*
X134272912Y-96992921D01*
X134280565Y-96925003D01*
X134280565Y-96924996D01*
X134260369Y-96745754D01*
X134260369Y-96745753D01*
X134260368Y-96745745D01*
X134200789Y-96575478D01*
X134200786Y-96575473D01*
X134200785Y-96575470D01*
X134104819Y-96422742D01*
X134104817Y-96422740D01*
X134104816Y-96422738D01*
X133977262Y-96295184D01*
X133977259Y-96295182D01*
X133977257Y-96295180D01*
X133824529Y-96199214D01*
X133824524Y-96199212D01*
X133824522Y-96199211D01*
X133654255Y-96139632D01*
X133654251Y-96139631D01*
X133654245Y-96139630D01*
X133475004Y-96119435D01*
X133474996Y-96119435D01*
X133295754Y-96139630D01*
X133295746Y-96139631D01*
X133295745Y-96139632D01*
X133125478Y-96199211D01*
X133125476Y-96199211D01*
X133125476Y-96199212D01*
X133125470Y-96199214D01*
X132972742Y-96295180D01*
X132845180Y-96422742D01*
X132749214Y-96575470D01*
X132749211Y-96575476D01*
X132749211Y-96575478D01*
X132697433Y-96723453D01*
X132689632Y-96745746D01*
X132689630Y-96745753D01*
X132672911Y-96894140D01*
X132643407Y-96986706D01*
X132580726Y-97060936D01*
X132494409Y-97105529D01*
X132397597Y-97113694D01*
X132305031Y-97084190D01*
X132249411Y-97042333D01*
X132152262Y-96945184D01*
X132152259Y-96945182D01*
X132152257Y-96945180D01*
X131999529Y-96849214D01*
X131999524Y-96849212D01*
X131999522Y-96849211D01*
X131829255Y-96789632D01*
X131829251Y-96789631D01*
X131829245Y-96789630D01*
X131650004Y-96769435D01*
X131649996Y-96769435D01*
X131470754Y-96789630D01*
X131470746Y-96789631D01*
X131470745Y-96789632D01*
X131300478Y-96849211D01*
X131300476Y-96849211D01*
X131300476Y-96849212D01*
X131300470Y-96849214D01*
X131147742Y-96945180D01*
X131020180Y-97072742D01*
X130924214Y-97225470D01*
X130924211Y-97225476D01*
X130924211Y-97225478D01*
X130907050Y-97274523D01*
X130864632Y-97395746D01*
X130864630Y-97395753D01*
X130852974Y-97499203D01*
X130823470Y-97591770D01*
X130760788Y-97666000D01*
X130674471Y-97710592D01*
X130577660Y-97718757D01*
X130485093Y-97689253D01*
X130429474Y-97647396D01*
X130302262Y-97520184D01*
X130302259Y-97520182D01*
X130302257Y-97520180D01*
X130149529Y-97424214D01*
X130149524Y-97424212D01*
X130149522Y-97424211D01*
X129979255Y-97364632D01*
X129979251Y-97364631D01*
X129979245Y-97364630D01*
X129800004Y-97344435D01*
X129799996Y-97344435D01*
X129620754Y-97364630D01*
X129620746Y-97364631D01*
X129620745Y-97364632D01*
X129450478Y-97424211D01*
X129450476Y-97424211D01*
X129450476Y-97424212D01*
X129450470Y-97424214D01*
X129297742Y-97520180D01*
X129170180Y-97647742D01*
X129074214Y-97800470D01*
X129074211Y-97800476D01*
X129074211Y-97800478D01*
X129024045Y-97943846D01*
X129014632Y-97970746D01*
X129014630Y-97970754D01*
X128994435Y-98149996D01*
X128994435Y-98150003D01*
X129014630Y-98329245D01*
X129014631Y-98329251D01*
X129014632Y-98329255D01*
X129074211Y-98499522D01*
X129099516Y-98539795D01*
X129111334Y-98558602D01*
X129145982Y-98649369D01*
X129149500Y-98691079D01*
X129149500Y-101119133D01*
X129130546Y-101214421D01*
X129111334Y-101251609D01*
X129049214Y-101350470D01*
X129049211Y-101350476D01*
X129049211Y-101350478D01*
X128993445Y-101509850D01*
X128989632Y-101520746D01*
X128989630Y-101520754D01*
X128969435Y-101699996D01*
X127971435Y-101699996D01*
X127971435Y-101671989D01*
X127971827Y-101658029D01*
X127973400Y-101630016D01*
X127974574Y-101616098D01*
X127983464Y-101537191D01*
X127794186Y-101347913D01*
X127677317Y-101369760D01*
X127631563Y-101374000D01*
X127418437Y-101374000D01*
X127372683Y-101369760D01*
X127163185Y-101330598D01*
X127118990Y-101318024D01*
X126920256Y-101241034D01*
X126879124Y-101220552D01*
X126729653Y-101128004D01*
X126089892Y-101767766D01*
X124678506Y-101767766D01*
X123616433Y-100705693D01*
X122554359Y-101767766D01*
X121142972Y-101767766D01*
X120080899Y-100705693D01*
X119018825Y-101767766D01*
X114071904Y-101767766D01*
X113353667Y-101049529D01*
X116889201Y-101049529D01*
X116934757Y-101209641D01*
X116943200Y-101254808D01*
X116962865Y-101467025D01*
X116962865Y-101512975D01*
X116951483Y-101635803D01*
X116975256Y-101623966D01*
X117173990Y-101546976D01*
X117218185Y-101534402D01*
X117349522Y-101509850D01*
X116889201Y-101049529D01*
X113353667Y-101049529D01*
X113009831Y-100705693D01*
X111947757Y-101767766D01*
X110536370Y-101767766D01*
X109474297Y-100705693D01*
X108412223Y-101767766D01*
X107000836Y-101767766D01*
X105938763Y-100705693D01*
X105498500Y-101145956D01*
X104500500Y-101145956D01*
X104500500Y-99999999D01*
X106644456Y-99999999D01*
X107706530Y-101062073D01*
X108768603Y-99999999D01*
X110179990Y-99999999D01*
X111242064Y-101062073D01*
X112304137Y-99999999D01*
X117251058Y-99999999D01*
X118313132Y-101062073D01*
X118495966Y-100879238D01*
X118410256Y-100846034D01*
X118369124Y-100825552D01*
X118187920Y-100713356D01*
X118151250Y-100685665D01*
X117993748Y-100542082D01*
X117962793Y-100508126D01*
X117834355Y-100338048D01*
X117810165Y-100298979D01*
X117715167Y-100108196D01*
X117698568Y-100065350D01*
X117679974Y-99999999D01*
X120786592Y-99999999D01*
X121848666Y-101062073D01*
X122910739Y-99999999D01*
X124322126Y-99999999D01*
X125384199Y-101062072D01*
X126159251Y-100287020D01*
X126150243Y-100255359D01*
X126141800Y-100210192D01*
X126122135Y-99997975D01*
X126122135Y-99952025D01*
X126141800Y-99739808D01*
X126148773Y-99702500D01*
X125384199Y-98937926D01*
X124322126Y-99999999D01*
X122910739Y-99999999D01*
X121848666Y-98937926D01*
X120786592Y-99999999D01*
X117679974Y-99999999D01*
X117640243Y-99860359D01*
X117631800Y-99815192D01*
X117615183Y-99635874D01*
X117251058Y-99999999D01*
X112304137Y-99999999D01*
X111242064Y-98937926D01*
X110179990Y-99999999D01*
X108768603Y-99999999D01*
X107706530Y-98937926D01*
X106644456Y-99999999D01*
X104500500Y-99999999D01*
X104500500Y-97610422D01*
X105498500Y-97610422D01*
X105498500Y-98854043D01*
X105938763Y-99294306D01*
X107000836Y-98232232D01*
X108412223Y-98232232D01*
X109474297Y-99294306D01*
X110536370Y-98232232D01*
X111947757Y-98232232D01*
X113009831Y-99294306D01*
X114071904Y-98232232D01*
X113903964Y-98064292D01*
X115651231Y-98064292D01*
X115651815Y-98064402D01*
X115696010Y-98076976D01*
X115894744Y-98153966D01*
X115935876Y-98174448D01*
X116117080Y-98286644D01*
X116153750Y-98314335D01*
X116311252Y-98457918D01*
X116342207Y-98491874D01*
X116470645Y-98661952D01*
X116494835Y-98701021D01*
X116589833Y-98891804D01*
X116606432Y-98934650D01*
X116664757Y-99139641D01*
X116670312Y-99169359D01*
X117607438Y-98232232D01*
X117556206Y-98181000D01*
X119070058Y-98181000D01*
X119121563Y-98181000D01*
X119167317Y-98185240D01*
X119376815Y-98224402D01*
X119421010Y-98236976D01*
X119619744Y-98313966D01*
X119660876Y-98334448D01*
X119842080Y-98446644D01*
X119878750Y-98474335D01*
X120036252Y-98617918D01*
X120067207Y-98651874D01*
X120195645Y-98821952D01*
X120219835Y-98861021D01*
X120314833Y-99051804D01*
X120317225Y-99057979D01*
X121142973Y-98232233D01*
X121142972Y-98232232D01*
X122554359Y-98232232D01*
X123616433Y-99294306D01*
X124678505Y-98232233D01*
X126089893Y-98232233D01*
X126698774Y-98841114D01*
X126879124Y-98729448D01*
X126920256Y-98708966D01*
X127118990Y-98631976D01*
X127163185Y-98619402D01*
X127372683Y-98580240D01*
X127418437Y-98576000D01*
X127631563Y-98576000D01*
X127677317Y-98580240D01*
X127836310Y-98609961D01*
X128021122Y-98425149D01*
X127999574Y-98233903D01*
X127998400Y-98219984D01*
X127996827Y-98191971D01*
X127996435Y-98178011D01*
X127996435Y-98121989D01*
X127996827Y-98108029D01*
X127998400Y-98080016D01*
X127999573Y-98066099D01*
X128004467Y-98022660D01*
X127151966Y-97170159D01*
X126089893Y-98232233D01*
X124678505Y-98232233D01*
X124678506Y-98232232D01*
X123616433Y-97170159D01*
X122554359Y-98232232D01*
X121142972Y-98232232D01*
X120080899Y-97170159D01*
X119070058Y-98181000D01*
X117556206Y-98181000D01*
X116545365Y-97170159D01*
X115651231Y-98064292D01*
X113903964Y-98064292D01*
X113009831Y-97170159D01*
X111947757Y-98232232D01*
X110536370Y-98232232D01*
X109474297Y-97170159D01*
X108412223Y-98232232D01*
X107000836Y-98232232D01*
X105938763Y-97170159D01*
X105498500Y-97610422D01*
X104500500Y-97610422D01*
X104500500Y-96464465D01*
X106644456Y-96464465D01*
X107706530Y-97526539D01*
X108768603Y-96464465D01*
X110179990Y-96464465D01*
X111242064Y-97526539D01*
X112304137Y-96464465D01*
X113715524Y-96464465D01*
X114777598Y-97526539D01*
X115839671Y-96464465D01*
X117251058Y-96464465D01*
X118313132Y-97526539D01*
X119375205Y-96464465D01*
X120786592Y-96464465D01*
X121848666Y-97526539D01*
X122910739Y-96464465D01*
X124322126Y-96464465D01*
X125384199Y-97526539D01*
X126446272Y-96464466D01*
X127857659Y-96464466D01*
X128402681Y-97009488D01*
X128407389Y-97003586D01*
X128416395Y-96992921D01*
X128435089Y-96972002D01*
X128444685Y-96961851D01*
X128611851Y-96794685D01*
X128622002Y-96785089D01*
X128642921Y-96766395D01*
X128653586Y-96757389D01*
X128697387Y-96722457D01*
X128708551Y-96714055D01*
X128731436Y-96697817D01*
X128743051Y-96690056D01*
X128943232Y-96564275D01*
X128955257Y-96557182D01*
X128979818Y-96543607D01*
X128992236Y-96537191D01*
X129042713Y-96512884D01*
X129055463Y-96507180D01*
X129081379Y-96496446D01*
X129094421Y-96491467D01*
X129317562Y-96413386D01*
X129330867Y-96409146D01*
X129357822Y-96401380D01*
X129371345Y-96397891D01*
X129425966Y-96385423D01*
X129439667Y-96382697D01*
X129467334Y-96377996D01*
X129481166Y-96376044D01*
X129549214Y-96368376D01*
X129696250Y-96234335D01*
X129727829Y-96210488D01*
X128919733Y-95402392D01*
X127857659Y-96464466D01*
X126446272Y-96464466D01*
X126446273Y-96464465D01*
X125384199Y-95402392D01*
X124322126Y-96464465D01*
X122910739Y-96464465D01*
X121848666Y-95402392D01*
X120786592Y-96464465D01*
X119375205Y-96464465D01*
X118313132Y-95402392D01*
X117251058Y-96464465D01*
X115839671Y-96464465D01*
X114777598Y-95402392D01*
X113715524Y-96464465D01*
X112304137Y-96464465D01*
X111242064Y-95402392D01*
X110179990Y-96464465D01*
X108768603Y-96464465D01*
X107706530Y-95402392D01*
X106644456Y-96464465D01*
X104500500Y-96464465D01*
X104500500Y-94074888D01*
X105498500Y-94074888D01*
X105498500Y-95318510D01*
X105938762Y-95758773D01*
X107000837Y-94696699D01*
X108412223Y-94696699D01*
X109474297Y-95758772D01*
X110536371Y-94696699D01*
X111947757Y-94696699D01*
X113009831Y-95758772D01*
X114071905Y-94696699D01*
X115483291Y-94696699D01*
X116545365Y-95758772D01*
X117607439Y-94696699D01*
X119018825Y-94696699D01*
X120080899Y-95758773D01*
X121142973Y-94696699D01*
X122554359Y-94696699D01*
X123616433Y-95758773D01*
X124678507Y-94696699D01*
X126089893Y-94696699D01*
X127151966Y-95758772D01*
X128214040Y-94696699D01*
X129625427Y-94696699D01*
X130687500Y-95758772D01*
X131749574Y-94696699D01*
X130687500Y-93634625D01*
X129625427Y-94696699D01*
X128214040Y-94696699D01*
X127151966Y-93634625D01*
X126089893Y-94696699D01*
X124678507Y-94696699D01*
X123616433Y-93634625D01*
X122554359Y-94696699D01*
X121142973Y-94696699D01*
X120080899Y-93634625D01*
X119018825Y-94696699D01*
X117607439Y-94696699D01*
X116545365Y-93634625D01*
X115483291Y-94696699D01*
X114071905Y-94696699D01*
X113009831Y-93634625D01*
X111947757Y-94696699D01*
X110536371Y-94696699D01*
X109474297Y-93634625D01*
X108412223Y-94696699D01*
X107000837Y-94696699D01*
X105938763Y-93634625D01*
X105498500Y-94074888D01*
X104500500Y-94074888D01*
X104500500Y-92928932D01*
X106644456Y-92928932D01*
X107706530Y-93991005D01*
X108768604Y-92928932D01*
X110179990Y-92928932D01*
X111242064Y-93991005D01*
X112304138Y-92928932D01*
X113715524Y-92928932D01*
X114777598Y-93991005D01*
X115839672Y-92928932D01*
X117251058Y-92928932D01*
X118313132Y-93991005D01*
X119375206Y-92928932D01*
X120786592Y-92928932D01*
X121848666Y-93991006D01*
X122910740Y-92928932D01*
X124322126Y-92928932D01*
X125384199Y-93991005D01*
X126446273Y-92928932D01*
X127857660Y-92928932D01*
X128919733Y-93991005D01*
X129981807Y-92928932D01*
X131393194Y-92928932D01*
X132455267Y-93991005D01*
X133501500Y-92944773D01*
X133501500Y-92913090D01*
X132455268Y-91866858D01*
X131393194Y-92928932D01*
X129981807Y-92928932D01*
X128919733Y-91866858D01*
X127857660Y-92928932D01*
X126446273Y-92928932D01*
X125384199Y-91866858D01*
X124322126Y-92928932D01*
X122910740Y-92928932D01*
X121848666Y-91866858D01*
X120786592Y-92928932D01*
X119375206Y-92928932D01*
X118313132Y-91866858D01*
X117251058Y-92928932D01*
X115839672Y-92928932D01*
X114777598Y-91866858D01*
X113715524Y-92928932D01*
X112304138Y-92928932D01*
X111242064Y-91866858D01*
X110179990Y-92928932D01*
X108768604Y-92928932D01*
X107706530Y-91866858D01*
X106644456Y-92928932D01*
X104500500Y-92928932D01*
X104500500Y-90539355D01*
X105498500Y-90539355D01*
X105498500Y-91782976D01*
X105938762Y-92223239D01*
X107000836Y-91161165D01*
X108412223Y-91161165D01*
X109474297Y-92223238D01*
X110536370Y-91161165D01*
X111947757Y-91161165D01*
X113009831Y-92223238D01*
X114071904Y-91161165D01*
X115483291Y-91161165D01*
X116545365Y-92223238D01*
X117607438Y-91161165D01*
X119018825Y-91161165D01*
X120080899Y-92223239D01*
X121142972Y-91161165D01*
X122554359Y-91161165D01*
X123616433Y-92223239D01*
X124678506Y-91161165D01*
X126089893Y-91161165D01*
X127151966Y-92223238D01*
X128214040Y-91161165D01*
X129625427Y-91161165D01*
X130687500Y-92223238D01*
X131749574Y-91161165D01*
X130687500Y-90099091D01*
X129625427Y-91161165D01*
X128214040Y-91161165D01*
X127151966Y-90099091D01*
X126089893Y-91161165D01*
X124678506Y-91161165D01*
X123616433Y-90099091D01*
X122554359Y-91161165D01*
X121142972Y-91161165D01*
X120080899Y-90099091D01*
X119018825Y-91161165D01*
X117607438Y-91161165D01*
X116545365Y-90099091D01*
X115483291Y-91161165D01*
X114071904Y-91161165D01*
X113009831Y-90099091D01*
X111947757Y-91161165D01*
X110536370Y-91161165D01*
X109474297Y-90099091D01*
X108412223Y-91161165D01*
X107000836Y-91161165D01*
X105938763Y-90099091D01*
X105498500Y-90539355D01*
X104500500Y-90539355D01*
X104500500Y-89393398D01*
X106644456Y-89393398D01*
X107706530Y-90455471D01*
X108768603Y-89393398D01*
X110179990Y-89393398D01*
X111242064Y-90455471D01*
X112304137Y-89393398D01*
X113715524Y-89393398D01*
X114777598Y-90455471D01*
X115839671Y-89393398D01*
X117251058Y-89393398D01*
X118313132Y-90455471D01*
X119375205Y-89393398D01*
X120786592Y-89393398D01*
X121848666Y-90455472D01*
X122910739Y-89393398D01*
X124322126Y-89393398D01*
X125384199Y-90455471D01*
X126446273Y-89393398D01*
X127857660Y-89393398D01*
X128919733Y-90455471D01*
X129981807Y-89393398D01*
X131393194Y-89393398D01*
X132455267Y-90455471D01*
X133501500Y-89409239D01*
X133501500Y-89377557D01*
X132455267Y-88331324D01*
X131393194Y-89393398D01*
X129981807Y-89393398D01*
X128919733Y-88331324D01*
X127857660Y-89393398D01*
X126446273Y-89393398D01*
X125384199Y-88331324D01*
X124322126Y-89393398D01*
X122910739Y-89393398D01*
X121848666Y-88331324D01*
X120786592Y-89393398D01*
X119375205Y-89393398D01*
X118313132Y-88331324D01*
X117251058Y-89393398D01*
X115839671Y-89393398D01*
X114777598Y-88331324D01*
X113715524Y-89393398D01*
X112304137Y-89393398D01*
X111242064Y-88331324D01*
X110179990Y-89393398D01*
X108768603Y-89393398D01*
X107706530Y-88331324D01*
X106644456Y-89393398D01*
X104500500Y-89393398D01*
X104500500Y-88247442D01*
X105498500Y-88247442D01*
X105938762Y-88687705D01*
X106627968Y-87998500D01*
X108785093Y-87998500D01*
X109474297Y-88687704D01*
X110163502Y-87998500D01*
X112320627Y-87998500D01*
X113009831Y-88687704D01*
X113699036Y-87998500D01*
X115856161Y-87998500D01*
X116545365Y-88687704D01*
X117234570Y-87998500D01*
X119391694Y-87998500D01*
X120080899Y-88687705D01*
X120770104Y-87998500D01*
X122927228Y-87998500D01*
X123616433Y-88687705D01*
X124305638Y-87998500D01*
X126462762Y-87998500D01*
X127151966Y-88687704D01*
X127841171Y-87998500D01*
X129998296Y-87998500D01*
X130687500Y-88687704D01*
X131376705Y-87998500D01*
X129998296Y-87998500D01*
X127841171Y-87998500D01*
X126462762Y-87998500D01*
X124305638Y-87998500D01*
X122927228Y-87998500D01*
X120770104Y-87998500D01*
X119391694Y-87998500D01*
X117234570Y-87998500D01*
X115856161Y-87998500D01*
X113699036Y-87998500D01*
X112320627Y-87998500D01*
X110163502Y-87998500D01*
X108785093Y-87998500D01*
X106627968Y-87998500D01*
X105498500Y-87998500D01*
X105498500Y-88247442D01*
X104500500Y-88247442D01*
X104500500Y-87513981D01*
X104502064Y-87486118D01*
X104509884Y-87416715D01*
X104522286Y-87362379D01*
X104540702Y-87309747D01*
X104564889Y-87259525D01*
X104594550Y-87212319D01*
X104629306Y-87168735D01*
X104668735Y-87129306D01*
X104712319Y-87094550D01*
X104759525Y-87064889D01*
X104809747Y-87040702D01*
X104862379Y-87022286D01*
X104916717Y-87009884D01*
X104986116Y-87002064D01*
X105013982Y-87000500D01*
X105065892Y-87000500D01*
X133934108Y-87000500D01*
X133986018Y-87000500D01*
X134013882Y-87002064D01*
G37*
%TD.AperFunction*%
%TD*%
M02*
