%TF.GenerationSoftware,KiCad,Pcbnew,8.0.4*%
%TF.CreationDate,2024-07-27T11:55:36+02:00*%
%TF.ProjectId,PA3194G822_R02,50413331-3934-4473-9832-325f5230322e,2*%
%TF.SameCoordinates,Original*%
%TF.FileFunction,Profile,NP*%
%FSLAX46Y46*%
G04 Gerber Fmt 4.6, Leading zero omitted, Abs format (unit mm)*
G04 Created by KiCad (PCBNEW 8.0.4) date 2024-07-27 11:55:36*
%MOMM*%
%LPD*%
G01*
G04 APERTURE LIST*
%TA.AperFunction,Profile*%
%ADD10C,0.050000*%
%TD*%
G04 APERTURE END LIST*
D10*
X104000000Y-87500000D02*
G75*
G02*
X105000000Y-86500000I1000000J0D01*
G01*
X141500000Y-96750000D02*
G75*
G02*
X140500000Y-95750000I0J1000000D01*
G01*
X141500000Y-96750000D02*
X151600000Y-96750000D01*
X105000000Y-86500000D02*
X134000000Y-86500000D01*
X135000000Y-112500000D02*
X135000000Y-105250000D01*
X105000000Y-113500000D02*
X134000000Y-113500000D01*
X134000000Y-86500000D02*
G75*
G02*
X135000000Y-87500000I0J-1000000D01*
G01*
X135000000Y-105250000D02*
G75*
G02*
X139000000Y-105250000I2000000J0D01*
G01*
X152000000Y-97150000D02*
X152000000Y-102850000D01*
X140500000Y-104250000D02*
G75*
G02*
X141500000Y-103250000I1000000J0D01*
G01*
X135000000Y-112500000D02*
G75*
G02*
X134000000Y-113500000I-1000000J0D01*
G01*
X151600000Y-96750000D02*
G75*
G02*
X152000000Y-97150000I0J-400000D01*
G01*
X135000000Y-87500000D02*
X135000000Y-94750000D01*
X140000000Y-94750000D02*
G75*
G02*
X140500000Y-95250000I0J-500000D01*
G01*
X141500000Y-103250000D02*
X151600000Y-103250000D01*
X139000000Y-105250000D02*
X140000000Y-105250000D01*
X152000000Y-102850000D02*
G75*
G02*
X151600000Y-103250000I-400000J0D01*
G01*
X140500000Y-95250000D02*
X140500000Y-95750000D01*
X140500000Y-104750000D02*
G75*
G02*
X140000000Y-105250000I-500000J0D01*
G01*
X139000000Y-94750000D02*
X140000000Y-94750000D01*
X104000000Y-87500000D02*
X104000000Y-112500000D01*
X105000000Y-113500000D02*
G75*
G02*
X104000000Y-112500000I0J1000000D01*
G01*
X139000000Y-94750000D02*
G75*
G02*
X135000000Y-94750000I-2000000J0D01*
G01*
X140500000Y-104750000D02*
X140500000Y-104250000D01*
M02*
