%TF.GenerationSoftware,KiCad,Pcbnew,9.0.2*%
%TF.CreationDate,2025-06-15T19:52:29-07:00*%
%TF.ProjectId,NICE_VIEW,4e494345-5f56-4494-9557-2e6b69636164,4*%
%TF.SameCoordinates,Original*%
%TF.FileFunction,Copper,L1,Top*%
%TF.FilePolarity,Positive*%
%FSLAX46Y46*%
G04 Gerber Fmt 4.6, Leading zero omitted, Abs format (unit mm)*
G04 Created by KiCad (PCBNEW 9.0.2) date 2025-06-15 19:52:29*
%MOMM*%
%LPD*%
G01*
G04 APERTURE LIST*
G04 Aperture macros list*
%AMRoundRect*
0 Rectangle with rounded corners*
0 $1 Rounding radius*
0 $2 $3 $4 $5 $6 $7 $8 $9 X,Y pos of 4 corners*
0 Add a 4 corners polygon primitive as box body*
4,1,4,$2,$3,$4,$5,$6,$7,$8,$9,$2,$3,0*
0 Add four circle primitives for the rounded corners*
1,1,$1+$1,$2,$3*
1,1,$1+$1,$4,$5*
1,1,$1+$1,$6,$7*
1,1,$1+$1,$8,$9*
0 Add four rect primitives between the rounded corners*
20,1,$1+$1,$2,$3,$4,$5,0*
20,1,$1+$1,$4,$5,$6,$7,0*
20,1,$1+$1,$6,$7,$8,$9,0*
20,1,$1+$1,$8,$9,$2,$3,0*%
G04 Aperture macros list end*
%TA.AperFunction,SMDPad,CuDef*%
%ADD10RoundRect,0.140000X-0.140000X-0.170000X0.140000X-0.170000X0.140000X0.170000X-0.140000X0.170000X0*%
%TD*%
%TA.AperFunction,SMDPad,CuDef*%
%ADD11RoundRect,0.218750X0.218750X0.381250X-0.218750X0.381250X-0.218750X-0.381250X0.218750X-0.381250X0*%
%TD*%
%TA.AperFunction,SMDPad,CuDef*%
%ADD12R,0.800000X0.300000*%
%TD*%
%TA.AperFunction,SMDPad,CuDef*%
%ADD13R,1.000000X0.400000*%
%TD*%
%TA.AperFunction,ViaPad*%
%ADD14C,0.550000*%
%TD*%
%TA.AperFunction,Conductor*%
%ADD15C,0.300000*%
%TD*%
G04 APERTURE END LIST*
D10*
%TO.P,C1,1*%
%TO.N,/VSSA*%
X113130000Y-104190000D03*
%TO.P,C1,2*%
%TO.N,/VDDA*%
X114090000Y-104190000D03*
%TD*%
D11*
%TO.P,FB2,1*%
%TO.N,/VSSA*%
X111832500Y-104200000D03*
%TO.P,FB2,2*%
%TO.N,GND*%
X109707500Y-104200000D03*
%TD*%
D12*
%TO.P,J1,1,Pin_1*%
%TO.N,/SPI_CLK*%
X119180000Y-97180000D03*
%TO.P,J1,2,Pin_2*%
%TO.N,/SPI_SDI*%
X119180000Y-97680000D03*
%TO.P,J1,3,Pin_3*%
%TO.N,/SPI_CS*%
X119180000Y-98180000D03*
%TO.P,J1,4,Pin_4*%
%TO.N,GND*%
X119180000Y-98680000D03*
%TO.P,J1,5,Pin_5*%
%TO.N,/VDD*%
X119180000Y-99180000D03*
%TO.P,J1,6,Pin_6*%
%TO.N,/VDDA*%
X119180000Y-99680000D03*
%TO.P,J1,7,Pin_7*%
%TO.N,/VDD*%
X119180000Y-100180000D03*
%TO.P,J1,8,Pin_8*%
%TO.N,GND*%
X119180000Y-100680000D03*
%TO.P,J1,9,Pin_9*%
X119180000Y-101180000D03*
%TO.P,J1,10,Pin_10*%
%TO.N,/VSSA*%
X119180000Y-101680000D03*
D13*
%TO.P,J1,MP*%
%TO.N,N/C*%
X116680000Y-96180000D03*
X116680000Y-102680000D03*
%TD*%
D12*
%TO.P,J2,1,Pin_1*%
%TO.N,/SPI_CLK*%
X125135000Y-102180000D03*
%TO.P,J2,2,Pin_2*%
%TO.N,/SPI_SDI*%
X125135000Y-101680000D03*
%TO.P,J2,3,Pin_3*%
%TO.N,/SPI_CS*%
X125135000Y-101180000D03*
%TO.P,J2,4,Pin_4*%
%TO.N,/VDD*%
X125135000Y-100680000D03*
%TO.P,J2,5,Pin_5*%
%TO.N,GND*%
X125135000Y-100180000D03*
%TO.P,J2,6,Pin_6*%
X125135000Y-99680000D03*
%TO.P,J2,7,Pin_7*%
X125135000Y-99180000D03*
%TO.P,J2,8,Pin_8*%
X125135000Y-98680000D03*
%TO.P,J2,9,Pin_9*%
%TO.N,/VDD*%
X125135000Y-98180000D03*
%TO.P,J2,10,Pin_10*%
%TO.N,/SPI_CS*%
X125135000Y-97680000D03*
%TO.P,J2,11,Pin_11*%
%TO.N,/SPI_SDI*%
X125135000Y-97180000D03*
%TO.P,J2,12,Pin_12*%
%TO.N,/SPI_CLK*%
X125135000Y-96680000D03*
D13*
%TO.P,J2,MP*%
%TO.N,N/C*%
X127635000Y-103180000D03*
X127635000Y-95680000D03*
%TD*%
D10*
%TO.P,C2,2*%
%TO.N,GND*%
X120200000Y-103870000D03*
%TO.P,C2,1*%
%TO.N,/VDD*%
X119240000Y-103870000D03*
%TD*%
D11*
%TO.P,FB1,1*%
%TO.N,/VDD*%
X117502500Y-104180000D03*
%TO.P,FB1,2*%
%TO.N,/VDDA*%
X115377500Y-104180000D03*
%TD*%
D10*
%TO.P,C3,1*%
%TO.N,/VDD*%
X117330000Y-94720000D03*
%TO.P,C3,2*%
%TO.N,GND*%
X118290000Y-94720000D03*
%TD*%
D14*
%TO.N,/VSSA*%
X119250000Y-102630000D03*
X113960000Y-102810000D03*
%TO.N,GND*%
X121910000Y-99430000D03*
X120196119Y-100638148D03*
X120846202Y-98306202D03*
%TD*%
D15*
%TO.N,/VSSA*%
X119180000Y-101680000D02*
X118590000Y-101680000D01*
X118310000Y-102231480D02*
X118708520Y-102630000D01*
X118590000Y-101680000D02*
X118310000Y-101960000D01*
X118310000Y-101960000D02*
X118310000Y-102231480D01*
X118708520Y-102630000D02*
X119250000Y-102630000D01*
X113130000Y-104190000D02*
X113130000Y-103640000D01*
X113130000Y-103640000D02*
X113960000Y-102810000D01*
%TO.N,/VDDA*%
X114090000Y-104190000D02*
X114090000Y-103710000D01*
X118120000Y-99680000D02*
X119180000Y-99680000D01*
X114090000Y-103710000D02*
X118120000Y-99680000D01*
%TO.N,/VSSA*%
X113130000Y-104190000D02*
X111842500Y-104190000D01*
X111842500Y-104190000D02*
X111832500Y-104200000D01*
%TO.N,/VDDA*%
X115377500Y-104180000D02*
X114100000Y-104180000D01*
X114100000Y-104180000D02*
X114090000Y-104190000D01*
%TO.N,GND*%
X118520000Y-105620000D02*
X110670000Y-105620000D01*
X120200000Y-103940000D02*
X118520000Y-105620000D01*
X120200000Y-103870000D02*
X120200000Y-103940000D01*
X110670000Y-105620000D02*
X109707500Y-104657500D01*
X109707500Y-104657500D02*
X109707500Y-104200000D01*
%TO.N,/VDD*%
X117502500Y-104180000D02*
X118930000Y-104180000D01*
X118930000Y-104180000D02*
X119240000Y-103870000D01*
%TO.N,GND*%
X120200000Y-103870000D02*
X120200000Y-102617762D01*
%TO.N,/VDD*%
X117730000Y-101080000D02*
X117730000Y-102360000D01*
%TO.N,GND*%
X120196119Y-102613881D02*
X120196119Y-100638148D01*
X120200000Y-102617762D02*
X120196119Y-102613881D01*
%TO.N,/VDD*%
X117730000Y-102360000D02*
X119240000Y-103870000D01*
X119180000Y-100180000D02*
X118630000Y-100180000D01*
X118630000Y-100180000D02*
X117730000Y-101080000D01*
%TO.N,GND*%
X125135000Y-99680000D02*
X122160000Y-99680000D01*
X125135000Y-100180000D02*
X122660000Y-100180000D01*
%TO.N,/VDD*%
X120770000Y-99181000D02*
X121099000Y-99181000D01*
%TO.N,/SPI_SDI*%
X120380000Y-97180000D02*
X125135000Y-97180000D01*
%TO.N,/SPI_CS*%
X120088520Y-98180000D02*
X120588520Y-97680000D01*
%TO.N,GND*%
X122660000Y-100180000D02*
X121910000Y-99430000D01*
%TO.N,/VDD*%
X122269000Y-100680000D02*
X120770000Y-99181000D01*
%TO.N,/SPI_SDI*%
X119880000Y-97680000D02*
X120380000Y-97180000D01*
%TO.N,/VDD*%
X122100000Y-98180000D02*
X125135000Y-98180000D01*
%TO.N,/SPI_SDI*%
X119180000Y-97680000D02*
X119880000Y-97680000D01*
%TO.N,/VDD*%
X125135000Y-100680000D02*
X122269000Y-100680000D01*
%TO.N,GND*%
X122160000Y-99680000D02*
X121910000Y-99430000D01*
X122160000Y-99180000D02*
X121910000Y-99430000D01*
X125135000Y-98680000D02*
X122660000Y-98680000D01*
X122660000Y-98680000D02*
X121910000Y-99430000D01*
X125135000Y-99180000D02*
X122160000Y-99180000D01*
%TO.N,/VDD*%
X121099000Y-99181000D02*
X122100000Y-98180000D01*
%TO.N,/SPI_CS*%
X119180000Y-98180000D02*
X120088520Y-98180000D01*
%TO.N,/SPI_CLK*%
X120170000Y-96680000D02*
X125135000Y-96680000D01*
%TO.N,/SPI_CS*%
X120588520Y-97680000D02*
X125135000Y-97680000D01*
%TO.N,/SPI_CLK*%
X119180000Y-97180000D02*
X119670000Y-97180000D01*
X119670000Y-97180000D02*
X120170000Y-96680000D01*
%TO.N,/SPI_SDI*%
X126095000Y-101680000D02*
X125135000Y-101680000D01*
X126685479Y-101089521D02*
X126095000Y-101680000D01*
X126263520Y-97180000D02*
X126685479Y-97601959D01*
X126685479Y-97601959D02*
X126685479Y-101089521D01*
%TO.N,/SPI_CS*%
X125887000Y-101180000D02*
X125135000Y-101180000D01*
%TO.N,/SPI_SDI*%
X125135000Y-97180000D02*
X126263520Y-97180000D01*
%TO.N,/SPI_CS*%
X126185000Y-97810000D02*
X126185000Y-100882000D01*
X126185000Y-100882000D02*
X125887000Y-101180000D01*
X125135000Y-97680000D02*
X126055000Y-97680000D01*
X126055000Y-97680000D02*
X126185000Y-97810000D01*
%TO.N,/SPI_CLK*%
X126474000Y-96679000D02*
X127186479Y-97391479D01*
X125135000Y-96680000D02*
X125136000Y-96679000D01*
X126044000Y-102180000D02*
X125135000Y-102180000D01*
X127186479Y-101297041D02*
X126302520Y-102181000D01*
X126302520Y-102181000D02*
X126045000Y-102181000D01*
X126045000Y-102181000D02*
X126044000Y-102180000D01*
X127186479Y-97391479D02*
X127186479Y-101297041D01*
X125136000Y-96679000D02*
X126474000Y-96679000D01*
%TO.N,/VDD*%
X119180000Y-99180000D02*
X118410000Y-99180000D01*
X118410000Y-99180000D02*
X117789000Y-98559000D01*
X117789000Y-98559000D02*
X117789000Y-95580000D01*
X117789000Y-95580000D02*
X117330000Y-95121000D01*
X117330000Y-95121000D02*
X117330000Y-94720000D01*
%TO.N,GND*%
X119180000Y-98680000D02*
X118620000Y-98680000D01*
X118620000Y-98680000D02*
X118290000Y-98350000D01*
X118290000Y-98350000D02*
X118290000Y-94720000D01*
X119180000Y-101180000D02*
X119654267Y-101180000D01*
X119654267Y-101180000D02*
X120196119Y-100638148D01*
X120196119Y-100638148D02*
X120153267Y-100681000D01*
X120153267Y-100681000D02*
X119180000Y-100681000D01*
%TO.N,/VDD*%
X119180000Y-100180000D02*
X119771000Y-100180000D01*
X119771000Y-100180000D02*
X120770000Y-99181000D01*
X120264884Y-99181000D02*
X120770000Y-99181000D01*
X119180000Y-99180000D02*
X120263884Y-99180000D01*
X120263884Y-99180000D02*
X120264884Y-99181000D01*
%TO.N,GND*%
X120472404Y-98680000D02*
X120846202Y-98306202D01*
X119180000Y-98680000D02*
X120472404Y-98680000D01*
%TD*%
M02*
